<?xml version="1.0" encoding="utf-8"?>
<!-- Generator: Adobe Illustrator 24.0.0, SVG Export Plug-In . SVG Version: 6.00 Build 0)  -->
<svg version="1.1" id="Capa_1" xmlns="http://www.w3.org/2000/svg" xmlns:xlink="http://www.w3.org/1999/xlink" x="0px" y="0px"
	 viewBox="0 0 300 19" style="enable-background:new 0 0 300 19;" xml:space="preserve">
<style type="text/css">
	.st0{fill-rule:evenodd;clip-rule:evenodd;fill:#FFFFFF;}
</style>
<title>Combined Shape</title>
<desc>Created with Sketch.</desc>
<g id="Page-1">
	<path id="Combined-Shape" class="st0" d="M0,18.4C21,6.1,58.5,0,112.7,0C193.9,0,231.9,39.3,300,2v17H0V18.4z M271.7,15.7
		c-0.2,0.1-0.3,0.3-0.4,0.6c-0.2,0.5-0.1,1.1,0.2,1.5c0.5,0.9,1.6,0.9,2.4,0.5c0.4-0.2,0.7-0.7,0.7-1.2c0-0.4-0.1-0.7-0.4-0.9
		c-0.2-0.2-0.5-0.4-0.7-0.5c-0.4-0.2-0.8-0.3-1.2-0.2C272.1,15.5,271.9,15.6,271.7,15.7z M285.3,15.2c0.5-1,0.5-2.5-0.1-3.4
		c-0.9-1.5-2.4-0.4-3.3,0.6c-0.9,0.9-1.8,1.4-2.8,1.9c-0.7,0.4-2,0.4-2.5,1.3c-1.8,2.9,3.7,2.5,4.5,2.3
		C282.6,17.6,284.4,16.9,285.3,15.2z"/>
</g>
</svg>
