<!-- Generated by IcoMoon.io -->
<svg version="1.1" xmlns="http://www.w3.org/2000/svg" width="32" height="32" viewBox="0 0 32 32">
<title>chi</title>
<path d="M32 13.312c0-0.064 0-0.096 0-0.128-0.128-1.664-1.44-3.040-3.168-3.040s-3.168 1.44-3.168 3.168c0 1.728 1.44 3.168 3.168 3.168s3.008-1.376 3.168-3.040c0-0.032 0-0.096 0-0.128zM26.72 13.312c0-2.72 4.096-2.72 4.224 0-0.128 2.688-4.224 2.72-4.224 0z"></path>
<path d="M13.504 7.584c1.888 0 3.296-1.504 3.424-3.296 0-0.032 0-0.096 0-0.128 0-0.064 0-0.096 0-0.128-0.128-1.824-1.536-3.328-3.424-3.328-1.856 0-3.456 1.568-3.424 3.424 0 1.888 1.568 3.456 3.424 3.456zM13.504 1.76c1.344 0 2.336 1.088 2.368 2.368-0.064 1.28-1.056 2.368-2.368 2.368s-2.368-1.088-2.368-2.368c0-1.28 1.056-2.368 2.368-2.368z"></path>
<path d="M24.8 15.232c-0.736-1.76-2.752-2.528-4.48-1.728-0.896 0.416-1.728 0.896-2.592 1.344s-1.728 0.896-2.592 1.344c-0.352-0.832-0.736-1.664-1.088-2.496-0.224-0.512-0.48-1.056-0.704-1.568-0.192-0.48-0.256-0.928-0.608-1.344-1.408-1.792-2.912-3.488-4.352-5.216-0.832-0.992-2.112-1.504-3.296-0.704-1.28 0.896-1.184 2.464-0.288 3.552 0.768 0.96 1.568 1.888 2.368 2.848 0.416 0.512 0.832 0.992 1.248 1.504 0.128 0.128 0.224 0.288 0.352 0.416 0.032 0.032 0.064 0.064 0.064 0.064s0 0.032 0.032 0.064c0.736 1.824 1.6 3.648 2.4 5.44-1.696 0.224-3.392 0.448-5.088 0.672-0.704 0.096-1.6 0.096-2.24 0.48-0.864 0.512-1.184 1.472-1.536 2.368-0.768 1.952-1.6 3.904-2.272 5.888-0.416 1.28 0.192 2.72 1.568 3.072 1.28 0.32 2.304-0.512 2.784-1.632 0.736-1.856 1.44-3.744 2.144-5.6 2.208-0.288 4.416-0.576 6.624-0.864 0.544-0.064 0.704 0.032 1.248 0.128 0.768 0.128 1.44-0.064 2.144-0.384 1.088-0.544 2.144-1.12 3.232-1.664 0.832-0.416 1.632-0.832 2.464-1.28 0.032 0.288 0.032 0.576 0.064 0.864 0.032 0.256 0.032 0.512 0.064 0.768-0.288 0.384-0.448 1.088-0.64 1.536-0.32 0.704-0.608 1.408-0.928 2.144-0.16 0.384-0.384 0.768-0.48 1.152-0.192 0.864 0.448 1.76 1.312 1.856 1.44 0.16 1.824-1.44 2.272-2.464 0.352-0.8 0.672-1.568 1.024-2.368 0.224-0.544 0.512-1.056 0.512-1.664 0.032-1.056-0.128-2.144-0.224-3.2-0.096-1.152-0.064-2.304-0.512-3.328zM23.904 23.232c-0.32 0.736-0.64 1.44-0.96 2.176-0.192 0.416-0.352 0.992-0.608 1.376-0.416 0.608-1.056 0.192-0.896-0.384 0.064-0.224 0.192-0.448 0.288-0.64 0.544-1.248 1.248-2.528 1.664-3.808 0.032-0.128 0.096-0.512 0.096-0.416 0-0.224-0.032-0.416-0.064-0.64-0.064-0.608-0.096-1.248-0.16-1.856-0.032-0.416-0.416-0.64-0.8-0.448-2.016 1.056-4.064 2.080-6.080 3.136-0.48 0.256-0.928 0.48-1.504 0.448-0.576 0-0.928-0.256-1.472-0.192-1.312 0.16-2.592 0.352-3.904 0.512-1.088 0.128-2.176 0.288-3.296 0.416-0.256 0.032-0.416 0.16-0.512 0.384-0.608 1.568-1.216 3.136-1.792 4.704-0.224 0.544-0.384 1.376-0.8 1.792-0.864 0.896-2.304 0.064-2.112-1.12 0.032-0.192 0.128-0.416 0.224-0.608 0.704-1.792 1.376-3.616 2.080-5.408 0.288-0.736 0.544-1.76 1.408-2.016 0.512-0.16 1.152-0.16 1.696-0.224 1.856-0.256 3.712-0.48 5.568-0.736 0.416-0.064 0.64-0.416 0.448-0.8-0.832-1.856-1.632-3.712-2.464-5.568-0.64-1.44-1.952-2.688-3.008-3.936-0.544-0.64-1.248-1.312-1.696-2.048-0.704-1.184 0.768-2.496 1.856-1.6 0.192 0.16 0.384 0.416 0.544 0.64 1.376 1.664 2.88 3.232 4.16 4.992 0.256 0.352 0.32 0.736 0.48 1.12 0.192 0.512 0.448 1.024 0.672 1.536 0.448 1.056 0.928 2.080 1.376 3.136 0.128 0.256 0.48 0.32 0.736 0.192 1.024-0.544 2.080-1.056 3.104-1.6 0.992-0.512 2.304-1.504 3.456-1.504 2.176-0.032 2.336 2.080 2.464 3.68 0.096 1.248 0.32 2.528 0.256 3.776 0.128 0.544-0.224 1.056-0.448 1.536z"></path>
<path d="M23.488 21.568c0 0.032 0 0.032 0 0.064 0.032-0.032 0.032-0.064 0-0.064z"></path>
</svg>
