<!-- Generated by IcoMoon.io -->
<svg version="1.1" xmlns="http://www.w3.org/2000/svg" width="32" height="32" viewBox="0 0 32 32">
<title>download</title>
<path d="M29.056 10.208h-2.912v-1.44h-5.792v-5.824h-14.496v7.232h-2.944v-7.328c0-1.024 0.8-2.528 2.368-2.784 0.48-0.064 0.96-0.064 1.472-0.064 4.512 0 14.752 0 15.36 0 0.16 0 0.384 0.096 0.512 0.192 1.408 1.44 2.816 2.848 4.256 4.288 0.64 0.64 1.28 1.28 1.92 1.92 0.192 0.192 0.256 0.352 0.256 0.608 0 1.056 0 3.2 0 3.2z"></path>
<path d="M26.144 29.056v-3.84h2.944c0 0 0.128 4.064-0.192 4.896-0.448 1.152-1.536 1.856-2.784 1.856-3.968 0-7.936 0-11.904 0-2.752 0-5.536 0-8.288 0-1.472 0-2.688-0.96-2.944-2.4-0.096-0.64-0.032-4.384-0.032-4.384h2.88v3.84h20.32z"></path>
<path d="M16.352 5.696c0.256 0.16 0.544 0.32 0.768 0.544 0.288 0.288 0.352 0.672 0.352 1.056 0 5.024 0 5.312 0 10.336 0 0.96 0 1.952 0 3.008 0.16-0.128 0.224-0.224 0.32-0.288 0.992-0.992 2.016-2.016 3.008-3.008 0.416-0.416 0.928-0.544 1.504-0.352s0.896 0.64 0.992 1.216c0.064 0.448-0.096 0.832-0.416 1.152-1.952 1.952-3.904 3.904-5.856 5.856-0.576 0.576-1.44 0.544-2.016-0.032-1.952-1.92-3.872-3.872-5.792-5.792-0.608-0.608-0.576-1.504 0-2.080 0.576-0.544 1.472-0.544 2.048 0.032 0.992 0.992 1.984 1.984 2.976 2.976 0.096 0.096 0.192 0.16 0.352 0.32 0-0.224 0-0.352 0-0.48 0-5.856 0-6.944 0-12.8 0-0.8 0.288-1.344 1.056-1.632 0.032 0 0.032-0.032 0.032-0.064 0.224 0.032 0.448 0.032 0.672 0.032z"></path>
</svg>
