<!-- Generated by IcoMoon.io -->
<svg version="1.1" xmlns="http://www.w3.org/2000/svg" width="32" height="32" viewBox="0 0 32 32">
<title>t-2</title>
<path d="M31.968 23.488c0-1.792 0-3.584 0-5.376 0-1.152 0-2.336 0-3.488 0-0.064 0-0.096-0.032-0.128-0.16-1.472-1.632-2.432-2.848-3.008-0.704-0.32-1.408-0.608-2.144-0.832 0-0.672 0-1.376 0-2.048 0 0 0.032 0 0.032-0.032 0.832-0.416 1.664-0.832 2.496-1.248 0.192-0.096 0.16-0.384 0-0.448-0.896-0.48-1.792-0.96-2.688-1.44-0.192-0.096-0.416 0.032-0.416 0.224 0 1.6 0 3.232 0 4.832-1.504-0.416-3.104-0.704-4.64-0.896-0.96-0.128-1.92-0.224-2.88-0.256 0-0.672 0-1.376 0-2.048 0.672 0 1.376 0 2.048 0 0.16 0 0.288-0.064 0.352-0.128 0 0 0 0 0.032-0.032 0 0 0 0 0 0 0.096-0.096 0.16-0.192 0.16-0.352 0-1.856 0-3.712 0-5.536 0-0.288-0.256-0.544-0.544-0.544-3.328-0.064-6.72-0.064-10.144-0.064-0.288 0-0.544 0.256-0.544 0.544 0 1.856 0 3.712 0 5.536 0 0.288 0.256 0.544 0.544 0.544 0.736 0 1.504 0 2.24 0 0 0.672 0 1.376 0 2.048-0.512 0.032-1.056 0.064-1.568 0.128-1.984 0.192-4 0.48-5.952 1.056 0-0.64 0-1.28 0-1.92 0 0 0.032 0 0.032-0.032 0.832-0.416 1.664-0.832 2.496-1.248 0.192-0.096 0.16-0.384 0-0.448-0.896-0.48-1.792-0.96-2.688-1.44-0.192-0.096-0.416 0.032-0.416 0.224 0 1.664 0 3.36 0 5.024-0.48 0.16-0.992 0.32-1.44 0.544-1.312 0.544-3.072 1.44-3.424 2.976-0.032 0.128-0.032 0.224-0.032 0.352 0 0.032 0 0.032 0 0.064 0 2.72 0 5.44 0 8.16 0 1.088-0.032 2.208 0 3.296 0.064 1.44 1.248 2.368 2.4 2.976 0.448 0.224 0.896 0.448 1.344 0.608 0.096 0.064 0.192 0.096 0.32 0.128 2.336 0.896 4.928 1.28 7.392 1.504 0.288 0.032 0.544-0.256 0.544-0.544 0-1.6 0-3.2 0-4.768 2.56 0 5.12 0 7.712 0 0 1.6 0 3.2 0 4.8 0 0.256 0.256 0.576 0.544 0.544 2.56-0.256 5.184-0.64 7.616-1.536 0.064 0 0.128-0.032 0.192-0.064 0.192-0.064 0.384-0.16 0.576-0.224 1.376-0.576 3.2-1.568 3.328-3.264 0.064-0.864 0-1.792 0-2.72zM26.976 8c0-0.64 0-1.248 0-1.888 0.608 0.32 1.216 0.64 1.824 0.992-0.608 0.288-1.216 0.608-1.824 0.896zM5.472 8c0-0.64 0-1.248 0-1.888 0.608 0.32 1.216 0.64 1.824 0.992-0.608 0.288-1.216 0.608-1.824 0.896zM30.912 14.656c-0.032 1.216-1.664 1.984-2.688 2.4-0.416-1.28-1.856-2.080-3.072-2.592 0.64-0.896 1.312-1.792 1.952-2.656 0.032 0 0.096 0.032 0.128 0.032 1.12 0.416 3.616 1.28 3.68 2.816zM10.944 30.176c-0.544-0.064-1.088-0.128-1.6-0.192 0-3.456 0-6.912 0-10.4 2.016 0.288 4.064 0.448 6.080 0.48 0 1.632 0 3.232 0 4.864-1.312 0-2.624 0-3.936 0-0.288 0-0.544 0.256-0.544 0.544 0 1.568 0 3.136 0 4.704zM22.976 18.464c-0.096-0.16-0.256-0.32-0.416-0.48 0.64-0.864 1.28-1.76 1.92-2.624 1.088 0.384 2.464 1.024 2.688 2.080-1.344 0.48-2.752 0.8-4.192 1.024zM21.664 17.44c-0.128-0.064-0.256-0.128-0.384-0.16-1.504-0.608-3.168-0.832-4.8-0.864 0-0.768 0-1.568 0-2.336 2.336 0.032 4.704 0.288 6.944 0.96-0.576 0.8-1.184 1.6-1.76 2.4zM15.424 16.416c-1.536 0.032-3.136 0.256-4.544 0.832-0.16 0.064-0.288 0.128-0.448 0.192-0.576-0.8-1.184-1.6-1.76-2.4 2.176-0.64 4.48-0.896 6.752-0.96 0 0.768 0 1.568 0 2.336zM9.504 18.016c-0.16 0.16-0.32 0.32-0.448 0.512-1.44-0.256-2.848-0.576-4.192-1.056 0.224-1.056 1.632-1.696 2.72-2.112 0.64 0.896 1.28 1.792 1.92 2.656zM8.256 19.424c0 3.456 0 6.912 0 10.4-1.216-0.224-2.432-0.512-3.584-0.928 0-3.424 0-6.88 0-10.304 1.152 0.352 2.368 0.64 3.584 0.832zM10.272 18.72c0.512-0.384 1.376-0.64 1.76-0.736 1.312-0.352 2.656-0.48 4-0.48s2.688 0.128 4 0.48c0.384 0.096 1.184 0.32 1.696 0.672-0.288 0.032-0.576 0.064-0.864 0.096-3.424 0.352-7.072 0.416-10.592-0.032zM27.232 18.592c0 3.456 0 6.912 0 10.336-1.152 0.416-2.368 0.704-3.584 0.928 0-3.456 0-6.912 0-10.368 1.216-0.224 2.432-0.512 3.584-0.896zM26.016 11.488c-0.64 0.864-1.28 1.728-1.92 2.624-2.432-0.8-5.056-1.088-7.616-1.12 0-0.896 0-1.792 0-2.688 0.576 0 1.152 0.032 1.728 0.064 0.064 0.032 0.16 0.032 0.224 0 0.064 0 0.128 0 0.192 0 2.496 0.16 4.992 0.448 7.392 1.12zM11.296 6.208c0-1.504 0-2.976 0-4.48 3.040 0 6.080 0 9.12 0 0 1.504 0 2.976 0 4.48-3.040 0-6.080 0-9.12 0zM14.080 7.264c1.248 0 2.496 0 3.744 0 0 0.672 0 1.344 0 1.984-1.248-0.064-2.496-0.032-3.744 0 0-0.64 0-1.312 0-1.984zM13.44 10.368c0.064 0 0.16 0 0.224 0 0.576-0.032 1.152-0.032 1.728-0.064 0 0.896 0 1.792 0 2.688-2.496 0.032-5.056 0.32-7.424 1.088-0.64-0.896-1.28-1.76-1.92-2.656 1.28-0.352 2.624-0.576 3.936-0.768 1.152-0.096 2.304-0.224 3.456-0.288zM3.36 12.448c0.512-0.256 1.056-0.48 1.632-0.672 0.672 0.896 1.312 1.792 1.984 2.72-1.216 0.512-2.688 1.312-3.072 2.624-1.12-0.416-2.4-1.088-2.72-2.112-0.416-1.248 1.28-2.144 2.176-2.56zM1.088 25.984c-0.096-2.752 0-5.504 0-8.256 0-0.352 0-0.672 0-1.024 0.32 0.288 0.704 0.544 1.056 0.768 0.448 0.256 0.96 0.512 1.44 0.704 0 3.424 0 6.848 0 10.272-0.064-0.032-0.128-0.064-0.16-0.064-0.992-0.48-2.272-1.184-2.336-2.4zM20.256 24.928c-1.248 0-2.496 0-3.744 0 0-1.632 0-3.232 0-4.864 0.928 0 1.888-0.032 2.816-0.096 1.088-0.064 2.176-0.192 3.264-0.32 0 3.456 0 6.912 0 10.368-0.608 0.096-1.216 0.16-1.792 0.224 0-1.568 0-3.168 0-4.736 0-0.32-0.256-0.576-0.544-0.576zM30.912 25.76c0 1.152-0.832 1.792-1.792 2.304-0.256 0.16-0.544 0.288-0.832 0.416 0-3.424 0-6.88 0-10.304 0.032 0 0.064-0.032 0.096-0.032 0.8-0.32 1.76-0.768 2.496-1.44 0 1.76 0 3.552 0 5.312 0.032 1.28 0.032 2.528 0.032 3.744z"></path>
</svg>
