<!-- Generated by IcoMoon.io -->
<svg version="1.1" xmlns="http://www.w3.org/2000/svg" width="32" height="32" viewBox="0 0 32 32">
<title>t-3</title>
<path d="M31.392 3.328c-0.032-0.224-0.32-0.384-0.512-0.384-1.632 0-3.264 0-4.896 0 0.032-0.8 0.032-1.6-0.064-2.4-0.064-0.288-0.224-0.544-0.544-0.544-5.44 0-10.88 0-16.32 0-0.768 0-1.568 0-2.336 0-0.32 0-0.512 0.256-0.544 0.544-0.096 0.8-0.128 1.6-0.096 2.4-1.632 0-3.264 0-4.896 0-0.224 0-0.512 0.16-0.544 0.384-0.576 3.872 0.96 8.128 4.096 10.496 1.696 1.28 3.744 1.952 5.824 2.336 0.096 0.128 0.192 0.256 0.32 0.384 0.896 1.056 1.888 1.952 2.368 3.296 0.96 2.688-0.256 5.344-2.144 7.296-0.736 0-1.472 0-2.176 0-0.256 0-0.448 0.16-0.512 0.384-0.48 1.248-0.96 2.528-1.44 3.776-0.128 0.32 0.192 0.672 0.512 0.672 4.992 0 9.984 0 15.008 0 0.704 0 1.408 0 2.112 0 0.16 0 0.256-0.064 0.352-0.128 0.16-0.096 0.256-0.32 0.16-0.544-0.48-1.248-0.96-2.528-1.44-3.776-0.096-0.224-0.256-0.384-0.512-0.384-0.704 0-1.44 0-2.144 0-1.632-1.728-2.816-3.936-2.368-6.368 0.256-1.408 1.024-2.464 1.952-3.488 0.352-0.352 0.672-0.736 0.96-1.152 3.296-0.576 6.432-2.112 8.256-5.024 1.152-1.856 1.664-4.096 1.696-6.272-0.032-0.48-0.064-0.992-0.128-1.504zM2.24 8.608c-0.384-1.12-0.576-2.304-0.608-3.52 0-0.352 0-0.736 0.032-1.088 1.504 0 2.976 0 4.48 0 0.096 1.152 0.256 2.336 0.512 3.456 0.448 2.112 1.152 4.16 2.176 6.048 0.256 0.448 0.512 0.896 0.8 1.312-3.36-0.832-6.208-2.784-7.392-6.208zM23.808 30.912c-4.736 0-9.472 0-14.208 0-0.448 0-0.896 0-1.344 0 0.352-0.896 0.672-1.792 1.024-2.72 4.512 0 8.992 0 13.504 0 0.32 0.928 0.672 1.824 1.024 2.72zM18.72 17.792c-0.64 0.928-1.056 1.984-1.184 3.104-0.288 2.304 0.576 4.416 1.984 6.144-2.304 0-4.576 0-6.88 0 1.248-1.536 2.080-3.36 2.016-5.408-0.032-0.992-0.256-1.984-0.704-2.88-0.576-1.216-1.568-2.080-2.432-3.104-2.784-3.456-4.16-7.904-4.32-12.32-0.032-0.736-0.032-1.504 0-2.272 5.28 0 10.56 0 15.84 0 0.608 0 1.216 0 1.856 0 0.064 0.736 0.064 1.504 0.032 2.272 0 0.064-0.032 0.128 0 0.192-0.096 1.536-0.32 3.040-0.672 4.48-0.576 2.368-1.536 4.608-2.912 6.624-0.128 0.192-0.288 0.384-0.448 0.576 0 0 0 0 0 0-0.736 0.928-1.536 1.696-2.176 2.592zM30.4 5.056c-0.032 1.216-0.224 2.4-0.608 3.552-1.152 3.392-4 5.344-7.296 6.208 0.096-0.16 0.224-0.32 0.32-0.512 1.888-3.072 2.88-6.688 3.104-10.272 1.472 0 2.976 0 4.448 0 0.032 0.352 0.032 0.672 0.032 1.024z"></path>
<path d="M20.352 12.352c-0.576-1.248-1.152-2.496-1.728-3.744 0.8-0.8 1.632-1.568 2.432-2.368 0 0 0 0 0 0s0 0 0 0c0.192-0.192 0.192-0.416 0.096-0.608-0.064-0.192-0.224-0.32-0.48-0.32-1.056 0-2.144 0-3.2 0-0.352-0.864-0.704-1.728-1.056-2.592-0.192-0.512-0.832-0.512-1.056 0-0.32 0.864-0.672 1.728-0.992 2.592-1.024 0-2.048 0-3.104 0-0.448 0-0.736 0.608-0.384 0.928 0.8 0.768 1.6 1.568 2.4 2.336-0.576 1.248-1.12 2.496-1.696 3.776-0.192 0.448 0.256 1.088 0.736 0.736 1.216-0.832 2.464-1.664 3.68-2.528 1.184 0.832 2.336 1.664 3.52 2.528 0.576 0.352 1.024-0.32 0.832-0.736zM15.808 9.44c-0.8 0.544-1.6 1.088-2.432 1.664 0.352-0.8 0.704-1.568 1.056-2.368 0.096-0.224 0.096-0.48-0.096-0.64-0.576-0.544-1.152-1.12-1.728-1.664 0.704 0 1.408 0 2.144 0 0.256 0 0.448-0.16 0.512-0.384 0.224-0.544 0.416-1.088 0.64-1.664 0.224 0.544 0.448 1.088 0.672 1.664 0.096 0.224 0.256 0.384 0.512 0.384 0.736 0 1.472 0 2.24 0-0.576 0.576-1.184 1.152-1.76 1.696-0.192 0.192-0.192 0.448-0.096 0.64 0.352 0.736 0.704 1.504 1.024 2.24-0.736-0.512-1.44-1.024-2.176-1.568-0.096-0.096-0.352-0.096-0.512 0z"></path>
</svg>
