<?xml version="1.0" encoding="utf-8"?>
<!-- Generator: Adobe Illustrator 23.0.6, SVG Export Plug-In . SVG Version: 6.00 Build 0)  -->
<svg version="1.1" id="Capa_1" xmlns="http://www.w3.org/2000/svg" xmlns:xlink="http://www.w3.org/1999/xlink" x="0px" y="0px"
	 viewBox="0 0 300 86.2" style="enable-background:new 0 0 300 86.2;" xml:space="preserve">
<style type="text/css">
	.st0{fill:#FFFFFF;}
</style>
<title>Group 37</title>
<desc>Created with Sketch.</desc>
<path class="st0" d="M247.1,15.9c-51.1,6.6-57.6,33.9-107.5,50.7S102,38.9,70,38.9C44.4,38.9,0,50.5,0,0c0,0,0,86.2,0,86.2h300V15
	C287.1,11.5,271.4,12.8,247.1,15.9z M82.9,54.3c-1.8,0.6-4.2-0.9-6-1.3c-2.4-0.6-4.9-0.9-7.4-0.7c-2.7,0.2-6.6,0.1-6.9-3.4
	c-0.2-2.1,1.5-4.4,3.4-5.2c3.4-1.6,7.5-0.1,10.7,1.4C78.3,45.8,89.3,52.2,82.9,54.3z M87.5,59.7c-0.9-0.4-1.5-1.3-1.5-2.3
	c0-0.5,0.1-0.9,0.4-1.3c0.2-0.4,0.6-0.7,0.9-1c0.8-0.5,1.7-0.8,2.6-0.9c0.7-0.1,1.3-0.1,1.9,0.2c0.6,0.2,1.2,0.6,1.5,1.2
	c0.4,0.9,0.1,2-0.5,2.7C91.5,59.7,89.3,60.6,87.5,59.7z M95.6,63.9c-0.1,0.6-0.7,1.1-1.3,1c-0.6,0-1.1-0.6-1.1-1.2
	c0-0.6,0.6-1.2,1.2-1.2C95.1,62.4,95.7,63.2,95.6,63.9z"/>
</svg>
