<?xml version="1.0" encoding="UTF-8"?>
<svg width="150px" height="150px" viewBox="0 0 150 150" version="1.1" xmlns="http://www.w3.org/2000/svg" xmlns:xlink="http://www.w3.org/1999/xlink">
    <!-- Generator: Sketch 49.3 (51167) - http://www.bohemiancoding.com/sketch -->
    <title>Fill 1</title>
    <desc>Created with Sketch.</desc>
    <defs></defs>
    <g id="Page-1" stroke="none" stroke-width="1" fill="none" fill-rule="evenodd">
        <path d="M137.0283,117.7876 C126.3443,130.5316 110.3793,138.2296 93.9343,140.5706 C75.5493,143.1866 55.7063,139.0236 41.6973,126.8106 C34.0043,120.1026 28.4673,110.8606 26.1223,100.9196 C24.2613,93.0316 25.8463,84.3876 23.5043,76.6776 C21.0173,68.4886 13.2043,65.4876 7.9163,59.4616 C0.9943,51.5716 -1.7417,39.9586 2.0893,30.0066 C5.5253,21.0746 14.4153,14.3136 23.9653,14.1276 C24.1153,14.1246 24.2653,14.1226 24.4143,14.1226 C34.3183,14.1226 43.0693,20.5036 50.5793,27.0286 C58.2023,33.6526 65.9263,41.0086 75.7673,43.2336 C82.5333,44.7636 89.4223,43.6676 96.3463,42.5736 C101.5253,41.7546 106.7223,40.9346 111.9033,41.2136 C128.4883,42.1076 143.2353,55.1116 147.8823,71.0906 C152.5293,87.0696 147.7113,105.0436 137.0283,117.7876 Z M81.7143,8.6816 C82.4033,8.6816 83.1213,8.7396 83.8613,8.8616 C96.1503,10.8776 103.4543,27.3946 91.6023,35.0266 C86.7343,38.1606 79.9453,37.9616 75.2683,34.5486 C65.4493,27.3836 69.3503,8.6786 81.7143,8.6816 Z M105.2423,28.8596 C106.1143,26.9486 108.1023,26.0256 110.1083,26.0256 C112.1743,26.0256 114.2593,27.0066 115.1593,28.8926 C116.2903,31.2656 115.3603,34.4086 113.1133,35.7996 C110.8673,37.1896 107.6083,36.6416 105.9503,34.5946 C104.6713,33.0136 104.3993,30.7056 105.2423,28.8596 Z M0.0003,149.9996 L150.0003,149.9996 L150.0003,-0.0004 L0.0003,-0.0004 L0.0003,149.9996 Z" id="Fill-1" fill="#FFFFFF"></path>
    </g>
</svg>