<?xml version="1.0" encoding="UTF-8"?>
<svg width="150px" height="150px" viewBox="0 0 150 150" version="1.1" xmlns="http://www.w3.org/2000/svg" xmlns:xlink="http://www.w3.org/1999/xlink">
    <!-- Generator: Sketch 49.3 (51167) - http://www.bohemiancoding.com/sketch -->
    <title>Fill 1</title>
    <desc>Created with Sketch.</desc>
    <defs></defs>
    <g id="Page-1" stroke="none" stroke-width="1" fill="none" fill-rule="evenodd">
        <path d="M119.2891,125.813 C96.1001,144.354 59.4251,153.592 34.6281,132.802 C25.6861,125.304 18.8831,114.098 17.7241,102.355 C15.0211,74.977 44.3071,56.61 67.6461,51.589 C81.2251,48.669 100.2411,46.279 105.6361,31.099 C108.7251,22.413 110.8081,10.842 118.9041,10.841 C121.2431,10.84 124.0811,11.806 127.5921,14.084 C137.3081,20.388 143.4701,33.487 146.7291,44.216 C155.7661,73.968 143.0701,106.8 119.2891,125.813 Z M8.1981,74.733 C0.3241,73.507 -0.2809,63.322 0.7121,57.15 C2.1801,48.018 8.2931,40.911 16.4331,36.8 C26.1711,31.881 36.5481,31.808 47.2201,32.126 C51.2611,32.248 55.2581,32.721 59.2721,32.164 C63.2651,31.61 67.1671,30.417 70.7801,28.633 C75.1821,26.46 78.9581,23.373 83.1951,20.934 C84.2381,20.334 85.7041,19.786 87.0671,19.786 C88.0811,19.786 89.0361,20.089 89.7191,20.9 C91.6871,23.238 89.3791,27.027 87.9791,28.992 C83.3721,35.459 75.0701,39.804 67.6131,42.085 C60.9371,44.126 54.0141,45.357 47.4561,47.746 C37.5631,51.348 28.6571,57.602 21.9201,65.672 C18.2321,70.089 13.8931,75.621 8.1981,74.733 Z M35.9221,11.119 C37.8991,7.334 42.1161,5.338 46.2471,5.337 C50.5061,5.337 54.6771,7.457 56.2181,11.924 C59.4971,21.435 47.3281,26.601 40.0141,23.219 C34.3541,20.603 33.7301,15.314 35.9221,11.119 Z M9.99999993e-05,150 L150.0001,150 L150.0001,0 L9.99999993e-05,0 L9.99999993e-05,150 Z" id="Fill-1" fill="#FFFFFF"></path>
    </g>
</svg>