<?xml version="1.0" encoding="utf-8"?>
<!-- Generator: Adobe Illustrator 23.0.3, SVG Export Plug-In . SVG Version: 6.00 Build 0)  -->
<svg version="1.1" id="Capa_1" xmlns="http://www.w3.org/2000/svg" xmlns:xlink="http://www.w3.org/1999/xlink" x="0px" y="0px"
	 viewBox="0 0 32 32" style="enable-background:new 0 0 32 32;" xml:space="preserve">
<title>behance</title>
<g>
	<path d="M6.2,14.6c0.2,0,0.5,0,0.8-0.1c0,4.7-2.3,7.6-7,10l2.5,5c7.5-3.7,11.1-9.4,11.1-16.8c0-6.4-2.6-10.3-7.4-10.3
		C2.8,2.5,0.3,5,0.3,8.9C0.3,12.4,3,14.6,6.2,14.6z"/>
	<path d="M18.5,24.5l2.5,5C28.4,25.8,32,20.1,32,12.7c0-6.4-2.5-10.3-7.3-10.3c-3.4,0-6,2.5-6,6.4c0,3.5,2.7,5.7,6,5.7
		c0.2,0,0.5,0,0.8-0.1C25.5,19.3,23.1,22.2,18.5,24.5z"/>
</g>
</svg>
