<?xml version="1.0" encoding="utf-8"?>
<!-- Generator: Adobe Illustrator 23.0.3, SVG Export Plug-In . SVG Version: 6.00 Build 0)  -->
<svg version="1.1" id="Capa_1" xmlns="http://www.w3.org/2000/svg" xmlns:xlink="http://www.w3.org/1999/xlink" x="0px" y="0px"
	 viewBox="0 0 32 32" style="enable-background:new 0 0 32 32;" xml:space="preserve">
<title>behance</title>
<g>
	<path d="M25.8,17.4c-0.2,0-0.5,0-0.8,0.1c0-4.7,2.3-7.6,7-10l-2.5-5C22,6.2,18.4,11.9,18.4,19.3c0,6.4,2.6,10.3,7.4,10.3
		c3.4,0,5.9-2.5,5.9-6.4C31.7,19.6,29,17.4,25.8,17.4z"/>
	<path d="M13.5,7.5l-2.5-5C3.6,6.2,0,11.9,0,19.3c0,6.4,2.5,10.3,7.3,10.3c3.4,0,6-2.5,6-6.4c0-3.5-2.7-5.7-6-5.7
		c-0.2,0-0.5,0-0.8,0.1C6.5,12.7,8.9,9.8,13.5,7.5z"/>
</g>
</svg>
