<?xml version="1.0" encoding="UTF-8"?>
<svg width="128px" height="80px" viewBox="0 0 128 80" version="1.1" xmlns="http://www.w3.org/2000/svg" xmlns:xlink="http://www.w3.org/1999/xlink">
    <!-- Generator: Sketch 49.3 (51167) - http://www.bohemiancoding.com/sketch -->
    <title>Group 2</title>
    <desc>Created with Sketch.</desc>
    <defs>
        <radialGradient cx="27.246059%" cy="44.5752649%" fx="27.246059%" fy="44.5752649%" r="65.9599224%" gradientTransform="translate(0.272461,0.445753),scale(0.252520,1.000000),translate(-0.272461,-0.445753)" id="radialGradient-1">
            <stop stop-color="#187C5E" offset="0%"></stop>
            <stop stop-color="#497B60" stop-opacity="0.45" offset="41.97%"></stop>
            <stop stop-color="#75C495" stop-opacity="0" offset="100%"></stop>
        </radialGradient>
        <radialGradient cx="64.8915999%" cy="49.6521191%" fx="64.8915999%" fy="49.6521191%" r="54.4099104%" gradientTransform="translate(0.648916,0.496521),scale(1.000000,0.470792),translate(-0.648916,-0.496521)" id="radialGradient-2">
            <stop stop-color="#187C5E" offset="0%"></stop>
            <stop stop-color="#497B60" stop-opacity="0.45" offset="41.97%"></stop>
            <stop stop-color="#75C495" stop-opacity="0" offset="100%"></stop>
        </radialGradient>
        <linearGradient x1="-0.36496489%" y1="50.2799697%" x2="99.0233071%" y2="50.2799697%" id="linearGradient-3">
            <stop stop-color="#187C5E" offset="0%"></stop>
            <stop stop-color="#497B60" stop-opacity="0.45" offset="41.97%"></stop>
            <stop stop-color="#75C495" stop-opacity="0" offset="100%"></stop>
        </linearGradient>
        <linearGradient x1="0.211111111%" y1="50.6354971%" x2="99.6631298%" y2="50.6354971%" id="linearGradient-4">
            <stop stop-color="#187C5E" offset="0%"></stop>
            <stop stop-color="#497B60" stop-opacity="0.45" offset="41.97%"></stop>
            <stop stop-color="#75C495" stop-opacity="0" offset="100%"></stop>
        </linearGradient>
        <linearGradient x1="5.79021739%" y1="17.6130924%" x2="61.6597102%" y2="58.6394384%" id="linearGradient-5">
            <stop stop-color="#187C5E" offset="0%"></stop>
            <stop stop-color="#497B60" stop-opacity="0.45" offset="41.97%"></stop>
            <stop stop-color="#75C495" stop-opacity="0" offset="100%"></stop>
        </linearGradient>
        <linearGradient x1="15.9384615%" y1="9.69520248%" x2="60.7686903%" y2="63.2559232%" id="linearGradient-6">
            <stop stop-color="#187C5E" offset="0%"></stop>
            <stop stop-color="#497B60" stop-opacity="0.45" offset="41.97%"></stop>
            <stop stop-color="#75C495" stop-opacity="0" offset="100%"></stop>
        </linearGradient>
        <radialGradient cx="80.8224456%" cy="47.6473175%" fx="80.8224456%" fy="47.6473175%" r="153.917364%" gradientTransform="translate(0.808224,0.476473),scale(1.000000,0.327341),translate(-0.808224,-0.476473)" id="radialGradient-7">
            <stop stop-color="#187C5E" offset="0%"></stop>
            <stop stop-color="#497B60" stop-opacity="0.45" offset="41.97%"></stop>
            <stop stop-color="#75C495" stop-opacity="0" offset="100%"></stop>
        </radialGradient>
        <radialGradient cx="80.1809047%" cy="45.7126003%" fx="80.1809047%" fy="45.7126003%" r="138.04658%" gradientTransform="translate(0.801809,0.457126),scale(1.000000,0.263520),translate(-0.801809,-0.457126)" id="radialGradient-8">
            <stop stop-color="#187C5E" offset="0%"></stop>
            <stop stop-color="#497B60" stop-opacity="0.45" offset="41.97%"></stop>
            <stop stop-color="#75C495" stop-opacity="0" offset="100%"></stop>
        </radialGradient>
        <linearGradient x1="82.1920994%" y1="51.8712919%" x2="-0.876917834%" y2="47.2913387%" id="linearGradient-9">
            <stop stop-color="#187C5E" offset="0%"></stop>
            <stop stop-color="#497B60" stop-opacity="0.45" offset="41.97%"></stop>
            <stop stop-color="#75C495" stop-opacity="0" offset="100%"></stop>
        </linearGradient>
    </defs>
    <g id="Page-1" stroke="none" stroke-width="1" fill="none" fill-rule="evenodd">
        <g id="home" transform="translate(-166.000000, -10.000000)" fill-rule="nonzero">
            <g id="Group-2" transform="translate(166.000000, 10.000000)">
                <path d="M2.00481928,75.2307692 C2.62168675,75.7692308 3.39277108,76.3076923 3.39277108,77.3846154 C3.39277108,78.6153846 2.77590361,79.3076923 1.69638554,79.3076923 C0.61686747,79.3076923 0,78.6153846 0,77.3846154 L0,76.8461538 L0.771084337,76.8461538 L0.771084337,77.3846154 C0.771084337,78.1538462 1.07951807,78.5384615 1.69638554,78.5384615 C2.31325301,78.5384615 2.62168675,78.1538462 2.62168675,77.3846154 C2.62168675,76.6153846 2.08192771,76.2307692 1.46506024,75.7692308 C0.771084337,75.3076923 0,74.6923077 0,73.6153846 C0,72.3846154 0.61686747,71.6923077 1.69638554,71.6923077 C2.77590361,71.6923077 3.39277108,72.3846154 3.39277108,73.6153846 L3.39277108,73.9230769 L2.62168675,73.9230769 L2.62168675,73.6153846 C2.62168675,72.8461538 2.31325301,72.4615385 1.69638554,72.4615385 C1.07951807,72.4615385 0.771084337,72.8461538 0.771084337,73.6153846 C0.771084337,74.3846154 1.38795181,74.8461538 2.00481928,75.2307692 Z M8.55903614,71.7692308 C9.71566265,71.7692308 10.3325301,72.4615385 10.3325301,73.6923077 L10.3325301,77.3076923 C10.3325301,78.5384615 9.63855422,79.2307692 8.55903614,79.2307692 C7.47951807,79.2307692 6.8626506,78.5384615 6.8626506,77.3076923 L6.8626506,73.6923077 C6.8626506,72.5384615 7.47951807,71.7692308 8.55903614,71.7692308 Z M8.55903614,78.6153846 C9.25301205,78.6153846 9.56144578,78.1538462 9.48433735,77.4615385 L9.48433735,73.7692308 C9.48433735,73 9.17590361,72.6153846 8.55903614,72.6153846 C7.94216867,72.6153846 7.63373494,73 7.63373494,73.7692308 L7.63373494,77.4615385 C7.63373494,78.2307692 7.94216867,78.6153846 8.55903614,78.6153846 Z M14.6506024,71.8461538 L14.6506024,78.5384615 L16.886747,78.5384615 L16.886747,79.2307692 L13.8795181,79.2307692 L13.8795181,71.8461538 L14.6506024,71.8461538 Z M22.9012048,77.3846154 L22.9012048,71.8461538 L23.6722892,71.8461538 L23.6722892,77.3846154 C23.6722892,78.6153846 23.0554217,79.3076923 21.9759036,79.3076923 C20.8963855,79.3076923 20.2795181,78.6153846 20.2795181,77.3846154 L20.2795181,71.8461538 L21.0506024,71.8461538 L21.0506024,77.3846154 C21.0506024,78.2307692 21.3590361,78.6153846 21.9759036,78.6153846 C22.5927711,78.6153846 22.9012048,78.1538462 22.9012048,77.3846154 Z M28.9156627,71.7692308 C29.9951807,71.7692308 30.6120482,72.4615385 30.6120482,73.6153846 L30.6120482,74.3846154 L29.8409639,74.3846154 L29.8409639,73.6153846 C29.8409639,72.8461538 29.5325301,72.4615385 28.9156627,72.4615385 C28.2987952,72.4615385 27.9903614,72.8461538 27.9903614,73.6153846 L27.9903614,77.3076923 C27.9903614,78.0769231 28.2987952,78.4615385 28.9156627,78.4615385 C29.5325301,78.4615385 29.8409639,78.0769231 29.8409639,77.3076923 L29.8409639,76.3076923 L30.6120482,76.3076923 L30.6120482,77.3076923 C30.6120482,78.5384615 29.9951807,79.2307692 28.9156627,79.2307692 C27.8361446,79.2307692 27.2192771,78.5384615 27.2192771,77.3076923 L27.2192771,73.6923077 C27.2192771,72.4615385 27.8361446,71.7692308 28.9156627,71.7692308 Z M34.1590361,71.8461538 L34.9301205,71.8461538 L34.9301205,79.3076923 L34.1590361,79.3076923 L34.1590361,71.8461538 Z M40.173494,71.7692308 C41.253012,71.7692308 41.8698795,72.4615385 41.946988,73.6923077 L41.946988,77.3076923 C41.946988,78.5384615 41.253012,79.2307692 40.173494,79.2307692 C39.0939759,79.2307692 38.4771084,78.5384615 38.4771084,77.3076923 L38.4771084,73.6923077 C38.4771084,72.5384615 39.0939759,71.7692308 40.173494,71.7692308 Z M40.173494,78.6153846 C40.7903614,78.6153846 41.0987952,78.1538462 41.0987952,77.4615385 L41.0987952,73.7692308 C41.0987952,73 40.7903614,72.6153846 40.173494,72.6153846 C39.5566265,72.6153846 39.2481928,73 39.2481928,73.7692308 L39.2481928,77.4615385 C39.2481928,78.2307692 39.5566265,78.6153846 40.173494,78.6153846 Z M48.1927711,77.0769231 L48.1927711,71.8461538 L48.886747,71.8461538 L48.886747,79.2307692 L48.1156627,79.2307692 L46.1879518,73.6153846 L46.1879518,79.2307692 L45.4168675,79.2307692 L45.4168675,71.8461538 L46.2650602,71.8461538 L48.1927711,77.0769231 Z M52.5108434,79.2307692 L52.5108434,71.8461538 L55.5951807,71.8461538 L55.5951807,72.5384615 L53.2819277,72.5384615 L53.2819277,75.1538462 L55.2096386,75.1538462 L55.2096386,75.8461538 L53.2819277,75.8461538 L53.2819277,78.5384615 L55.5951807,78.5384615 L55.5951807,79.2307692 L52.5108434,79.2307692 Z M61.0698795,75.2307692 C61.686747,75.7692308 62.4578313,76.3076923 62.5349398,77.3846154 C62.5349398,78.6153846 61.9180723,79.3076923 60.8385542,79.3076923 C59.7590361,79.3076923 59.1421687,78.6153846 59.1421687,77.3846154 L59.1421687,76.8461538 L59.913253,76.8461538 L59.913253,77.3846154 C59.913253,78.1538462 60.2216867,78.5384615 60.8385542,78.5384615 C61.4554217,78.5384615 61.7638554,78.1538462 61.7638554,77.3846154 C61.7638554,76.6153846 61.2240964,76.2307692 60.6072289,75.7692308 C59.913253,75.3076923 59.1421687,74.6923077 59.1421687,73.6153846 C59.1421687,72.3846154 59.7590361,71.6923077 60.8385542,71.6923077 C61.9180723,71.6923077 62.5349398,72.3846154 62.5349398,73.6153846 L62.5349398,73.9230769 L61.7638554,73.9230769 L61.7638554,73.6153846 C61.7638554,72.8461538 61.4554217,72.4615385 60.8385542,72.4615385 C60.2216867,72.4615385 59.913253,72.8461538 59.913253,73.6153846 C59.913253,74.3846154 60.453012,74.7692308 61.0698795,75.2307692 Z M72.2506024,71.7692308 C73.3301205,71.7692308 73.946988,72.4615385 73.946988,73.6153846 L73.946988,74.3846154 L73.1759036,74.3846154 L73.1759036,73.6153846 C73.1759036,72.8461538 72.8674699,72.4615385 72.2506024,72.4615385 C71.6337349,72.4615385 71.3253012,72.8461538 71.3253012,73.6153846 L71.3253012,77.3076923 C71.3253012,78.0769231 71.6337349,78.4615385 72.2506024,78.4615385 C72.8674699,78.4615385 73.1759036,78.0769231 73.1759036,77.3076923 L73.1759036,76.3076923 L73.946988,76.3076923 L73.946988,77.3076923 C73.946988,78.5384615 73.3301205,79.2307692 72.2506024,79.2307692 C71.1710843,79.2307692 70.5542169,78.5384615 70.5542169,77.3076923 L70.5542169,73.6923077 C70.5542169,72.4615385 71.1710843,71.7692308 72.2506024,71.7692308 Z M80.8096386,78.2307692 C80.8096386,78.5384615 80.8096386,78.8461538 80.9638554,79.1538462 L81.1180723,79.3846154 L80.2698795,79.3846154 L80.1927711,79.3076923 C80.0385542,79.0769231 80.0385542,78.7692308 80.0385542,78.3846154 L80.0385542,77.2307692 C80.0385542,76.4615385 79.7301205,76.1538462 78.8819277,76.1538462 L78.2650602,76.1538462 L78.2650602,79.3076923 L77.4939759,79.3076923 L77.4939759,71.8461538 L79.113253,71.8461538 C80.2698795,71.8461538 80.8096386,72.4615385 80.8096386,73.6153846 L80.8096386,74.2307692 C80.8096386,74.9230769 80.5783133,75.4615385 80.1156627,75.6923077 C80.5783133,75.9230769 80.8096386,76.4615385 80.8096386,77.1538462 L80.8096386,78.2307692 Z M78.2650602,72.5384615 L78.2650602,75.3076923 L78.8819277,75.3076923 C79.7301205,75.3076923 80.0385542,75.0769231 80.0385542,74.3076923 L80.0385542,73.6153846 C80.0385542,72.8461538 79.7301205,72.5384615 79.113253,72.5384615 L78.2650602,72.5384615 Z M84.5108434,79.2307692 L84.5108434,71.8461538 L87.5951807,71.8461538 L87.5951807,72.5384615 L85.2819277,72.5384615 L85.2819277,75.1538462 L87.2096386,75.1538462 L87.2096386,75.8461538 L85.2819277,75.8461538 L85.2819277,78.5384615 L87.5951807,78.5384615 L87.5951807,79.2307692 L84.5108434,79.2307692 Z M93.0698795,71.7692308 L93.6096386,71.7692308 L95.3060241,79.2307692 L94.5349398,79.2307692 L94.1493976,77.6153846 L92.1445783,77.6153846 L91.7590361,79.2307692 L90.9879518,79.2307692 L92.6072289,71.7692308 L93.0698795,71.7692308 Z M92.2216867,76.9230769 L93.9180723,76.9230769 L93.0698795,73.1538462 L92.2216867,76.9230769 Z M98.4674699,72.5384615 L98.4674699,71.8461538 L102.091566,71.8461538 L102.091566,72.5384615 L100.703614,72.5384615 L100.703614,79.2307692 L99.9325301,79.2307692 L99.9325301,72.5384615 L98.4674699,72.5384615 Z M105.484337,71.8461538 L106.255422,71.8461538 L106.255422,79.3076923 L105.484337,79.3076923 L105.484337,71.8461538 Z M111.807229,77.8461538 L113.118072,71.8461538 L113.889157,71.8461538 L112.26988,79.2307692 L111.807229,79.2307692 L111.807229,79.3076923 L111.807229,79.2307692 L111.344578,79.2307692 L109.725301,71.8461538 L110.496386,71.8461538 L111.807229,77.8461538 Z M119.055422,71.7692308 L119.595181,71.7692308 L121.291566,79.2307692 L120.520482,79.2307692 L120.13494,77.6153846 L118.13012,77.6153846 L117.744578,79.2307692 L116.973494,79.2307692 L118.592771,71.7692308 L119.055422,71.7692308 Z M118.207229,76.9230769 L119.903614,76.9230769 L119.055422,73.1538462 L118.207229,76.9230769 Z M126.53494,75.2307692 C127.151807,75.7692308 127.922892,76.3076923 128,77.3846154 C128,78.6153846 127.383133,79.3076923 126.303614,79.3076923 C125.224096,79.3076923 124.607229,78.6153846 124.607229,77.3846154 L124.607229,76.8461538 L125.378313,76.8461538 L125.378313,77.3846154 C125.378313,78.1538462 125.686747,78.5384615 126.303614,78.5384615 C126.920482,78.5384615 127.228916,78.1538462 127.228916,77.3846154 C127.228916,76.6153846 126.689157,76.2307692 126.072289,75.7692308 C125.378313,75.3076923 124.607229,74.6923077 124.607229,73.6153846 C124.607229,72.3846154 125.224096,71.6923077 126.303614,71.6923077 C127.383133,71.6923077 128,72.3846154 128,73.6153846 L128,73.9230769 L127.228916,73.9230769 L127.228916,73.6153846 C127.228916,72.8461538 126.920482,72.4615385 126.303614,72.4615385 C125.686747,72.4615385 125.378313,72.8461538 125.378313,73.6153846 C125.378313,74.3846154 125.918072,74.7692308 126.53494,75.2307692 Z" id="Combined-Shape" fill="#2FC594"></path>
                <g id="Group" transform="translate(3.084337, 0.000000)">
                    <path d="M61.9951807,9.92307692 C52.973494,8.38461538 43.8746988,9.46153846 35.0843373,10.4615385 C28.1445783,11.3076923 21.5903614,12.3076923 15.8843373,11.3846154 C8.17349398,10.1538462 3.93253012,6.84615385 1.69638554,4.07692308 C1.38795181,3.69230769 0.925301205,3.69230769 0.539759036,3.92307692 C0.154216867,4.23076923 0.154216867,4.69230769 0.385542169,5.07692308 C2.15903614,7.30769231 6.8626506,12.3076923 15.5759036,13.9230769 C19.9710843,14.6923077 26.2168675,15.4615385 36.3951807,14.1538462 C68.626506,10 76.7228916,16.7692308 85.6674699,25.7692308 C86.2072289,25.3846154 86.746988,25.0769231 87.3638554,24.8461538 C78.8819277,14.1538462 70.5542169,11.3076923 61.9951807,9.92307692 Z" id="Shape" fill="#2FC594"></path>
                    <path d="M61.9951807,9.92307692 C52.973494,8.38461538 43.8746988,9.46153846 35.0843373,10.4615385 C28.1445783,11.3076923 21.5903614,12.3076923 15.8843373,11.3846154 C8.17349398,10.1538462 3.93253012,6.84615385 1.69638554,4.07692308 C1.38795181,3.69230769 0.925301205,3.69230769 0.539759036,3.92307692 C0.154216867,4.23076923 0.154216867,4.69230769 0.385542169,5.07692308 C2.15903614,7.30769231 6.8626506,12.3076923 15.5759036,13.9230769 C19.9710843,14.6923077 26.2168675,15.4615385 36.3951807,14.1538462 C68.626506,10 76.7228916,16.7692308 85.6674699,25.7692308 C86.2072289,25.3846154 86.746988,25.0769231 87.3638554,24.8461538 C78.8819277,14.1538462 70.5542169,11.3076923 61.9951807,9.92307692 Z" id="Shape" fill="url(#radialGradient-1)"></path>
                    <path d="M33.1566265,22.4615385 C33.0024096,22.3846154 32.7710843,22.3076923 32.6168675,22.2307692 C32.6168675,22.2307692 32.6168675,22.2307692 32.6168675,22.2307692 C32.3855422,22.1538462 32.1542169,22.1538462 31.8457831,22.0769231 C30.4578313,21.9230769 29.2240964,22.6923077 28.5301205,24 L29.8409639,24.7692308 C30.1493976,24.0769231 30.6891566,23.6923077 31.2289157,23.6923077 C34.0819277,24 32.3084337,28 31.6144578,29.6923077 C28.7614458,36.4615385 18.0433735,61.0769231 9.86987952,57.0769231 C7.86506024,56.0769231 6.8626506,53.3846154 7.94216867,50.2307692 C9.56144578,45.6923077 28.2987952,7 30.1493976,3.07692308 C30.226506,3 30.3036145,2.84615385 30.3036145,2.69230769 C30.3036145,2.69230769 30.3036145,2.69230769 30.3036145,2.69230769 C30.3807229,2.46153846 30.3807229,2.30769231 30.4578313,2.07692308 C30.5349398,1 29.6096386,0.0769230769 28.5301205,0 C27.6819277,0 26.9879518,0.461538462 26.6024096,1.15384615 C26.6024096,1.15384615 26.6024096,1.15384615 26.6024096,1.23076923 C26.6024096,1.23076923 9.79277108,37.1538462 5.01204819,47.0769231 C2.00481928,53.4615385 5.16626506,56.9230769 8.63614458,58.7692308 C20.0481928,64.9230769 30.9204819,40.1538462 34.313253,32.5384615 C35.7783133,29.1538462 37.6289157,24.5384615 33.1566265,22.4615385 Z" id="Shape" fill="#2FC594"></path>
                    <path d="M34.2361446,32.6153846 C35.7783133,29.1538462 37.6289157,24.5384615 33.1566265,22.4615385 C33.0024096,22.3846154 32.7710843,22.3076923 32.6168675,22.2307692 C32.6168675,22.2307692 32.6168675,22.2307692 32.6168675,22.2307692 C32.3855422,22.1538462 32.1542169,22.1538462 31.8457831,22.0769231 C30.4578313,21.9230769 29.2240964,22.6923077 28.5301205,24 L29.8409639,24.7692308 C30.1493976,24.0769231 30.6891566,23.6923077 31.2289157,23.6923077 C34.0819277,24 32.3084337,28 31.6144578,29.6923077 C30.7662651,31.6923077 29.2240964,35.2307692 27.2963855,39.1538462 L30.5349398,40.4615385 C32.0771084,37.3076923 33.3879518,34.4615385 34.2361446,32.6153846 Z" id="Shape" fill="url(#radialGradient-2)"></path>
                    <path d="M67.546988,49.6923077 C66.9301205,50.6153846 65.6963855,52.5384615 63.7686747,54.3076923 C60.2987952,57.6153846 56.5204819,59 52.5108434,58.5384615 C47.8072289,58 44.1060241,54.3846154 42.6409639,48.9230769 C41.4072289,44.5384615 41.5614458,39.1538462 43.1036145,34.6923077 C43.3349398,34.0769231 43.5662651,33.1538462 43.026506,32.4615385 C42.4096386,31.6153846 41.1759036,31.5384615 39.4795181,31.5384615 C38.7855422,31.5384615 37.3975904,31.4615385 36.7036145,31.3846154 C35.2385542,31.1538462 32.0771084,30.2307692 30.9975904,29.3846154 C28.2987952,27.3076923 29.686747,23.6153846 31.1518072,23.7692308 C32.0771084,23.8461538 34.6987952,23.0769231 33.0795181,22.4615385 C32.9253012,22.3846154 32.6939759,22.3076923 32.539759,22.2307692 C32.539759,22.2307692 32.539759,22.2307692 32.539759,22.2307692 C32.3084337,22.1538462 32.0771084,22.1538462 31.7686747,22.0769231 C29.8409639,21.8461538 28.1445783,23.5384615 27.913253,25.8461538 C27.7590361,27.4615385 28.3759036,29 29.6096386,30.3076923 C30.226506,31 32.6939759,32.5384615 36.3180723,33 C37.4746988,33.1538462 38.5542169,33.1538462 39.4795181,33.2307692 C40.3277108,33.2307692 41.6385542,33.2307692 41.7156627,33.4615385 C41.7156627,33.6153846 41.7927711,33.6923077 41.5614458,34.2307692 C39.9421687,39 39.7108434,44.6923077 41.0216867,49.4615385 C41.8698795,52.4615385 43.3349398,55 45.2626506,56.8461538 C47.2674699,58.7692308 49.6578313,59.9230769 52.2795181,60.2307692 C52.8192771,60.3076923 53.3590361,60.3076923 53.8987952,60.3076923 C57.7542169,60.3076923 61.5325301,58.6923077 64.8481928,55.5384615 C65.8506024,54.6153846 66.6987952,53.6153846 67.3156627,52.7692308 C67.2385542,51.6923077 67.2385542,50.6923077 67.546988,49.6923077 Z" id="Shape" fill="#2FC594"></path>
                    <path d="M60.9156627,29.5384615 C62.0722892,31.0769231 61.4554217,34.0769231 58.5253012,34.9230769 C57.5228916,35.2307692 55.7493976,35.4615385 53.5903614,33.6923077 C53.7445783,33.3846154 52.5108434,32.9230769 51.2771084,32.8461538 C50.1975904,32.7692308 50.8915663,33.6153846 50.5831325,34.1538462 C50.5831325,34.1538462 52.8192771,35.3076923 52.8963855,35.2307692 C59.6819277,39.5384615 62.8433735,33.3846154 62.9975904,32.0769231 C63.1518072,30.5384615 62.6891566,29.3846154 61.9951807,28.5384615 L60.9156627,29.5384615 Z" id="Shape" fill="#2FC594"></path>
                    <path d="M60.9156627,29.5384615 C62.0722892,31.0769231 61.4554217,34.0769231 58.5253012,34.9230769 C57.5228916,35.2307692 55.7493976,35.4615385 53.5903614,33.6923077 C53.7445783,33.3846154 52.5108434,32.9230769 51.2771084,32.8461538 C50.1975904,32.7692308 50.8915663,33.6153846 50.5831325,34.1538462 C50.5831325,34.1538462 52.8192771,35.3076923 52.8963855,35.2307692 C59.6819277,39.5384615 62.8433735,33.3846154 62.9975904,32.0769231 C63.1518072,30.5384615 62.6891566,29.3846154 61.9951807,28.5384615 L60.9156627,29.5384615 Z" id="Shape" fill="url(#linearGradient-3)"></path>
                    <path d="M73.0216867,30.5384615 C71.5566265,28.3076923 70.7855422,29.3076923 70.5542169,30.4615385 C70.5542169,30.4615385 71.1710843,30.9230769 72.4048193,32.6923077 C75.026506,36.4615385 79.1903614,45.6923077 78.0337349,50.4615385 C77.5710843,52.3846154 76.1831325,53.4615385 75.1036145,53.5384615 C74.3325301,53.6153846 73.5614458,53.1538462 73.0987952,52.3846154 C72.8674699,51.9230769 72.5590361,51.0769231 73.253012,50 C73.3301205,49.9230769 73.3301205,49.8461538 73.4072289,49.7692308 L72.4048193,48.6923077 C70.939759,50.0769231 71.0168675,51.8461538 71.6337349,53.0769231 C73.253012,56.3076923 79.8843373,56.3846154 79.8072289,48 C79.8843373,42.3846154 75.5662651,34.3076923 73.0216867,30.5384615 Z" id="Shape" fill="#2FC594"></path>
                    <path d="M90.9108434,30.5384615 C89.4457831,28.3076923 88.6746988,29.3076923 88.4433735,30.4615385 C88.4433735,30.4615385 89.060241,30.9230769 90.2939759,32.6923077 C92.9156627,36.4615385 97.0795181,45.6923077 95.9228916,50.4615385 C95.460241,52.3846154 94.0722892,53.4615385 92.9927711,53.5384615 C92.2216867,53.6153846 91.4506024,53.1538462 90.9879518,52.3846154 C90.7566265,51.9230769 90.4481928,51.0769231 91.1421687,50 C91.2192771,49.9230769 91.2192771,49.8461538 91.2963855,49.7692308 L90.2939759,48.6923077 C88.8289157,50.0769231 88.9060241,51.8461538 89.5228916,53.0769231 C91.1421687,56.3076923 97.773494,56.3846154 97.6963855,48 C97.6963855,42.3846154 93.4554217,34.3076923 90.9108434,30.5384615 Z" id="Shape" fill="#2FC594"></path>
                    <path d="M116.819277,32.7692308 C116.356627,33.6923077 115.508434,34.5384615 114.19759,35 C113.195181,35.3076923 111.498795,35.4615385 109.262651,33.7692308 C107.720482,32.6153846 106.872289,31.8461538 106.872289,31.8461538 C105.792771,32.9230769 106.718072,31.5384615 105.792771,33.4615385 C105.792771,33.4615385 107.180723,34.3846154 108.568675,35.2307692 C114.19759,38.6153846 117.281928,35.3076923 118.284337,33.1538462 L116.819277,32.7692308 Z" id="Shape" fill="#2FC594"></path>
                    <path d="M116.819277,32.7692308 C116.356627,33.6923077 115.508434,34.5384615 114.19759,35 C113.195181,35.3076923 111.498795,35.4615385 109.262651,33.7692308 C107.720482,32.6153846 106.872289,31.8461538 106.872289,31.8461538 C105.792771,32.9230769 106.718072,31.5384615 105.792771,33.4615385 C105.792771,33.4615385 107.180723,34.3846154 108.568675,35.2307692 C114.19759,38.6153846 117.281928,35.3076923 118.284337,33.1538462 L116.819277,32.7692308 Z" id="Shape" fill="url(#linearGradient-4)"></path>
                    <path d="M73.0216867,30.5384615 C71.5566265,28.3076923 70.7855422,29.3076923 70.5542169,30.4615385 C70.5542169,30.4615385 71.1710843,30.9230769 72.4048193,32.6923077 C73.5614458,34.3076923 75.026506,37 76.1831325,39.9230769 L77.6481928,39.0769231 C76.1831325,35.6153846 74.3325301,32.4615385 73.0216867,30.5384615 Z" id="Shape" fill="url(#linearGradient-5)"></path>
                    <path d="M73.3301205,29.4615385 C73.3301205,29.4615385 73.3301205,29.4615385 73.3301205,29.4615385 C73.3301205,28.4615385 72.713253,27.5384615 71.6337349,27.3076923 C70.4771084,27.0769231 69.4746988,27.8461538 69.1662651,28.9230769 C65.0024096,45.0769231 59.1421687,54.6923077 53.513253,52.8461538 C45.1084337,50.2307692 51.8168675,37.0769231 52.8192771,35.2307692 C53.9759036,33.1538462 56.8289157,27.7692308 59.7590361,28.6923077 C61.6096386,29.3076923 61.9951807,32 60.3759036,33.6923077 L61.4554217,34.6923077 C62.3807229,33.6153846 62.8433735,32.4615385 62.9204819,32 C63.3060241,28.3076923 60.1445783,26.7692308 57.9084337,26.6923077 C53.513253,26.6923077 48.2698795,30.9230769 46.1879518,40.1538462 C43.2578313,53.0769231 52.3566265,54.6153846 55.0554217,54.6153846 C64.1542169,54.6153846 70.1686747,39.3846154 72.4048193,32.6153846 C72.6361446,31.6153846 73.3301205,29.9230769 73.3301205,29.4615385 Z" id="Shape" fill="#2FC594"></path>
                    <path d="M90.9108434,30.5384615 C89.4457831,28.3076923 88.6746988,29.3076923 88.4433735,30.4615385 C88.4433735,30.4615385 89.060241,30.9230769 90.2939759,32.6923077 C91.373494,34.2307692 92.7614458,36.7692308 93.9180723,39.5384615 L95.460241,38.8461538 C93.9180723,35.4615385 92.2216867,32.4615385 90.9108434,30.5384615 Z" id="Shape" fill="url(#linearGradient-6)"></path>
                    <path d="M76.4144578,40.4615385 C77.8024096,44 78.6506024,47.8461538 78.0337349,50.3846154 C77.5710843,52.3076923 76.1831325,53.3846154 75.1036145,53.4615385 C75.026506,53.4615385 74.8722892,53.4615385 74.7951807,53.4615385 L74.8722892,55.0769231 C77.2626506,55.2307692 79.8843373,53.3076923 79.8843373,47.9230769 C79.8843373,45.3846154 79.0361446,42.3846154 77.8024096,39.5384615 L76.4144578,40.4615385 Z" id="Shape" fill="url(#radialGradient-7)"></path>
                    <path d="M91.373494,29.4615385 C91.4506024,28.3076923 90.5253012,27.3846154 89.3686747,27.3076923 C88.2120482,27.2307692 87.4409639,28.1538462 87.2096386,29.3076923 C85.8987952,35.3846154 83.4313253,45 76.1831325,47 C72.713253,47.9230769 71.7108434,49.0769231 71.3253012,50.6153846 L72.8674699,51.0769231 C73.0987952,50.1538462 73.8698795,49.3076923 75.5662651,48.9230769 C84.4337349,46.7692308 86.9012048,41.4615385 90.2939759,32.6923077 C90.8337349,31.2307692 91.373494,29.6923077 91.373494,29.4615385 Z" id="Shape" fill="#2FC594"></path>
                    <path d="M97.773494,48 C97.773494,45.6153846 97.0024096,42.6923077 95.8457831,39.9230769 L94.3807229,40.8461538 C95.6915663,44.3076923 96.4626506,47.9230769 95.9228916,50.3846154 C95.6144578,51.7692308 94.6891566,52.7692308 93.8409639,53.2307692 L94.5349398,54.8461538 C96.3084337,54.0769231 97.773494,52 97.773494,48 Z" id="Shape" fill="url(#radialGradient-8)"></path>
                    <path d="M102.939759,36.9230769 C101.243373,41.4615385 98.6216867,45.6923077 94.0722892,47 C90.6024096,47.9230769 89.6,49.0769231 89.2144578,50.6153846 L90.7566265,51.0769231 C90.9879518,50.1538462 91.7590361,49.3076923 93.4554217,48.9230769 C97.8506024,47.8461538 100.703614,46 102.862651,43.3076923 C105.021687,40.5384615 103.942169,34.3076923 102.939759,36.9230769 Z" id="Shape" fill="#2FC594"></path>
                    <path d="M102.939759,36.9230769 C101.860241,39.9230769 100.318072,42.7692308 98.0819277,44.7692308 L98.3903614,47.0769231 C100.240964,46.0769231 101.628916,44.8461538 102.862651,43.3076923 C105.021687,40.5384615 103.942169,34.3076923 102.939759,36.9230769 Z" id="Shape" fill="url(#linearGradient-9)"></path>
                    <path d="M122.293976,42.6923077 C121.908434,42.4615385 121.368675,42.6153846 121.214458,43 C118.66988,47.7692308 115.122892,54.3846154 109.108434,52.7692308 C102.245783,50.9230769 106.563855,39.4615385 108.260241,35.1538462 C109.648193,31.6923077 112.578313,27.6923077 115.508434,28.6923077 C117.281928,29.3076923 117.66747,31.8461538 116.279518,33.5384615 L117.66747,34.2307692 C118.284337,33.3076923 118.592771,32.8461538 118.66988,32 C119.13253,28.3846154 115.893976,26.7692308 113.657831,26.6923077 C109.262651,26.6923077 104.559036,29.4615385 101.937349,40.1538462 C101.628916,41.6923077 101.474699,43.5384615 101.39759,45.2307692 C101.628916,52.6153846 107.180723,54.2307692 109.956627,54.5384615 C115.354217,55.0769231 118.824096,50.9230769 122.679518,43.7692308 C122.833735,43.4615385 122.679518,42.9230769 122.293976,42.6923077 Z" id="Shape" fill="#2FC594"></path>
                </g>
            </g>
        </g>
    </g>
</svg>