<?xml version="1.0" encoding="utf-8"?>
<!-- Generator: Adobe Illustrator 25.2.0, SVG Export Plug-In . SVG Version: 6.00 Build 0)  -->
<svg version="1.1" id="Layer_1" xmlns="http://www.w3.org/2000/svg" xmlns:xlink="http://www.w3.org/1999/xlink" x="0px" y="0px"
	 viewBox="0 0 32 32" style="enable-background:new 0 0 32 32;" xml:space="preserve">
<path d="M30.7,9.8C29,6,25.9,3,22.1,1.3C20.2,0.4,18.1,0,16,0h0c-2.1,0-4.2,0.4-6.1,1.3C6,3,3,6.1,1.3,9.9c-0.8,1.9-1.3,4-1.3,6.2
	c0,2.1,0.4,4.2,1.3,6.1C3,26,6.1,29,9.9,30.7c1.9,0.8,4,1.3,6.1,1.3h0c2.1,0,4.2-0.4,6.1-1.3c3.8-1.7,6.9-4.8,8.6-8.6
	c0.8-1.9,1.3-4,1.3-6.2C32,13.8,31.5,11.8,30.7,9.8z M18.1,3.4c2.2,0.3,4.3,1.2,6,2.6c1.7,1.3,3,3.1,3.7,5.1l-1,0.3
	c-1.2,0.3-2.4,0.6-3.6,1c0,0-0.1,0-0.1,0c-0.2,0-0.4-0.1-0.5-0.2c-1.3-1-2.7-2-4.3-3.1c-0.2-0.1-0.3-0.3-0.3-0.5c0-1.4,0-2.8,0-4.1
	C18.1,4.1,18.1,3.8,18.1,3.4z M15.9,11.2l1,0.7c1.1,0.8,2.3,1.7,3.5,2.5c0.1,0.1,0.2,0.3,0.2,0.5c-0.5,1.7-1,3.3-1.6,4.9
	c-0.1,0.2-0.3,0.3-0.5,0.4c-0.8,0-1.7,0-2.6,0c-0.8,0-1.7,0-2.6,0c-0.2,0-0.4-0.2-0.5-0.4c-0.5-1.6-1.1-3.2-1.6-4.9
	c0-0.2,0-0.4,0.2-0.6c1.2-0.9,2.3-1.7,3.5-2.6l0,0L15.9,11.2L15.9,11.2z M8.7,5.4c1.8-1.3,4-2,6.3-2.1c0,0.3,0,0.6,0,0.9v0
	c0,1.1,0,2.3,0,3.5c0,0.1-0.2,0.3-0.3,0.4c-1.6,1.2-3.5,2.5-5.3,3.9c-0.2,0.1-0.4,0.2-0.6,0.2c0,0-0.1,0-0.1,0
	c-1.1-0.3-2.1-0.7-3.2-1.1l-0.1,0l-1-0.3C5.2,8.6,6.7,6.7,8.7,5.4z M9.9,22.2c-0.6,0.9-1.1,1.8-1.7,2.7l-0.6,0.9
	c-3.4-3-5-7.5-4.3-12l1,0.3c1.2,0.4,2.3,0.8,3.4,1.1c0.2,0.1,0.3,0.3,0.4,0.5c0.6,1.9,1.3,3.9,1.9,5.7C10.1,21.8,10,22,9.9,22.2z
	 M16,28.8c-1.9,0-3.9-0.4-5.6-1.2l0.5-0.9c0.6-1,1.3-2,1.9-3c0.1-0.1,0.3-0.2,0.5-0.2c1,0,1.8,0,2.7,0c1,0,1.9,0,2.8,0
	c0.2,0,0.4,0.1,0.5,0.3c0.6,1,1.2,2,1.8,3l0.5,0.8C19.8,28.4,17.9,28.8,16,28.8z M28.2,20.1c-0.7,2.3-2.1,4.3-3.9,5.8l-0.5-0.8l0,0
	c-0.7-1.1-1.3-2.2-1.9-3.3c-0.1-0.2-0.1-0.4,0-0.6c0.5-1.6,1.1-3.4,1.7-5.1c0.1-0.2,0.3-0.4,0.5-0.5c1.1-0.3,2.3-0.6,3.4-0.9h0
	l1.1-0.3C29,16.2,28.8,18.2,28.2,20.1z"/>
</svg>
