<?xml version="1.0" encoding="utf-8"?>
<!-- Generator: Adobe Illustrator 25.2.0, SVG Export Plug-In . SVG Version: 6.00 Build 0)  -->
<svg version="1.1" id="Layer_1" xmlns="http://www.w3.org/2000/svg" xmlns:xlink="http://www.w3.org/1999/xlink" x="0px" y="0px"
	 viewBox="0 0 100 100" style="enable-background:new 0 0 100 100;" xml:space="preserve">
<g>
	<path d="M96.1,49.2c-0.4-1.1-0.3-1.8,0.3-2.7c2.8-4.4,2.2-10.2-1.3-13.6C91,29,85,28.5,80.5,31.5c-0.5,0.3-1.4,0.5-1.9,0.3
		c-12.8-4.6-24.5-2.3-34.3,7C30.5,52.1,17.2,65.8,3.8,79.3c-3,3-2.9,7,0.1,10c2.6,2.7,5.3,5.3,7.9,8c3.7,3.7,7.5,3.7,11.1,0.1
		c5.4-5.4,10.8-10.8,16.1-16.1c0.5-0.5,1-1,1.5-1.5c2.2,2,4.1,3.9,6.3,5.6c13.4,10.6,32.6,9,43.1-3C98.4,72.6,100.8,61.4,96.1,49.2z
		 M90.5,36.6c1.6,1.4,2.1,3.2,1.5,5.5c-2.2-2.2-4.3-4.3-6.6-6.6C87.4,34.7,89,35.3,90.5,36.6z M17.9,93.6c-0.3,0.3-1.5,0.2-1.9-0.1
		c-2.9-2.8-5.7-5.7-8.6-8.5c-0.7-0.7-0.8-1.5,0-2.3c2.2-2.2,4.4-4.4,6.7-6.7c3.7,3.7,7.1,7.1,10.8,10.8
		C22.4,89.1,20.2,91.4,17.9,93.6z M88.1,74.8c-8.8,13-25.9,15.6-38.2,5.7c-2.6-2.1-4.9-4.5-7.3-6.9c-1.8-1.8-3-1.8-4.8,0.1
		c-3,3-5.9,5.9-9,9c-3.6-3.6-7-7-10.5-10.5c0.4-0.4,0.7-0.9,1.1-1.3c9.4-9.4,18.8-18.9,28.3-28.2c9.2-9.2,23.2-10.5,33.7-3.3
		C92.6,47,95.7,63.6,88.1,74.8z"/>
	<path d="M47,22c0.8,1.8,2.2,2.3,3.8,1.6c1.6-0.7,2-2.1,1.3-3.9c-0.9-2-1.8-4-2.7-6s-1.8-4-2.7-6c-0.8-1.7-2.1-2.2-3.6-1.6
		c-1.6,0.7-2.2,2.1-1.4,3.8C43.3,14.1,45.1,18,47,22z"/>
	<path d="M68.3,17.3c0.7,1.2,1.6,2,3,1.7c1.5-0.3,2.3-1.2,2.3-2.8c-0.1-4.5-0.3-9.1-0.5-13.6c0-0.6-0.2-1.5-0.6-1.7
		c-0.9-0.5-2.1-1-3.1-0.8c-1.4,0.3-1.7,1.7-1.7,3.1c0.1,4.3,0.3,8.6,0.5,12.9C68.2,16.5,68.3,16.9,68.3,17.3z"/>
	<path d="M30.3,35.7c1.2,1.1,2.8,1.1,3.9,0c1-1,1-2.8-0.1-3.9c-3.4-3.2-6.7-6.4-10.2-9.5c-0.6-0.5-1.7-0.5-2.2-0.6
		c-2.4,1-2.7,3.3-1,4.9C23.8,29.7,27.1,32.7,30.3,35.7z"/>
	<path d="M53,47.3c-7.4,7.5-7.4,19.6,0,27c7.5,7.4,19.6,7.3,27-0.2c7.4-7.4,7.4-19.5,0-26.9C72.6,39.8,60.5,39.8,53,47.3z
		 M76.1,70.3c-5.3,5.3-13.9,5.4-19.1,0.2c-5.3-5.3-5.4-13.9,0-19.3c5.3-5.3,13.8-5.3,19.1,0C81.4,56.3,81.4,65,76.1,70.3z"/>
</g>
</svg>
