<?xml version="1.0" encoding="utf-8"?>
<!-- Generator: Adobe Illustrator 23.0.1, SVG Export Plug-In . SVG Version: 6.00 Build 0)  -->
<svg version="1.1" id="Capa_1" xmlns="http://www.w3.org/2000/svg" xmlns:xlink="http://www.w3.org/1999/xlink" x="0px" y="0px"
	 viewBox="0 0 32 32" style="enable-background:new 0 0 32 32;" xml:space="preserve">
<title>star-full</title>
<g>
	<path d="M28.3,3.3c0-1.5-1.1-2.8-2.5-3.2c-0.1,0-0.1-0.1-0.2-0.1H6.5C5.7,0.2,5,0.5,4.5,1.1C4,1.7,3.7,2.4,3.7,3.3
		c0,8.5,0,17,0,25.5c0,1.5,1.1,2.8,2.6,3.2c0.1,0,0.2,0,0.3,0.1h19c0.8-0.2,1.4-0.5,2-1.1c0.6-0.6,0.8-1.3,0.8-2.2
		C28.3,20.2,28.3,11.7,28.3,3.3z M4.8,3.3c0-1.4,0.8-2.2,2.2-2.2c6,0,12,0,18.1,0c1.3,0,2.2,0.9,2.2,2.2c0,3.1,0,6.2,0,9.3v0.3H4.8
		c0-0.1,0-0.2,0-0.3C4.8,9.4,4.8,6.4,4.8,3.3z M27.2,13.9v7.4H16.5v-7.4H27.2z M15.4,13.9v7.4H4.8v-7.4H15.4z M15.4,30.9h-0.3
		c-2.7,0-5.4,0-8.1,0c-1.4,0-2.2-0.9-2.2-2.2c0-2,0-4,0-6v-0.4h10.7V30.9z M27.2,23.9c0,1.6,0,3.2,0,4.8c0,1.4-0.8,2.2-2.2,2.2
		c-2.7,0-5.4,0-8.1,0h-0.4v-8.5h10.7V23.9z"/>
	<path d="M19.9,25.6c0.7,0,1.3,0,2,0c0.7,0,1.3,0,2,0c0.4,0,0.7-0.2,0.7-0.5c0-0.3-0.2-0.5-0.7-0.5c-1.3,0-2.7,0-4,0
		c-0.4,0-0.7,0.2-0.7,0.5C19.2,25.4,19.5,25.6,19.9,25.6z"/>
	<path d="M23.9,26.6c-1.4,0-2.7,0-4.1,0c-0.4,0-0.6,0.2-0.6,0.5c0,0.3,0.2,0.5,0.6,0.5c0.7,0,1.4,0,2,0c0.7,0,1.4,0,2,0
		c0.4,0,0.6-0.2,0.6-0.5C24.6,26.8,24.3,26.6,23.9,26.6z"/>
	<path d="M19.9,18.1c0.7,0,1.3,0,2,0c0.7,0,1.4,0,2,0c0.4,0,0.6-0.2,0.6-0.5c0-0.3-0.2-0.5-0.6-0.5c-1.4,0-2.7,0-4.1,0
		c-0.4,0-0.7,0.2-0.7,0.5C19.2,17.9,19.5,18.1,19.9,18.1z"/>
	<path d="M8.7,10.7c2.4,0,4.9,0,7.3,0c2.4,0,4.9,0,7.3,0c1,0,1.8-0.7,1.8-1.8c0-1.3,0-2.7,0-4c0-1-0.7-1.7-1.7-1.7
		c-4.9,0-9.9,0-14.8,0c-1,0-1.7,0.7-1.7,1.7c0,1.3,0,2.7,0,4C6.9,10,7.6,10.7,8.7,10.7z M8,4.9c0-0.5,0.1-0.7,0.7-0.7
		c2.5,0,4.9,0,7.4,0c2.4,0,4.9,0,7.3,0C23.9,4.3,24,4.4,24,5c0,1.3,0,2.6,0,4c0,0.5-0.1,0.7-0.6,0.7c-4.9,0-9.9,0-14.8,0
		C8.1,9.6,8,9.5,8,9C8,7.6,8,6.3,8,4.9z"/>
	<path d="M7.6,28.7c0.3,0.1,0.5,0.1,0.7-0.1c0.4-0.4,0.8-0.8,1.2-1.2c0.1,0.1,0.2,0.2,0.3,0.3c0.3,0.3,0.6,0.6,1,1
		c0.2,0.2,0.5,0.2,0.7,0c0.2-0.2,0.3-0.5,0.1-0.7c-0.1-0.1-0.2-0.2-0.2-0.3c-0.3-0.3-0.7-0.7-1.1-1c0.4-0.4,0.8-0.8,1.1-1.1
		c0.3-0.3,0.3-0.6,0.1-0.9c-0.2-0.2-0.5-0.2-0.8,0.1c-0.4,0.4-0.7,0.7-1.1,1.1c-0.1-0.1-0.2-0.2-0.3-0.3c-0.3-0.3-0.6-0.7-1-1
		c-0.2-0.2-0.5-0.2-0.7,0c-0.2,0.2-0.3,0.5-0.1,0.7c0.1,0.1,0.2,0.2,0.3,0.3c0.3,0.3,0.7,0.7,1,1c-0.4,0.4-0.8,0.8-1.2,1.2
		C7.2,28.2,7.3,28.6,7.6,28.7z"/>
	<path d="M7.6,18.1c0.5,0,1,0,1.5,0c0,0.5,0,1,0,1.5c0,0.4,0.2,0.7,0.5,0.7c0.3,0,0.5-0.2,0.5-0.7c0-0.5,0-1,0-1.5c0.5,0,1,0,1.5,0
		c0.4,0,0.6-0.2,0.6-0.5c0-0.3-0.2-0.5-0.6-0.5c-0.5,0-1,0-1.5,0c0-0.5,0-1,0-1.5c0-0.4-0.2-0.7-0.5-0.7c-0.3,0-0.5,0.2-0.5,0.7
		c0,0.5,0,1,0,1.5c-0.5,0-1,0-1.5,0c-0.4,0-0.7,0.2-0.7,0.5C6.9,17.9,7.2,18.1,7.6,18.1z"/>
</g>
</svg>
