<?xml version="1.0" encoding="utf-8"?>
<!-- Generator: Adobe Illustrator 25.2.0, SVG Export Plug-In . SVG Version: 6.00 Build 0)  -->
<svg version="1.1" id="Layer_1" xmlns="http://www.w3.org/2000/svg" xmlns:xlink="http://www.w3.org/1999/xlink" x="0px" y="0px"
	 viewBox="0 0 100 100" style="enable-background:new 0 0 100 100;" xml:space="preserve">
<path d="M96.9,96.9C97.2,96.9,97.2,96.9,96.9,96.9c1.6,0,3.1-1.2,3.1-2.8s-1.2-2.8-2.8-2.8c-0.9,0-3.8,0-4.4,0c0-1.9,0-85.3,0-85.3
	c0-1.6-1.2-2.8-2.8-2.8c-2.2,0-18.8,0-19.4,0c-1.6,0-2.8,1.2-2.8,2.8c0,0.9,0,85.3,0,85.3h-5.3c0,0,0-63.8,0-64.4l0,0
	c0-1.6-1.2-2.8-2.8-2.8c-2.2,0-4.4,0-6.6,0c-3.4,0-6.9,0-10.6,0c-0.9,0-1.6,0-2.5,0c-1.3-0.3-2.5,0.9-2.5,2.5c0,0.6,0,64.7,0,64.7
	h-5.3V45.6c0-1.6-1.2-2.8-2.8-2.8c-2.2,0-18.8,0-19.4,0c-1.6,0-2.8,1.2-2.8,2.8s0,3.1,0,4.7c0,3.8,0,40.9,0,40.9s-4.1,0-4.4,0
	c-1.6,0-2.8,1.2-2.8,2.8c0,1.6,1.2,2.8,2.8,2.8H96.9z M22.8,91.2c-2.8,0-5.6,0-8.4,0c-0.6,0-1.2,0-1.6,0c0-0.6,0-1.2,0-1.9
	c0-3.8,0-7.8,0-11.6c0-4.7,0-9.4,0-14.1c0-4.1,0-8.1,0-12.2c0-0.9,0-2.2,0-3.1c1.3,0,2.5,0,3.7,0c3.4,0,6.6,0,10,0
	c0,0.6,0,1.2,0,1.9c0,3.8,0,7.8,0,11.6c0,4.7,0,9.4,0,14.1c0,4.1,0,8.1,0,12.2c0,0.9,0,2.2,0,3.1c-0.3,0-0.9,0-1.2,0
	C24.4,91.2,23.7,91.2,22.8,91.2z M51.6,91.2c-2.8,0-5.6,0-8.8,0c0-1.2,0-2.5,0-3.8c0-2.5,0-4.7,0-7.2c0-2.8,0-5.9,0-8.8
	c0-3.1,0-6.6,0-9.7s0-6.6,0-9.7s0-5.9,0-9.1c0-2.5,0-5.3,0-7.8c0-1.9,0-3.7,0-5.3c1.2,0,2.5,0,3.7,0c3.4,0,6.6,0,10,0
	c0,1.2,0,2.5,0,3.7c0,2.5,0,4.7,0,7.2c0,2.8,0,5.9,0,8.8c0,3.1,0,6.6,0,9.7s0,6.6,0,9.7s0,5.9,0,9.1c0,2.5,0,5.3,0,7.8
	c0,1.9,0,3.8,0,5.3c-1.2,0-2.5,0-3.8,0C52.8,91.2,52.2,91.2,51.6,91.2z M83.4,91.2c-1.9,0-3.8,0-5.9,0c-1.2,0-2.8,0-4.1,0
	c0-1.9,0-4.1,0-5.9c0-3.1,0-6.2,0-9.4c0-3.8,0-7.8,0-11.6c0-4.4,0-8.4,0-12.8s0-8.4,0-12.8c0-4.1,0-8.1,0-11.9c0-3.4,0-6.6,0-10
	c0-2.5,0-5,0-7.2c0-0.3,0-0.6,0-0.6c1.2,0,2.5,0,3.8,0c3.4,0,6.6,0,10,0c0,1.9,0,4.1,0,5.9c0,3.1,0,6.2,0,9.4c0,3.8,0,7.8,0,11.6
	c0,4.4,0,8.4,0,12.8c0,4.4,0,8.4,0,12.8c0,4.1,0,8.1,0,11.9c0,3.4,0,6.6,0,10c0,2.5,0,5,0,7.2c0,0.3,0,0.6,0,0.6
	C85.9,91.2,84.7,91.2,83.4,91.2z"/>
</svg>
