<?xml version="1.0" encoding="utf-8"?>
<!-- Generator: Adobe Illustrator 25.2.0, SVG Export Plug-In . SVG Version: 6.00 Build 0)  -->
<svg version="1.1" id="Layer_1" xmlns="http://www.w3.org/2000/svg" xmlns:xlink="http://www.w3.org/1999/xlink" x="0px" y="0px"
	 viewBox="0 0 100 100" style="enable-background:new 0 0 100 100;" xml:space="preserve">
<g>
	<path d="M88.5,66.1C88.5,66.1,88.5,66.1,88.5,66.1C88.5,66.1,88.5,66.1,88.5,66.1C88.5,66.2,88.5,66.1,88.5,66.1z"/>
	<path d="M98.9,35.4c-1.1-4.8-3.1-9.3-6.1-13.1c-2.7-3.4-6.2-6.2-10-8.2c-4.1-2.2-8.6-3.7-13.2-4.6c-5.1-1.1-10.4-1.6-15.6-1.7
		c-1.3,0-2.6-0.1-3.9-0.1c-7.7,0-15.5,0.6-22.9,2.6c-6.5,1.8-12.9,4.8-17.7,9.7c-5,5.1-7.9,11.9-8.9,19c-1.2,8.7-0.5,18,3.5,26
		c3.3,6.6,9.1,11.6,15.8,14.6c0.1,0,0.2,0.1,0.3,0.1c-0.3,0.6-0.6,1.1-0.9,1.7c-0.1,0.2-0.2,0.4-0.4,0.5c0,0.1-0.1,0.1-0.1,0.2
		c-0.2,0.3-0.5,0.6-0.8,0.9c-0.3,0.3-0.6,0.6-1,0.9c0,0-0.1,0.1-0.1,0.1c-0.2,0.1-0.4,0.3-0.5,0.4c-0.8,0.5-1.6,0.9-2.4,1.3
		c-0.4,0.1-0.7,0.3-1.1,0.4c-1.1,0.4-2.1,1.5-2.1,2.7c0.1,1.2,0.8,2.4,2.1,2.7c2.6,0.7,5.3,1,7.9,1.1c4.9,0.2,10.1-0.3,14.4-2.9
		c1.3-0.8,2.5-1.7,3.5-2.9c0.7-0.8,1.2-1.6,1.7-2.4c5.8,0.5,11.8,0.5,17.6,0.1c5.1-0.3,10.2-1,15.1-2.4c4.4-1.2,8.7-2.9,12.5-5.5
		c3.8-2.6,7-5.8,9.4-9.8c2.7-4.4,4-9.4,4.7-14.5C100.3,46.6,100.1,40.8,98.9,35.4z M16.9,83.7C16.9,83.7,16.9,83.7,16.9,83.7
		C16.9,83.7,16.9,83.7,16.9,83.7z M16.8,83.8C16.8,83.8,16.8,83.8,16.8,83.8C16.5,84.1,16.7,83.9,16.8,83.8z M33.2,84
		c0.1-0.1,0.2-0.2,0.2-0.2C33.4,83.9,33.3,83.9,33.2,84z M35,82.2C35,82.2,35,82.2,35,82.2C35,82.2,35,82.2,35,82.2z M93.9,52.2
		c-0.4,2.8-1.1,5.7-2.2,8.3c-0.6,1.3-1.2,2.6-2,3.8c-0.4,0.6-0.8,1.2-1.2,1.8c0.3-0.4,0.1-0.2,0,0c0,0,0,0,0,0c0,0,0,0,0,0
		c-0.1,0.1-0.1,0.2-0.2,0.2c0.1-0.1,0.1-0.2,0.2-0.2c-0.1,0.1-0.2,0.2-0.3,0.3c-0.2,0.3-0.5,0.6-0.7,0.9c-1,1.1-2,2.1-3.1,3
		c-0.1,0.1-0.2,0.2-0.3,0.3c-0.3,0.2-0.6,0.4-0.9,0.6c-0.6,0.4-1.3,0.8-1.9,1.2c-1.3,0.8-2.7,1.5-4.2,2.1c-3.4,1.4-7,2.4-10.6,3
		c-1,0.2-2,0.3-3,0.5c-5.9,0.8-11.9,0.9-17.9,0.7c-2.3-0.1-4.6-0.2-6.9-0.5c-0.6-0.1-1.3,0.3-1.7,0.6c-0.4,0.3-0.7,0.7-0.9,1.2
		c0-0.1,0.1-0.1,0.1-0.2c-0.3,0.8-0.7,1.5-1.2,2.2c0,0-0.1,0.1-0.1,0.1c-0.1,0.1-0.2,0.2-0.3,0.3c-0.3,0.3-0.5,0.6-0.8,0.8
		c-0.1,0.1-0.3,0.3-0.4,0.4c-0.1,0.1-0.1,0.1-0.2,0.2c0,0,0,0-0.1,0c-0.1,0-0.1,0.1-0.2,0.1c-0.2,0.1-0.3,0.2-0.5,0.3
		c-0.5,0.3-1.1,0.6-1.7,0.9c-1.4,0.6-2.9,0.9-4.4,1.2c-1.5,0.2-3,0.2-4.5,0.2c0.2-0.2,0.4-0.5,0.6-0.7c1.8-2.2,3.1-4.7,3.8-7.4
		c0.2-0.7,0.1-1.6-0.3-2.2c-0.4-0.7-1-1-1.7-1.3c-0.4-0.2-0.9-0.3-1.3-0.5c-1.3-0.6-2.6-1.2-3.8-1.9c-0.6-0.4-1.3-0.8-1.9-1.2
		c-0.3-0.2-0.5-0.4-0.8-0.6c-0.1-0.1-0.3-0.2-0.4-0.3c0,0-0.1,0-0.1-0.1c-1.1-0.9-2.2-1.8-3.1-2.9c-0.5-0.5-1-1.1-1.4-1.6
		c-0.1-0.1-0.2-0.3-0.3-0.4c-0.2-0.3-0.4-0.6-0.6-0.9c-0.9-1.4-1.7-2.8-2.3-4.3c-1.1-2.7-1.8-5.5-2.2-8.3C5.5,48.1,5.5,44,6,39.9
		c0.4-2.8,1.1-5.7,2.2-8.3c0.6-1.3,1.2-2.6,2-3.8c0.4-0.6,0.8-1.2,1.2-1.8c-0.3,0.4-0.1,0.2,0,0c0,0,0,0,0,0c0,0,0,0,0,0
		c0.1-0.1,0.1-0.2,0.2-0.2c-0.1,0.1-0.1,0.2-0.2,0.2c0.1-0.1,0.2-0.2,0.3-0.3c0.2-0.3,0.5-0.6,0.7-0.9c1-1.1,2-2.1,3.1-3
		c0.1-0.1,0.2-0.2,0.3-0.3c0.3-0.2,0.6-0.4,0.9-0.6c0.6-0.4,1.3-0.8,1.9-1.2c1.3-0.8,2.7-1.5,4.2-2.1c3.4-1.4,7-2.4,10.6-3
		c1-0.2,2-0.3,3.1-0.5c4.5-0.6,8.9-0.8,13.4-0.8c4.5,0,9,0.2,13.5,0.8c3.7,0.5,7.4,1.3,11,2.5c0.9,0.3,1.8,0.6,2.6,1
		c1.3,0.6,2.5,1.2,3.7,1.9c0.6,0.4,1.2,0.7,1.8,1.2c0.3,0.2,0.6,0.4,0.9,0.6c0.1,0.1,0.3,0.2,0.4,0.3c0,0,0,0,0.1,0
		c1.1,0.9,2.2,1.8,3.1,2.9c0.5,0.5,0.9,1.1,1.4,1.6c0-0.1-0.1-0.1-0.2-0.2c0.1,0.1,0.1,0.2,0.2,0.2c0,0,0,0,0,0c0,0,0,0,0,0
		c0.1,0.1,0.3,0.4,0,0c0.1,0.1,0.2,0.2,0.3,0.4c0.2,0.3,0.5,0.6,0.7,1c0.9,1.3,1.6,2.8,2.3,4.2c1.1,2.7,1.8,5.5,2.2,8.3
		C94.5,44,94.5,48.2,93.9,52.2z"/>
	<path d="M11.5,26C11.5,26,11.5,26,11.5,26C11.5,26,11.5,26,11.5,26C11.5,26,11.5,26,11.5,26z"/>
	<path d="M88.5,26C88.5,26,88.5,26,88.5,26C88.5,26,88.5,26,88.5,26C88.5,26,88.5,26,88.5,26z"/>
</g>
</svg>
