<?xml version="1.0" encoding="utf-8"?>
<!-- Generator: Adobe Illustrator 25.2.0, SVG Export Plug-In . SVG Version: 6.00 Build 0)  -->
<svg version="1.1" id="Layer_1" xmlns="http://www.w3.org/2000/svg" xmlns:xlink="http://www.w3.org/1999/xlink" x="0px" y="0px"
	 viewBox="0 0 32 32" style="enable-background:new 0 0 32 32;" xml:space="preserve">
<g>
	<path d="M31.5,13.6c-0.6-0.2-1.2-0.2-1.7,0.2c-0.3,0.2-0.6,0.5-0.8,0.8c-0.5,0.7-0.7,1.5-1,2.3c-0.1,0.4-0.2,1-0.4,1.4
		c-0.1,0.1-0.2,0.2-0.3,0.3c-0.4,0.3-1,0.1-1.2-0.3L20.7,7.5c-0.3-0.7-1.2-0.9-1.8-0.6c-0.7,0.3-0.9,1.2-0.6,1.8l3.7,7.3
		c0.1,0.1,0,0.2-0.1,0.3c-0.1,0.1-0.2,0-0.3-0.1L16.9,7c-0.3-0.7-1.2-0.9-1.8-0.6c-0.7,0.3-0.9,1.2-0.6,1.8L19,17
		c0.1,0.1,0,0.2-0.1,0.3l0,0c-0.1,0.1-0.2,0-0.3-0.1L15,10c-0.3-0.7-1.2-0.9-1.8-0.6c-0.7,0.3-0.9,1.2-0.6,1.8l3.9,7.6
		c0.1,0.1,0,0.2-0.1,0.3l0,0c-0.1,0.1-0.2,0-0.3-0.1l-2.3-4.5c-0.3-0.7-1.2-0.9-1.8-0.6s-0.9,1.2-0.6,1.8l0.4,0.8
		c-0.1,0-0.1,0-0.2,0C10,16.2,5.1,15,4.9,15c-1.2,0-2.2,1.2-2.1,2.2c0,0.1,0,0.2,0,0.3c-1.3-0.2-2.2,0.2-2.7,1.4
		c-0.4,1.2,0.3,2,1.2,2.5c0,0,0,0.1,0,0.1c-0.7,1,0,3,1.5,3.3c0.4,0.1,0.9,0.2,1.3,0.3c0,0,0,0.1,0,0.1c-0.4,0.6-0.3,1.3,0,1.9
		c0.2,0.4,0.5,0.8,0.9,0.9c0.5,0.2,8,2.2,10.4,2.8c1.1,0.3,2.2,0.4,3.3,0.3c0.9-0.1,1.8-0.3,2.6-0.8c1.2,0.2,2.5,0,3.8-0.7
		c2.2-1.1,3.2-2.1,3.8-2.9c0.8-1.2,1.2-2.6,1.2-4c0.1-0.9,0.1-1.9,0.1-2.8c0.1-1.3,0.4-2.4,0.8-3.6c0.2-0.7,0.6-1.4,0.8-2.1
		C32.1,14.1,31.8,13.7,31.5,13.6z M18.6,30.2c-1.2,0.1-2.3-0.2-3.5-0.5c-2.3-0.6-4.6-1.2-6.8-1.7c-0.7-0.2-1.3-0.3-2-0.5
		c-0.3-0.1-0.6-0.2-0.9-0.4C5,27,4.8,26.4,4.9,25.9c0.1-0.2,0.2-0.4,0.5-0.4c0.2,0,0.5,0,0.7,0.1c1.4,0.4,2.9,0.7,4.3,1.1
		c0,0,0.1,0,0.1,0c0.3,0.1,0.6-0.1,0.6-0.3c0.1-0.3-0.1-0.6-0.4-0.6c-0.5-0.1-1-0.2-1.5-0.4c-0.4-0.1-0.9-0.2-1.3-0.4
		c-0.9-0.2-1.8-0.5-2.7-0.7C4.6,24.2,3.8,24,3,23.8c-0.6-0.1-1.1-1-0.9-1.5c0.1-0.4,0.3-0.5,0.6-0.4c2.5,0.6,5,1.3,7.5,1.9
		c0.2,0,0.4,0,0.5,0c0.2-0.1,0.3-0.3,0.2-0.5c0-0.2-0.2-0.4-0.4-0.4c-1-0.2-1.9-0.5-2.9-0.7c-1.7-0.4-3.3-0.8-5-1.3
		c-0.4-0.1-0.7-0.3-1.1-0.5c-0.5-0.3-0.7-0.7-0.5-1.2c0.2-0.5,0.7-0.9,1.2-0.8c0.5,0.1,0.9,0.2,1.4,0.3c1,0.2,1.9,0.5,2.9,0.8
		c1.7,0.4,3.3,0.8,5,1.3c0.3,0.1,0.5,0,0.6-0.2c0.1-0.2,0.2-0.4,0-0.6c-0.1-0.1-0.2-0.2-0.4-0.2c-1.6-0.4-3.2-0.8-4.8-1.2
		c-1-0.2-1.9-0.5-2.9-0.7c-0.2,0-0.3-0.1-0.3-0.3c-0.1-0.4-0.1-0.9,0.3-1.2c0.3-0.3,0.6-0.4,1-0.3c0.4,0.1,0.7,0.2,1.1,0.3
		c2,0.5,4,1,6.1,1.5l1.3,2.6l0,0l3.3,6.6c0.7,1.3,1.7,2.3,2.9,2.9C19.5,30.1,19,30.2,18.6,30.2z"/>
	<path d="M22.3,7.3c0.2,0.2,0.5,0.3,0.8,0.1c0.1,0,0.1-0.1,0.2-0.1c0.9-0.8,1.8-1.6,2.8-2.3c0.5-0.4,1-0.8,1.5-1.3
		c0.2-0.2,0.2-0.4,0.1-0.6c-0.1-0.2-0.3-0.3-0.6-0.2c-0.1,0-0.2,0.1-0.3,0.2C25.8,3.6,25,4.3,24.2,5c-0.6,0.5-1.2,1-1.8,1.6
		C22.1,6.8,22.1,7.1,22.3,7.3z"/>
	<path d="M20.2,4.8c0.3,0.1,0.5,0,0.7-0.3c0.2-0.4,0.3-0.7,0.5-1.1c0.3-0.6,0.6-1.2,0.8-1.8c0.1-0.2,0.1-0.4,0-0.6
		c-0.1-0.2-0.3-0.2-0.5-0.2c-0.1,0.1-0.3,0.2-0.3,0.4c-0.5,1-0.9,2-1.4,2.9C19.8,4.4,19.9,4.6,20.2,4.8z"/>
	<path d="M24.4,9.7c0.1,0.3,0.4,0.5,0.7,0.4c0.5-0.1,0.9-0.2,1.4-0.3c0.5-0.1,1-0.2,1.4-0.4c0.4-0.1,0.5-0.3,0.5-0.6
		c-0.1-0.3-0.4-0.5-0.7-0.4c-0.9,0.2-1.9,0.5-2.8,0.7C24.5,9.2,24.4,9.4,24.4,9.7z"/>
	<path d="M4.7,8.9c0.6,0.3,1.2,0.5,1.8,0.7c1.1,0.5,2.2,0.9,3.4,1.4c0.1,0,0.1,0.1,0.2,0.1c0.3,0.1,0.6,0,0.7-0.3
		c0.1-0.3,0-0.5-0.3-0.7C9.7,9.8,8.9,9.5,8.2,9.2c-1-0.4-2-0.8-3-1.2C5.1,8,4.9,7.9,4.9,7.9c-0.3,0-0.5,0.2-0.5,0.4
		C4.3,8.6,4.4,8.8,4.7,8.9z"/>
	<path d="M10.3,6.8c0.3,0.3,0.6,0.6,0.8,0.9c0.2,0.2,0.5,0.3,0.8,0.1c0.2-0.2,0.2-0.5,0-0.8c-0.7-0.8-1.5-1.6-2.2-2.4
		C9.6,4.5,9.4,4.5,9.2,4.4C9,4.5,8.9,4.6,8.8,4.7C8.7,5,8.8,5.2,8.9,5.3C9.4,5.8,9.9,6.3,10.3,6.8z"/>
	<path d="M8.8,13.3c-1,0.1-1.9,0.2-2.9,0.2c-0.4,0-0.6,0.3-0.6,0.6c0,0.3,0.3,0.5,0.6,0.5c0.5,0,1-0.1,1.5-0.1c0.5,0,1-0.1,1.4-0.1
		c0.4,0,0.6-0.3,0.6-0.6C9.4,13.5,9.2,13.3,8.8,13.3z"/>
</g>
</svg>
