<?xml version="1.0" encoding="utf-8"?>
<!-- Generator: Adobe Illustrator 25.2.0, SVG Export Plug-In . SVG Version: 6.00 Build 0)  -->
<svg version="1.1" id="Layer_1" xmlns="http://www.w3.org/2000/svg" xmlns:xlink="http://www.w3.org/1999/xlink" x="0px" y="0px"
	 viewBox="0 0 100 100" style="enable-background:new 0 0 100 100;" xml:space="preserve">
<g>
	<path d="M97.6,34.7c-1.5-4.8-3.8-9.3-6.7-13.4c-3-4.3-6.6-8-10.8-11.1C76.2,7.1,71.7,4.7,67,3C62.2,1.2,57,0.2,51.9,0
		c-5.2-0.2-10.5,0.4-15.5,1.8c-4.8,1.4-9.5,3.5-13.7,6.2c-4.2,2.7-8,6.1-11.1,9.9c-3.3,4-6,8.5-8,13.3c-2,4.8-3.1,9.8-3.5,15
		c-0.4,5.2,0.1,10.5,1.3,15.6c1.2,4.9,3.2,9.6,5.8,13.9c2.6,4.3,5.8,8.2,9.5,11.5c3.7,3.3,7.9,6.1,12.5,8.2c4.9,2.2,10,3.6,15.3,4.2
		c5.2,0.6,10.5,0.3,15.7-0.7c4.9-1,9.8-2.8,14.2-5.3c4.3-2.4,8.4-5.5,11.8-9.1c3.4-3.6,6.4-7.7,8.6-12.2c2.3-4.6,3.9-9.4,4.6-14.5
		c0.4-2.6,0.6-5.3,0.6-7.9C100,44.8,99.2,39.6,97.6,34.7z M94,55.9c-0.6,3.9-1.6,7.7-3.1,11.3c-0.9,2.1-1.9,4.1-3.1,6
		c-0.6,1-1.3,2-2,2.9c-0.2,0.2-0.3,0.4-0.5,0.6c-0.1,0.1-0.1,0.2-0.2,0.3c-0.4,0.5-0.7,0.9-1.1,1.4c-1.5,1.8-3.2,3.5-4.9,5
		c-0.4,0.4-0.9,0.8-1.3,1.1c-0.2,0.2-0.4,0.4-0.7,0.5c-0.1,0.1-0.2,0.1-0.3,0.2c-0.9,0.7-1.9,1.4-2.9,2c-2.1,1.4-4.3,2.5-6.6,3.5
		c-3.6,1.5-7.5,2.5-11.4,3.1c-3.9,0.5-7.9,0.5-11.9,0c-3.9-0.6-7.7-1.6-11.3-3.1c-2.1-0.9-4.1-1.9-6-3.1c-1-0.6-2-1.3-2.9-2
		c-0.2-0.2-0.4-0.3-0.6-0.5c-0.1-0.1-0.2-0.1-0.3-0.2c-0.5-0.4-0.9-0.7-1.4-1.1c-1.8-1.5-3.5-3.2-5-4.9c-0.4-0.4-0.8-0.9-1.1-1.3
		c-0.2-0.2-0.4-0.4-0.5-0.7c-0.1-0.1-0.1-0.2-0.2-0.3c-0.7-0.9-1.4-1.9-2-2.9c-1.4-2.1-2.5-4.3-3.5-6.6C7.6,63.7,6.6,59.8,6,55.9
		C5.5,52,5.5,48,6,44.1c0.6-3.9,1.6-7.7,3.1-11.3c0.9-2.1,1.9-4.1,3.1-6c0.6-1,1.3-2,2-2.9c0.2-0.2,0.3-0.4,0.5-0.6
		c0.1-0.1,0.1-0.2,0.2-0.3c0.4-0.5,0.7-0.9,1.1-1.4c1.5-1.8,3.2-3.5,4.9-5c0.4-0.4,0.9-0.8,1.3-1.1c0.2-0.2,0.4-0.4,0.7-0.5
		c0.1-0.1,0.2-0.1,0.3-0.2c0.9-0.7,1.9-1.4,2.9-2c2.1-1.4,4.3-2.5,6.6-3.5c3.6-1.5,7.5-2.5,11.4-3.1C48,5.5,52,5.5,55.9,6
		c3.9,0.6,7.7,1.6,11.3,3.1c2.1,0.9,4.1,1.9,6,3.1c1,0.6,2,1.3,2.9,2c0.2,0.2,0.4,0.3,0.6,0.5c0.1,0.1,0.2,0.1,0.3,0.2
		c0.5,0.4,0.9,0.7,1.4,1.1c1.8,1.5,3.5,3.2,5,4.9c0.4,0.4,0.8,0.9,1.1,1.3c0.2,0.2,0.4,0.4,0.5,0.7c0.1,0.1,0.1,0.2,0.2,0.3
		c0.7,0.9,1.4,1.9,2,2.9c1.4,2.1,2.5,4.3,3.5,6.6c1.5,3.6,2.5,7.5,3.1,11.4c0.2,2,0.4,4,0.4,5.9C94.3,52,94.2,54,94,55.9z"/>
	<path d="M65.7,50.6c-2-1.8-5.2-3.2-9.5-4.2L54,45.9v-9.7c1.3,0.3,2.5,0.6,3.6,1.1c1.1,0.5,2.1,1.1,3,1.7c1.9,1.4,4.6,1,6-0.9
		c1.5-1.9,1.1-4.7-0.8-6.2c-1.4-1-3-1.9-4.7-2.6c-2.1-0.9-4.5-1.4-7.1-1.7v-6.2h-7.1v6.2c-2.4,0.3-4.6,0.8-6.6,1.6
		c-2.8,1.2-4.9,2.9-6.4,5c-1.5,2.1-2.2,4.6-2.2,7.3c0,2.1,0.5,4,1.6,5.5c1.1,1.6,2.5,2.8,4.4,3.9c1.9,1,4,1.8,6.5,2.3l2.8,0.7v9.4
		c-0.6-0.1-1.2-0.2-1.8-0.4c-2-0.5-3.9-1.3-5.7-2.3c-0.4-0.2-0.7-0.4-1-0.7c-2-1.4-4.7-1.1-6.2,0.9l-0.2,0.2c-1.4,2-0.9,4.8,1.1,6.2
		c0.6,0.4,1.2,0.8,1.9,1.2c2.1,1.2,4.5,2.1,7.1,2.7c1.5,0.4,3.1,0.6,4.8,0.8v6.1H54v-6.2c2.1-0.3,4.1-0.7,5.9-1.4
		c2.8-1.1,5-2.7,6.5-4.8c1.6-2.1,2.4-4.7,2.4-7.8C68.8,54.9,67.8,52.4,65.7,50.6z M46.9,44.3c-0.9-0.3-1.7-0.5-2.3-0.8
		c-1-0.5-1.6-0.9-2-1.5c-0.3-0.5-0.5-1.2-0.5-1.8c0-0.8,0.3-1.5,0.8-2.2c0.5-0.7,1.4-1.2,2.5-1.6c0.4-0.1,0.9-0.3,1.5-0.4V44.3z
		 M56.6,62.9c-0.7,0.4-1.6,0.7-2.6,0.8v-7.9c1.6,0.4,2.8,0.9,3.5,1.5c0.8,0.7,1.2,1.4,1.2,2.3C58.7,61.1,58,62.1,56.6,62.9z"/>
</g>
</svg>
