<?xml version="1.0" encoding="utf-8"?>
<!-- Generator: Adobe Illustrator 25.2.0, SVG Export Plug-In . SVG Version: 6.00 Build 0)  -->
<svg version="1.1" id="Layer_1" xmlns="http://www.w3.org/2000/svg" xmlns:xlink="http://www.w3.org/1999/xlink" x="0px" y="0px"
	 viewBox="0 0 32 32" style="enable-background:new 0 0 32 32;" xml:space="preserve">
<g id="_x30_Phmdx.tif">
	<g>
		<path d="M-0.1,20.2c0-2.9,0-5.8,0-8.7c0-1.4,0.9-2.6,2.3-2.9C2.5,8.6,2.8,8.6,3,8.6c5.7,0,11.4,0,17.1,0c1.8,0,3,1.2,3.1,3
			c0,5.8,0,11.5,0,17.3c0,1.7-1.3,2.9-3,2.9c-5.7,0-11.5,0-17.2,0c-1.9,0-3.1-1.2-3.1-3.1C-0.1,25.9-0.1,23-0.1,20.2z M20.3,28.9
			c0-5.8,0-11.6,0-17.4c-5.8,0-11.6,0-17.4,0c0,5.8,0,11.6,0,17.4C8.7,28.9,14.5,28.9,20.3,28.9z"/>
		<path d="M11.6,5.6c-1,0-1.9,0-2.9,0c0-0.1,0-0.1,0-0.2c0-1,0-1.9,0-2.9c0.1-1.5,1.3-2.7,2.8-2.7c0.9,0,1.8,0,2.8,0
			c0.1,0,0.2,0,0.3,0c0,1,0,1.9,0,2.9c-1,0-1.9,0-2.9,0C11.6,3.7,11.6,4.7,11.6,5.6z"/>
		<path d="M31.9,17.3c0,1.1,0,2.1,0,3.2c0,1.2-1,2.3-2.2,2.5c-1.2,0.2-2.4,0.1-3.6,0.2c0-1,0-1.9,0-2.8c0-0.1,0.2-0.2,0.3-0.2
			c0.7,0,1.4,0,2.2,0c0.1,0,0.3,0,0.4,0c0-1,0-1.9,0-2.9C30,17.3,31,17.3,31.9,17.3z"/>
		<path d="M26.1-0.1c1,0,2,0,2.9,0c0.2,0,0.4,0,0.6,0.1c1.3,0.3,2.2,1.4,2.2,2.8c0,1,0,2,0,3c-1,0-1.9,0-2.9,0c0-0.9,0-1.9,0-2.9
			c-1,0-1.9,0-2.9,0C26.1,1.8,26.1,0.8,26.1-0.1z"/>
		<path d="M17.4-0.1c1.9,0,3.8,0,5.8,0c0,1,0,1.9,0,2.9c-1.9,0-3.8,0-5.8,0C17.4,1.8,17.4,0.8,17.4-0.1z"/>
		<path d="M29,14.3c0-1.9,0-3.8,0-5.7c1,0,1.9,0,2.9,0c0,1.9,0,3.8,0,5.7C31,14.3,30,14.3,29,14.3z"/>
	</g>
</g>
</svg>
