<?xml version="1.0" encoding="utf-8"?>
<!-- Generator: Adobe Illustrator 22.1.0, SVG Export Plug-In . SVG Version: 6.00 Build 0)  -->
<svg version="1.1" id="Capa" xmlns="http://www.w3.org/2000/svg" xmlns:xlink="http://www.w3.org/1999/xlink" x="0px" y="0px"
	 viewBox="0 0 100 100" style="enable-background:new 0 0 100 100;" xml:space="preserve">
<g id="kkXnWB.tif">
	<g>
		<path d="M82.5,12.6c1.8,0,3.5,0,5.2,0c7.2,0,12.3,5.2,12.3,12.3c0,20.4,0,40.9,0,61.3c0,7-5.2,12.2-12.2,12.2
			c-25.2,0-50.5,0-75.7,0C5.3,98.5,0,93.2,0,86.4c0-20.5,0-41,0-61.5c0-7,5.2-12.1,12.2-12.2c1.7,0,3.4,0,5.3,0c0-1.8,0-3.5,0-5.2
			c0-0.8,0-1.6,0.2-2.3c0.6-2.2,2.9-3.8,5.1-3.6c2.5,0.2,4.4,2,4.6,4.4c0.1,1.5,0.1,3.1,0.1,4.7c0,0.6,0,1.3,0,2
			c14.9,0,29.8,0,44.8,0c0-1.7,0-3.5,0-5.2c0-0.7,0-1.5,0.2-2.2c0.6-2.2,2.9-3.8,5.2-3.6c2.5,0.2,4.5,2.1,4.6,4.5
			c0.1,1.7,0,3.4,0.1,5.1C82.5,11.6,82.5,12,82.5,12.6z M93.7,39.2c-29.2,0-58.3,0-87.4,0c0,0.5,0,0.9,0,1.3c0,15.1,0,30.3,0,45.4
			c0,4,2.3,6.2,6.2,6.2c25,0,50,0,75.1,0c3.9,0,6.2-2.3,6.2-6.2c0-15.2,0-30.3,0-45.5C93.7,40,93.7,39.6,93.7,39.2z"/>
	</g>
</g>
</svg>
