<?xml version="1.0" encoding="utf-8"?>
<!-- Generator: Adobe Illustrator 25.0.1, SVG Export Plug-In . SVG Version: 6.00 Build 0)  -->
<svg version="1.1" id="Capa_1" xmlns="http://www.w3.org/2000/svg" xmlns:xlink="http://www.w3.org/1999/xlink" x="0px" y="0px"
	 viewBox="0 0 32 32" style="enable-background:new 0 0 32 32;" xml:space="preserve">
<path d="M25.9,12.8c0,0,0.9,5.8-2.9,7.2c0,0,3.2-5.3-1.5-11s-5.3-5.7-5.1-9c0,0-4.4,1.6-3.5,7.1c1,5.5-0.3,6.7-2.5,6.7
	c-3,0-2.3-3.2-2.3-3.2c-2.6,2.2-4.3,5.6-4.3,9.3C3.8,26.6,9.3,32,16,32s12.2-5.4,12.2-12.2C28.2,17.2,27.3,14.8,25.9,12.8z M16,30
	c-2.6,0-4.7-2.1-4.7-4.7c0,0,0-2.9,1.5-4.4c0,0-0.2,2.6,1.6,3.1c0,0-0.5-5.7,2.7-7.7c0,0,0,1.5,0.8,3.2c0.7,1.5,1.5,1.9,2.3,3.4
	c0.4,0.7,0.6,1.4,0.6,2.3C20.7,27.9,18.6,30,16,30z"/>
</svg>
