<?xml version="1.0" encoding="utf-8"?>
<!-- Generator: Adobe Illustrator 25.2.0, SVG Export Plug-In . SVG Version: 6.00 Build 0)  -->
<svg version="1.1" id="Layer_1" xmlns="http://www.w3.org/2000/svg" xmlns:xlink="http://www.w3.org/1999/xlink" x="0px" y="0px"
	 viewBox="0 0 100 100" style="enable-background:new 0 0 100 100;" xml:space="preserve">
<g>
	<path d="M94.5,67.3c-2.5-5.6-7.1-10-12.6-12.5c-2.8-1.3-5.9-1.9-9-1.9c-3.1,0-6.2,0.6-9,1.9c-5.7,2.5-10.1,7.1-12.6,12.6
		c-1.2,2.8-1.9,5.9-1.9,9.1c0,3.1,0.6,6.2,1.9,9c2.5,5.6,7.1,10,12.6,12.5c2.8,1.2,5.9,1.9,9,1.9c3.1,0,6.2-0.6,9-1.9
		C87.5,95.5,92,91,94.5,85.4c1.2-2.8,1.9-5.9,1.9-9.1C96.4,73.2,95.7,70.2,94.5,67.3z M75.9,59.5c0.1-0.6,0.1-1,0.1-1.6
		c3.2,0.4,6.3,1.8,8.8,3.8c2.5,1.9,4.4,4.6,5.4,7.5l-1.5,0.4c-1.8,0.4-3.5,0.9-5.3,1.5h-0.1c-0.3,0-0.6-0.1-0.7-0.3
		c-1.9-1.5-4-2.9-6.3-4.6c-0.3-0.1-0.4-0.4-0.4-0.7C75.9,63.5,75.9,61.4,75.9,59.5z M74.3,70.4c1.6,1.2,3.4,2.5,5.1,3.7
		c0.1,0.1,0.3,0.4,0.3,0.7c-0.7,2.5-1.5,4.9-2.4,7.2c-0.1,0.3-0.4,0.4-0.7,0.6c-1.2,0-2.5,0-3.8,0c-1.2,0-2.5,0-3.8,0
		c-0.3,0-0.6-0.3-0.7-0.6c-0.7-2.4-1.6-4.7-2.4-7.2c0-0.3,0-0.6,0.3-0.9c1.8-1.3,3.4-2.5,5.1-3.8l1.5-0.7L74.3,70.4z M62.2,60.8
		c2.6-1.9,5.9-2.9,9.3-3.1c0,0.4,0,0.9,0,1.3c0,1.6,0,3.4,0,5.1c0,0.1-0.3,0.4-0.4,0.6c-2.4,1.8-5.1,3.7-7.8,5.7
		c-0.3,0.1-0.6,0.3-0.9,0.3h-0.1c-1.6-0.4-3.1-1-4.7-1.6h-0.1l-1.5-0.4C57.1,65.5,59.3,62.7,62.2,60.8z M64,85.5
		c-0.9,1.3-1.6,2.6-2.5,4l-0.9,1.3c-5-4.4-7.4-11-6.3-17.6l1.5,0.4c1.8,0.6,3.4,1.2,5,1.6c0.3,0.1,0.4,0.4,0.6,0.7
		c0.9,2.8,1.9,5.7,2.8,8.4C64.3,84.9,64.1,85.2,64,85.5z M72.9,95.2c-2.8,0-5.7-0.6-8.2-1.8l0.7-1.3c0.9-1.5,1.9-2.9,2.8-4.4
		c0.1-0.1,0.4-0.3,0.7-0.3c1.5,0,2.6,0,4,0c1.5,0,2.8,0,4.1,0c0.3,0,0.6,0.1,0.7,0.4c0.9,1.5,1.8,2.9,2.6,4.4l0.7,1.2
		C78.5,94.6,75.7,95.2,72.9,95.2z M90.9,82.4c-1,3.4-3.1,6.3-5.7,8.5l-0.7-1.2c-1-1.6-1.9-3.2-2.8-4.9c-0.1-0.3-0.1-0.6,0-0.9
		c0.7-2.4,1.6-5,2.5-7.5c0.1-0.3,0.4-0.6,0.7-0.7c1.6-0.4,3.4-0.9,5-1.3l1.6-0.4C92,76.7,91.7,79.6,90.9,82.4z"/>
	<path d="M63.1,18.2c1.1,0,2.1,0,3.2,0c1,0,2-0.1,3,0c0.2,0.1,0.5,0.1,0.7,0.2c0.2,0.1,0.4,0.2,0.6,0.3c0.2,0.2,0.4,0.4,0.6,0.6
		c0.1,0.2,0.2,0.4,0.3,0.6c0.1,0.2,0.1,0.5,0.2,0.7c0.1,0.9,0,1.9,0,2.8c0,2.2,0,4.3,0,6.5c0,2.7,0,5.4,0,8.1c0,2.3,0,4.7,0,7
		c0,1.1,0,2.3,0,3.4c0,0,0,0,0,0c0,1.5,1.3,3,2.9,2.9c1.6-0.1,2.9-1.3,2.9-2.9c0-1.6,0-3.3,0-4.9c0-3.5,0-7,0-10.5
		c0-3.2,0-6.3,0-9.5c0-0.8,0-1.6,0-2.4c0-2.3-0.8-4.4-2.3-6.1c-1.1-1.2-2.6-2.1-4.2-2.5c-0.9-0.2-1.8-0.3-2.7-0.3
		c-1.6,0-3.2,0-4.8,0c-0.1,0-0.3,0-0.4,0c-1.5,0-3,1.3-2.9,2.9C60.2,16.9,61.4,18.2,63.1,18.2z"/>
	<path d="M49.4,94.2c-1.3,0-2.5,0-3.8,0c-3,0-6,0-9,0c-3.6,0-7.3,0-10.9,0c-3.1,0-6.2,0-9.3,0c-1.4,0-2.9,0-4.3,0
		c-0.1,0-0.3,0-0.4,0c-0.2,0-0.5-0.1-0.7-0.2c-0.2-0.1-0.4-0.2-0.6-0.3c-0.2-0.2-0.4-0.4-0.6-0.6c-0.1-0.2-0.2-0.4-0.3-0.6
		c-0.1-0.2-0.1-0.4-0.2-0.7c-0.1-0.7,0-1.4,0-2.1c0-1.7,0-3.4,0-5c0-2.5,0-5.1,0-7.6c0-3.1,0-6.2,0-9.3c0-3.4,0-6.8,0-10.2
		c0-3.4,0-6.9,0-10.3c0-3.2,0-6.4,0-9.6c0-2.7,0-5.4,0-8.1c0-1.9,0-3.8,0-5.7c0-0.9,0-1.7,0-2.6c0-0.1,0-0.3,0-0.4
		c0-0.2,0.1-0.5,0.2-0.7c0.1-0.2,0.2-0.4,0.3-0.6c0.2-0.2,0.4-0.4,0.6-0.6c0.2-0.1,0.4-0.2,0.6-0.3c0.2-0.1,0.5-0.1,0.7-0.2
		c1-0.1,2.1,0,3.1,0c1.1,0,2.2,0,3.3,0c1.5,0,3-1.3,2.9-2.9c-0.1-1.6-1.3-2.9-2.9-2.9c-2,0-4,0-6,0c-2.9,0-5.5,1.5-7.2,3.9
		c-0.9,1.4-1.4,3.1-1.4,4.7c0,0.7,0,1.3,0,2c0,1.5,0,3,0,4.5c0,2.1,0,4.3,0,6.4c0,2.6,0,5.2,0,7.8c0,2.9,0,5.8,0,8.7c0,3,0,6,0,9
		c0,2.9,0,5.9,0,8.8c0,2.7,0,5.4,0,8.1c0,2.3,0,4.6,0,6.9c0,1.7,0,3.4,0,5.1c0,0.9,0,1.9,0,2.8c0,0.2,0,0.3,0,0.5
		c0.1,2.9,1.6,5.5,4,7.1c1.4,0.9,3.1,1.3,4.7,1.3c0.4,0,0.8,0,1.2,0c1.9,0,3.7,0,5.6,0c2.7,0,5.5,0,8.2,0c3,0,6,0,9,0
		c2.6,0,5.2,0,7.8,0c1.6,0,3.2,0,4.7,0c0.2,0,0.4,0,0.6,0c1.5,0,3-1.3,2.9-2.9C52.2,95.5,51,94.2,49.4,94.2z"/>
	<path d="M24.4,26.3c1.1,0,2.1,0,3.2,0c2.6,0,5.1,0,7.7,0c3.1,0,6.2,0,9.4,0c2.7,0,5.4,0,8.1,0c1.3,0,2.6,0,3.9,0c0,0,0,0,0.1,0
		c1.6,0,2.9-1.3,2.9-2.9c0-3.9,0-7.9,0-11.8c0-0.6,0-1.1,0-1.7c0-1.6-1.3-2.9-2.9-2.9c-2.1,0-4.3,0-6.4,0C50,6,49.6,5.1,49,4.3
		c-0.7-1-1.5-1.7-2.5-2.5c-0.8-0.6-1.7-1-2.6-1.3C40.2-0.8,35.6,0.4,33,3.4C32,4.5,31.4,5.7,30.9,7c-1.8,0-3.6,0-5.4,0
		c-0.4,0-0.7,0-1.1,0c-1.6,0-2.9,1.3-2.9,2.9c0,3.9,0,7.9,0,11.8c0,0.6,0,1.1,0,1.7C21.5,24.9,22.9,26.3,24.4,26.3z M27.4,12.8
		c1.6,0,3.2,0,4.8,0c0.4,0,0.7,0,1.1,0c0.7,0,1.6-0.3,2.1-0.9c0.5-0.6,0.8-1.3,0.9-2.1c0-0.1,0-0.2,0-0.2c0.1-0.4,0.2-0.8,0.3-1.1
		c0.2-0.3,0.4-0.7,0.6-1c0.2-0.3,0.5-0.6,0.8-0.8c0.3-0.2,0.7-0.4,1-0.6C39.2,6,39.6,5.9,40,5.9c0.4,0,0.8,0,1.2,0
		C41.6,5.9,42,6,42.3,6.2c0.3,0.2,0.7,0.4,1,0.6c0.3,0.2,0.6,0.5,0.8,0.8c0.2,0.3,0.4,0.6,0.6,1C44.9,8.9,45,9.3,45,9.7
		c0,0.1,0,0.2,0,0.2c0,0.1,0,0.3,0,0.4c0.1,0.6,0.3,1.2,0.8,1.7c0.2,0.2,0.5,0.4,0.8,0.5c0.1,0,0.1,0.1,0.2,0.1c0,0,0,0,0,0
		c0.1,0,0.1,0.1,0.2,0.1c0.3,0.1,0.6,0.1,0.9,0.1c2,0,3.9,0,5.9,0c0,2.5,0,5.1,0,7.6c-0.1,0-0.2,0-0.3,0c-2.6,0-5.1,0-7.7,0
		c-3.1,0-6.2,0-9.4,0c-2.7,0-5.4,0-8.1,0c-0.4,0-0.7,0-1.1,0C27.4,17.9,27.4,15.4,27.4,12.8z"/>
	<rect x="27.9" y="37.8" width="35.7" height="5.2"/>
	<rect x="19.1" y="37.8" width="5.2" height="5.2"/>
	<rect x="27.9" y="50.3" width="26.9" height="5.2"/>
	<rect x="19.1" y="50.3" width="5.2" height="5.2"/>
	<rect x="27.9" y="62.9" width="16.8" height="5.2"/>
	<rect x="19.1" y="62.9" width="5.2" height="5.2"/>
</g>
</svg>
