<?xml version="1.0" encoding="utf-8"?>
<!-- Generator: Adobe Illustrator 23.0.4, SVG Export Plug-In . SVG Version: 6.00 Build 0)  -->
<svg version="1.1" id="Capa_1" xmlns="http://www.w3.org/2000/svg" xmlns:xlink="http://www.w3.org/1999/xlink" x="0px" y="0px"
	 viewBox="0 0 32 32" style="enable-background:new 0 0 32 32;" xml:space="preserve">
<title>youtube</title>
<g id="eCj4Pe.tif">
	<g>
		<path d="M20.7,0c0.2,0.2,0.5,0.4,0.7,0.6c1.2,1.2,2.4,2.4,3.6,3.5c0.3,0.3,0.5,0.7,0.5,1.1c0,0.9,0,1.8,0,2.7c0,0.6-0.4,1.1-1,1.1
			c-0.6,0-1-0.4-1-1.1c0-0.6,0-1.2,0-1.8c0,0,0,0,0-0.1c-0.1,0-0.2,0-0.3,0c-0.9,0-1.7,0-2.6,0c-0.7,0-1.1-0.4-1.1-1.1
			c0-1,0-1.9,0-2.9c-5.7,0-11.3,0-17,0c0,9.3,0,18.6,0,28c7,0,14,0,21,0c0-2.8,0-5.6,0-8.5c-0.1,0.1-0.2,0.1-0.2,0.2
			c-0.7,0.7-1.3,1.3-2,2c-0.2,0.2-0.4,0.3-0.6,0.4c-1.3,0.3-2.6,0.6-3.8,1c-0.9,0.2-1.5-0.4-1.3-1.3c0.3-1.3,0.6-2.6,1-3.8
			c0.1-0.2,0.2-0.4,0.3-0.6c3.1-3.1,6.3-6.3,9.4-9.4c1.1-1.1,3.1-1.1,4.3-0.2c0.3,0.3,0.5,0.6,0.7,1c0.5,1,0.4,2.7-0.7,3.7
			c-1.6,1.6-3.2,3.2-4.9,4.8c-0.1,0.1-0.2,0.3-0.2,0.5c0,3.3,0,6.7,0,10c0,1.1-0.6,1.9-1.6,2.2c0,0-0.1,0-0.1,0.1
			c-7.2,0-14.3,0-21.5,0c-0.9-0.3-1.5-0.9-1.8-1.8c0-9.5,0-19,0-28.5C0.8,0.9,1.4,0.3,2.2,0C8.4,0,14.6,0,20.7,0z M25.6,13.3
			C25.6,13.4,25.5,13.4,25.6,13.3c-2.4,2.4-4.7,4.7-7,7c-0.1,0.1-0.1,0.1-0.2,0.2c-0.2,0.7-0.3,1.3-0.5,2c0.6-0.2,1.2-0.3,1.8-0.4
			c0.2-0.1,0.4-0.2,0.6-0.3c1.5-1.5,3.1-3,4.6-4.6c0.8-0.8,1.6-1.6,2.4-2.4C26.6,14.4,26.1,13.9,25.6,13.3z M27,11.8
			c0.5,0.5,1.1,1.1,1.6,1.6c0.2-0.2,0.5-0.5,0.7-0.7c0.4-0.5,0.4-1-0.1-1.5c-0.5-0.5-1-0.5-1.5-0.1C27.5,11.4,27.3,11.6,27,11.8z"/>
		<path d="M13,13c-1.8,0-3.6,0-5.4,0c-0.7,0-1.1-0.4-1.1-1c0-0.6,0.5-1,1.1-1c3.6,0,7.2,0,10.8,0c0.7,0,1.1,0.4,1.1,1
			c0,0.6-0.5,1-1.1,1C16.6,13,14.8,13,13,13z"/>
		<path d="M12.5,9c-1.7,0-3.3,0-5,0c-0.5,0-0.8-0.3-1-0.7c-0.1-0.4,0-0.8,0.3-1.1C7,7.1,7.3,7,7.5,7c3.3,0,6.6,0,10,0
			c0.6,0,1,0.4,1,1c0,0.6-0.4,1-1,1C15.8,9,14.1,9,12.5,9z"/>
		<path d="M11.5,17c-1.3,0-2.6,0-4,0c-0.8,0-1.2-0.8-0.9-1.4c0.2-0.4,0.5-0.6,1-0.6c2.1,0,4.3,0,6.4,0c0.5,0,1,0,1.5,0
			c0.6,0,1.1,0.4,1.1,1c0,0.6-0.4,1-1.1,1C14.1,17,12.8,17,11.5,17z"/>
		<path d="M10.5,25c-1,0-1.9,0-2.9,0c-0.6,0-1.1-0.4-1.1-1c0-0.6,0.4-1,1.1-1c1.9,0,3.9,0,5.8,0c0.7,0,1.1,0.4,1.1,1
			c0,0.6-0.5,1-1.1,1C12.4,25,11.5,25,10.5,25z"/>
		<path d="M10,19c0.8,0,1.6,0,2.4,0c0.7,0,1.1,0.4,1.1,1c0,0.6-0.5,1-1.1,1c-1.6,0-3.2,0-4.8,0c-0.7,0-1.1-0.4-1.1-1
			c0-0.6,0.5-1,1.1-1C8.4,19,9.2,19,10,19z"/>
	</g>
</g>
</svg>
