<?xml version="1.0" encoding="utf-8"?>
<!-- Generator: Adobe Illustrator 25.2.0, SVG Export Plug-In . SVG Version: 6.00 Build 0)  -->
<svg version="1.1" id="Layer_1" xmlns="http://www.w3.org/2000/svg" xmlns:xlink="http://www.w3.org/1999/xlink" x="0px" y="0px"
	 viewBox="0 0 32 32" style="enable-background:new 0 0 32 32;" xml:space="preserve">
<path id="Combined_Shape" d="M16,32C7.2,32,0,24.8,0,16S7.2,0,16,0s16,7.2,16,16C32,24.8,24.8,32,16,32z M16,4C9.4,4,4,9.4,4,16
	s5.4,12,12,12s12-5.4,12-12C28,9.4,22.6,4,16,4z M23.5,18h-15C8.2,18,8,17.8,8,17.5v-3C8,14.2,8.2,14,8.5,14h15
	c0.3,0,0.5,0.2,0.5,0.5v3C24,17.8,23.8,18,23.5,18z"/>
</svg>
