<?xml version="1.0" encoding="utf-8"?>
<!-- Generator: Adobe Illustrator 25.2.0, SVG Export Plug-In . SVG Version: 6.00 Build 0)  -->
<svg version="1.1" id="Layer_1" xmlns="http://www.w3.org/2000/svg" xmlns:xlink="http://www.w3.org/1999/xlink" x="0px" y="0px"
	 viewBox="0 0 32 32" style="enable-background:new 0 0 32 32;" xml:space="preserve">
<g id="YufU3s.tif">
	<g>
		<path d="M5.3,0c7.1,0,14.3,0,21.4,0c0.2,0.1,0.5,0.2,0.7,0.4c0.4,0.4,0.3,0.8,0.1,1.3c-1.3,3.9-2.6,7.9-3.9,11.8
			c-0.1,0.2,0,0.4,0.1,0.6c2.5,2.7,3.4,5.9,2.7,9.5c-1.2,5.7-6.5,9.3-12.3,8.3C9.2,31,5.4,26.6,5.4,21.6c0-2.9,0.9-5.4,2.9-7.6
			c0.1-0.1,0.2-0.3,0.1-0.5C7,9.5,5.7,5.4,4.3,1.3c0-0.1,0-0.3,0-0.4C4.5,0.4,4.8,0.1,5.3,0z M21.3,20.3c0-0.4-0.3-0.7-0.6-0.7
			c-0.9,0-1.7-0.1-2.6-0.1c-0.4,0-0.5-0.1-0.7-0.5c-0.3-0.8-0.6-1.7-0.9-2.5C16.5,16.2,16.3,16,16,16c-0.3,0-0.4,0.2-0.5,0.5
			c-0.3,0.9-0.6,1.7-0.9,2.6c-0.1,0.3-0.3,0.4-0.6,0.4c-0.9,0-1.7,0.1-2.6,0.1c-0.3,0-0.6,0.1-0.7,0.4c-0.1,0.3,0.1,0.5,0.3,0.7
			c0.7,0.5,1.3,1.1,2,1.6c0.3,0.2,0.4,0.5,0.3,0.8c-0.2,0.9-0.5,1.7-0.7,2.6c-0.1,0.3-0.1,0.5,0.2,0.7c0.3,0.2,0.5,0.1,0.7-0.1
			c0.7-0.5,1.4-1,2.1-1.5c0.4-0.2,0.5-0.2,0.8,0c0.7,0.5,1.4,1,2.1,1.4c0.2,0.2,0.5,0.3,0.8,0.1c0.3-0.2,0.3-0.5,0.2-0.8
			c-0.2-0.9-0.5-1.7-0.7-2.6c-0.1-0.4,0-0.6,0.3-0.9c0.7-0.5,1.4-1.1,2-1.7C21.2,20.6,21.3,20.4,21.3,20.3z M11.8,2.2
			c-1.7,0-3.3,0-5,0C8,5.6,9.1,9,10.2,12.3c0.7-0.3,1.4-0.7,2.1-1c0.4-0.2,0.4-0.2,0.4-0.7c-0.2-1.8-0.4-3.6-0.5-5.4
			C12.1,4.2,12,3.2,11.8,2.2z M25.2,2.2c-1.7,0-3.3,0-5,0c0,0.1,0,0.1,0,0.1c-0.2,2-0.4,4-0.6,6.1c-0.1,0.8-0.2,1.7-0.2,2.5
			c0,0.1,0.1,0.3,0.1,0.3c0.8,0.4,1.6,0.7,2.4,1.1C22.9,9,24,5.6,25.2,2.2z M14,2.2c0.3,2.9,0.6,5.7,0.9,8.5c0.8,0,1.5,0,2.3,0
			C17.5,7.9,17.7,5,18,2.2C16.7,2.2,15.4,2.2,14,2.2z"/>
	</g>
</g>
</svg>
