<?xml version="1.0" encoding="utf-8"?>
<!-- Generator: Adobe Illustrator 25.2.0, SVG Export Plug-In . SVG Version: 6.00 Build 0)  -->
<svg version="1.1" id="Layer_1" xmlns="http://www.w3.org/2000/svg" xmlns:xlink="http://www.w3.org/1999/xlink" x="0px" y="0px"
	 viewBox="0 0 100 100" style="enable-background:new 0 0 100 100;" xml:space="preserve">
<g>
	<path d="M99.7,72.5c-0.5-2.6-2.4-5.1-4.8-6.2c-1.2-0.5-2.4-0.9-3.7-0.9c-0.2,0-0.4,0-0.5,0c-2.4,0-4.9,0-7.3,0c-2.8,0-5.6,0-8.4,0
		c-0.6,0-1.1,0-1.7,0c-1.2,0-2.3,0.3-3.3,0.7c0-1.8,0-3.6,0-5.4c0-2.2,0-4.4,0-6.6c0-1.2,0-2.4,0-3.6c0-0.8-0.1-1.6-0.2-2.4
		c-0.4-2.5-2.1-4.8-4.2-6.2c-1.3-0.9-2.9-1.2-4.5-1.2c-0.6,0-1.2,0-1.8,0c-2.4,0-4.8,0-7.2,0c-2.8,0-5.5,0-8.3,0c-1.6,0-3.2,0-4.9,0
		c-1.6,0-3.3,0.4-4.6,1.3c-2.1,1.4-3.7,3.7-4.1,6.2c-0.2,1.2-0.2,2.4-0.2,3.6c0,1.8,0,3.5,0,5.3c0,0.8,0,1.5,0,2.3
		c-1-0.4-2.1-0.7-3.3-0.7c-2.5,0-5,0-7.6,0c-3.2,0-6.4,0-9.5,0c-0.3,0-0.5,0-0.8,0c-1.4,0-2.7,0.4-4,1C1.8,61.5,0,65,0,68.3
		c0,1.9,0,3.7,0,5.6c0,3.7,0,7.3,0,11c0,2.6,0,5.1,0,7.7c0,0.1,0,0.3,0,0.4c0,1.5,1.3,2.9,2.8,2.8c1.5-0.1,2.8-1.2,2.8-2.8
		c0-2.9,0-5.7,0-8.6c0-4.4,0-8.9,0-13.3c0-1.1-0.1-2.2,0-3.2C5.8,67.4,5.9,67,6,66.6c0.1-0.3,0.3-0.6,0.5-0.8
		c0.2-0.3,0.5-0.5,0.7-0.7c0.2-0.1,0.4-0.2,0.6-0.3c0.2-0.1,0.4-0.1,0.6-0.2c0.6,0,1.3,0,1.9,0c1.5,0,2.9,0,4.4,0c3.3,0,6.6,0,10,0
		c0.8,0,1.6,0,2.4,0c0.2,0,0.4,0.1,0.6,0.2c0.2,0.1,0.4,0.2,0.6,0.3c0.3,0.2,0.5,0.5,0.7,0.7c0.2,0.3,0.3,0.5,0.5,0.8
		c0.1,0.4,0.2,0.8,0.3,1.1c0.1,0.9,0,1.8,0,2.7c0,1.9,0,3.9,0,5.8c0,4.5,0,9,0,13.5c0,1,0,2.1,0,3.1c0,1.5,1.3,2.9,2.8,2.8
		c0,0,0,0,0,0c0,0,0.1,0,0.1,0c1.5-0.1,2.8-1.2,2.8-2.8c0-1.4,0-2.9,0-4.3c0-3.5,0-6.9,0-10.4c0-4.2,0-8.3,0-12.5
		c0-3.5,0-7.1,0-10.6c0-1.6,0-3.2,0-4.9c0-0.2,0-0.4,0-0.6c0.1-0.4,0.2-0.8,0.3-1.1c0.1-0.3,0.3-0.6,0.5-0.8
		c0.2-0.3,0.5-0.5,0.7-0.7c0.2-0.1,0.4-0.2,0.6-0.3c0.2-0.1,0.4-0.1,0.6-0.2c0.8-0.1,1.6,0,2.4,0c1.8,0,3.6,0,5.5,0
		c4.1,0,8.3,0,12.4,0c0.9,0,1.9-0.1,2.9,0c0.2,0,0.5,0.1,0.7,0.2c0.2,0.1,0.4,0.2,0.6,0.3c0.3,0.2,0.5,0.5,0.7,0.7
		c0.2,0.3,0.3,0.5,0.5,0.8c0.1,0.4,0.2,0.7,0.3,1.1c0,0.5,0,1,0,1.6c0,1,0,2,0,3c0,3.4,0,6.8,0,10.2c0,4.2,0,8.3,0,12.5
		c0,3.6,0,7.2,0,10.8c0,1.8,0,3.5,0,5.3c0,0,0,0.1,0,0.1c0,1.5,1.3,2.9,2.8,2.8c0,0,0,0,0,0c0.1,0,0.1,0,0.2,0
		c1.5-0.1,2.8-1.2,2.8-2.8c0-2.1,0-4.3,0-6.4c0-3.3,0-6.6,0-9.9c0-0.8,0-1.7,0-2.5c0.1-0.3,0.2-0.6,0.3-0.9c0.1-0.3,0.3-0.5,0.5-0.8
		c0.2-0.2,0.4-0.4,0.5-0.5c0.2-0.2,0.5-0.3,0.8-0.4c0.2-0.1,0.4-0.1,0.6-0.2c0.7,0,1.3,0,2,0c1.5,0,2.9,0,4.4,0c3.3,0,6.6,0,10,0
		c0.8,0,1.6,0,2.4,0c0.2,0,0.4,0.1,0.6,0.2c0.3,0.1,0.5,0.3,0.8,0.4c0.2,0.2,0.4,0.4,0.5,0.5c0.2,0.3,0.3,0.5,0.5,0.8
		c0.1,0.3,0.2,0.6,0.3,1c0.1,0.7,0,1.4,0,2.1c0,1.4,0,2.9,0,4.3c0,3.4,0,6.7,0,10.1c0,0.8,0,1.6,0,2.4c0,1.5,1.3,2.9,2.8,2.8
		c1.5-0.1,2.8-1.2,2.8-2.8c0-1.7,0-3.4,0-5.1c0-3,0-6.1,0-9.1C100,76.7,100.1,74.5,99.7,72.5z"/>
	<path d="M45.5,18.8c5,0.2,9.1,4.3,9.3,9.3c0.1,1.3,0.6,2,1.6,2c1,0,1.6-0.7,1.6-2c0.1-2.7,1.2-5,3.2-6.8c1.8-1.6,3.9-2.4,6.2-2.5
		c1.1,0,1.8-0.6,1.9-1.6c0-0.9-0.6-1.6-1.7-1.7c-5.3,0-9.6-4.4-9.7-9.7c0-1-0.7-1.7-1.6-1.7c-0.9,0-1.5,0.7-1.6,1.6
		c0,0.1,0,0.3,0,0.4c-0.2,5-4.3,9-9.3,9.3c-1.3,0.1-2,0.6-2,1.6C43.5,18.2,44.2,18.8,45.5,18.8z M56.4,12.6c1.4,1.4,3,3.1,4.6,4.6
		c-1.5,1.5-3.1,3.1-4.6,4.6c-1.4-1.4-3-3.1-4.6-4.6C53.3,15.7,54.9,14.1,56.4,12.6z"/>
	<path d="M32.1,30.1c3.3,0.4,4.5,1.6,5,5c0.1,0.9,0.8,1.5,1.6,1.5c0.8,0,1.5-0.6,1.6-1.5c0.4-3.2,1.7-4.6,4.9-4.9
		c0.9-0.1,1.5-0.7,1.5-1.6c0-0.9-0.6-1.5-1.6-1.6c-3.1-0.3-4.5-1.7-4.9-5c-0.1-0.9-0.8-1.5-1.6-1.5c-0.8,0-1.5,0.6-1.6,1.5
		c-0.4,3.3-1.6,4.5-5,5c-0.9,0.1-1.5,0.8-1.5,1.6C30.5,29.4,31.2,30,32.1,30.1z M38.8,27.1c0.4,0.4,0.8,0.9,1.3,1.4
		c-0.5,0.4-1.1,0.8-1.7,1.3c-0.2-0.3-0.7-0.8-1.2-1.4C37.6,28.1,38.2,27.6,38.8,27.1z"/>
	<polygon points="46.1,66.8 48.4,66.8 48.4,76.6 52.9,76.6 52.9,63.4 46.1,63.4 	"/>
	<path d="M20.5,87.8c0.9-0.8,1.5-1.5,1.8-2.2c0.3-0.6,0.5-1.3,0.5-2c0-0.8-0.2-1.5-0.7-2.2c-0.5-0.6-1.1-1.1-1.9-1.5
		c-0.8-0.3-1.7-0.5-2.8-0.5c-1.4,0-2.5,0.3-3.5,0.8c-1,0.5-1.7,1.3-2.2,2.2l3.4,1.7c0.2-0.4,0.5-0.7,0.8-0.9
		c0.4-0.2,0.7-0.3,1.1-0.3c0.4,0,0.7,0.1,1,0.3c0.2,0.2,0.3,0.4,0.3,0.8c0,0.3-0.1,0.5-0.2,0.8c-0.1,0.3-0.4,0.6-0.8,1l-4.8,4.4V93
		H23v-3.5h-4.5L20.5,87.8z"/>
	<path d="M84.3,85l2.5-2.5v-2.7h-9.8v3.4h4.7l-1.9,2v2.7h1.8c1,0,1.6,0.3,1.6,0.9c0,0.3-0.2,0.6-0.5,0.8c-0.3,0.2-0.7,0.3-1.2,0.3
		c-0.6,0-1.2-0.1-1.8-0.2c-0.6-0.2-1.2-0.4-1.7-0.7l-1.5,3.3c0.7,0.4,1.5,0.7,2.4,0.9c0.9,0.2,1.9,0.3,2.8,0.3
		c1.3,0,2.5-0.2,3.4-0.6c0.9-0.4,1.6-1,2-1.7s0.7-1.4,0.7-2.2c0-0.9-0.3-1.7-0.8-2.4C86.1,85.7,85.3,85.3,84.3,85z"/>
</g>
</svg>
