<?xml version="1.0" encoding="utf-8"?>
<!-- Generator: Adobe Illustrator 25.2.1, SVG Export Plug-In . SVG Version: 6.00 Build 0)  -->
<svg version="1.1" id="Layer_1" xmlns="http://www.w3.org/2000/svg" xmlns:xlink="http://www.w3.org/1999/xlink" x="0px" y="0px"
	 viewBox="0 0 100 100" style="enable-background:new 0 0 100 100;" xml:space="preserve">
<path id="icon-down" d="M75.9,98.1c2.1-2.5,2.1-6.3-0.2-8.6c-8.5-8.7-38.8-39.3-38.8-39.3s30.3-30.5,38.9-39.6
	c2.4-2.6,2.3-6.6-0.3-9c-0.1-0.1-0.1-0.1-0.2-0.2l0,0c-2.4-2.1-6-1.9-8.1,0.5c0,0,0,0,0,0c-8.6,9.1-31,31.2-41.4,42.3
	c-1.4,1.5-2.8,3.1-3.3,5.2v1.8c0.4,1.6,1.2,3,2.3,4.1c10.8,11,33.1,33.5,42.6,43c2.3,2.3,6,2.3,8.2,0.1
	C75.7,98.2,75.8,98.2,75.9,98.1L75.9,98.1z"/>
</svg>
