<!-- Generated by IcoMoon.io -->
<svg version="1.1" xmlns="http://www.w3.org/2000/svg" width="32" height="32" viewBox="0 0 32 32">
<title>quest</title>
<path d="M16.064 21.76c-1.088 0-1.984 0.864-1.984 1.952s0.864 1.984 1.984 1.984c1.088 0 1.984-0.864 1.984-1.984-0.032-1.088-0.896-1.952-1.984-1.952z"></path>
<path d="M14.816 6.304c-2.656 0.48-4.736 3.040-4.672 5.792 0 0.64 0.416 1.184 1.024 1.376 0.96 0.32 1.888-0.448 1.92-1.504 0.032-1.216 0.64-2.080 1.728-2.56s2.112-0.32 3.008 0.448c0.896 0.8 1.216 1.792 0.928 2.976-0.32 1.28-1.408 2.144-2.72 2.176-1.216 0.032-1.984 0.864-1.984 2.080 0 0.32 0 0.608 0 0.928 0.032 0.96 0.768 1.792 1.696 1.888 0.992 0.128 1.888-0.512 2.112-1.504 0.064-0.256 0.064-0.512 0.096-0.8 0.096-0.032 0.192-0.096 0.32-0.128 2.464-1.056 3.904-3.744 3.456-6.368-0.672-3.328-3.648-5.408-6.912-4.8z"></path>
<path d="M16 0.16c-8.736 0-15.84 7.104-15.84 15.84s7.104 15.84 15.84 15.84 15.84-7.104 15.84-15.84-7.104-15.84-15.84-15.84zM16 28.128c-6.688 0-12.128-5.44-12.128-12.128s5.44-12.128 12.128-12.128 12.128 5.44 12.128 12.128-5.44 12.128-12.128 12.128z"></path>
</svg>
