<!-- Generated by IcoMoon.io -->
<svg version="1.1" xmlns="http://www.w3.org/2000/svg" width="32" height="32" viewBox="0 0 32 32">
<title>search</title>
<path d="M22.784 25.696c0.096 0.096 0.192 0.224 0.256 0.32 1.76 1.76 3.552 3.552 5.312 5.312 0.576 0.576 1.28 0.8 2.080 0.576 1.568-0.416 2.048-2.336 0.928-3.488-1.536-1.568-3.104-3.136-4.672-4.672-0.32-0.32-0.64-0.64-0.96-0.928 4.832-6.496 3.168-15.456-2.976-20-5.888-4.352-13.888-3.584-18.976 1.792-4.832 5.088-5.024 13.312-0.512 18.72 4.768 5.76 13.248 6.976 19.52 2.368zM14.272 4.192c5.568 0 10.080 4.544 10.080 10.144-0.032 5.536-4.544 10.048-10.112 10.016-5.568 0-10.080-4.544-10.080-10.112 0.032-5.568 4.544-10.080 10.112-10.048z"></path>
</svg>
