<?xml version="1.0" encoding="utf-8"?>
<!-- Generator: Adobe Illustrator 25.2.0, SVG Export Plug-In . SVG Version: 6.00 Build 0)  -->
<svg version="1.1" id="Layer_1" xmlns="http://www.w3.org/2000/svg" xmlns:xlink="http://www.w3.org/1999/xlink" x="0px" y="0px"
	 viewBox="0 0 100 100" style="enable-background:new 0 0 100 100;" xml:space="preserve">
<style type="text/css">
	.st0{fill:#040403;}
</style>
<g>
	<path class="st0" d="M49.6,49.4c2.7,1.1,5.7,1.9,8.7,1.9s6-0.6,8.7-1.9c5.4-2.4,9.9-6.9,12.3-12.3c1.1-2.7,1.9-5.7,1.9-8.9
		c0-3-0.7-5.9-1.9-8.7C76.9,14.1,72.4,9.8,67,7.3c-2.7-1.3-5.7-1.9-8.7-1.9s-6,0.6-8.7,1.9c-5.6,2.4-9.9,6.9-12.3,12.3
		c-1.1,2.7-1.9,5.7-1.9,8.9c0,3,0.6,6,1.9,8.7C39.8,42.7,44.2,47,49.6,49.4z M58.4,46.7c-2.7,0-5.6-0.6-8-1.7l0.7-1.3
		c0.9-1.4,1.9-2.9,2.7-4.3c0.1-0.1,0.4-0.3,0.7-0.3c1.4,0,2.6,0,3.9,0c1.4,0,2.7,0,4,0c0.3,0,0.6,0.1,0.7,0.4
		c0.9,1.4,1.7,2.9,2.6,4.3l0.7,1.1C63.8,46.1,61.1,46.7,58.4,46.7z M75.8,34.2c-1,3.3-3,6.1-5.6,8.3l-0.7-1.1
		c-1-1.6-1.9-3.1-2.7-4.7c-0.1-0.3-0.1-0.6,0-0.9c0.7-2.3,1.6-4.9,2.4-7.3c0.1-0.3,0.4-0.6,0.7-0.7c1.6-0.4,3.3-0.9,4.9-1.3l1.6-0.4
		C76.9,28.7,76.7,31.5,75.8,34.2z M61.2,11.9c0.1-0.6,0.1-1,0.1-1.6c3.1,0.4,6.1,1.7,8.6,3.7c2.4,1.9,4.3,4.4,5.3,7.3l-1.4,0.4
		c-1.7,0.4-3.4,0.9-5.1,1.4h-0.1c-0.3,0-0.6-0.1-0.7-0.3c-1.9-1.4-3.9-2.9-6.1-4.4c-0.3-0.1-0.4-0.4-0.4-0.7
		C61.2,15.8,61.2,13.8,61.2,11.9z M59.6,22.5c1.6,1.1,3.3,2.4,5,3.6c0.1,0.1,0.3,0.4,0.3,0.7c-0.7,2.4-1.4,4.7-2.3,7
		c-0.1,0.3-0.4,0.4-0.7,0.6c-1.1,0-2.4,0-3.7,0c-1.1,0-2.4,0-3.7,0c-0.3,0-0.6-0.3-0.7-0.6c-0.7-2.3-1.6-4.6-2.3-7
		c0-0.3,0-0.6,0.3-0.9c1.7-1.3,3.3-2.4,5-3.7l1.4-0.7L59.6,22.5z M47.9,13.2c2.6-1.9,5.7-2.9,9-3c0,0.4,0,0.9,0,1.3c0,1.6,0,3.3,0,5
		c0,0.1-0.3,0.4-0.4,0.6c-2.3,1.7-5,3.6-7.6,5.6C48.6,22.8,48.3,23,48,23h-0.1c-1.6-0.4-3-1-4.6-1.6h-0.1L41.8,21
		C42.9,17.8,45.1,15.1,47.9,13.2z M40.2,25.2l1.4,0.4c1.7,0.6,3.3,1.1,4.9,1.6c0.3,0.1,0.4,0.4,0.6,0.7c0.9,2.7,1.9,5.6,2.7,8.1
		c0.1,0.6,0,0.9-0.1,1.1c-0.9,1.3-1.6,2.6-2.4,3.9l-0.9,1.3C41.5,38.1,39.2,31.7,40.2,25.2z"/>
	<path class="st0" d="M99.4,30.4c-0.2-0.3-0.5-0.6-0.8-0.7c-0.4-0.3-0.9-0.4-1.4-0.4c-3.3-0.4-6.5-0.8-9.8-1.1
		c-0.5-0.1-0.9-0.1-1.4-0.2c-0.7-0.1-1.5,0.4-2,0.8c-0.5,0.5-0.9,1.3-0.8,2c0,0.7,0.3,1.5,0.8,2c0.2,0.1,0.4,0.3,0.6,0.4
		c0.4,0.3,0.9,0.4,1.4,0.4c2.5,0.3,5.1,0.6,7.6,0.9c0,0.1-0.1,0.3-0.1,0.4c-0.7,2.8-1.4,5.7-2.1,8.5c-0.9,3.4-1.7,6.9-2.6,10.3
		c-0.7,3-1.5,5.9-2.2,8.9c-0.2,0.8-0.4,1.5-0.6,2.3c-1.3,0-2.5,0-3.8,0c-2.1,0-4.3,0-6.4,0c-2.6,0-5.3,0-7.9,0c-2.9,0-5.8,0-8.6,0
		c-2.9,0-5.8,0-8.7,0c-2.7,0-5.4,0-8.1,0c-2.3,0-4.6,0-6.9,0c-1.6,0-3.3,0-4.9,0h-0.1c-0.1-0.7-0.2-1.3-0.4-2
		c-0.6-3.3-1.2-6.7-1.9-10c-0.7-3.7-1.4-7.3-2-11c-0.7-3.7-1.4-7.4-2.1-11.1c-0.3-1.6-0.6-3.1-0.9-4.7c2,0.2,4.1,0.5,6.1,0.7
		c0.4,0.1,0.9,0.1,1.3,0.2c0.7,0.1,1.5-0.4,2-0.8c0.5-0.5,0.9-1.3,0.8-2c0-0.7-0.3-1.5-0.8-2c-0.2-0.1-0.4-0.3-0.6-0.4
		c-0.4-0.3-0.9-0.4-1.4-0.4c-2.8-0.3-5.7-0.7-8.5-1c-0.5-2.9-1.1-5.7-1.6-8.6c-0.4-2.1-0.8-4.2-1.2-6.2c-0.2-1-0.3-2-0.6-3V2.5
		c-0.1-0.2-0.2-0.5-0.3-0.7c-0.2-0.3-0.4-0.6-0.7-0.8c-0.5-0.4-1.1-0.6-1.7-0.6c-3.9,0-7.8,0-11.7,0c-0.5,0-1.1,0-1.6,0
		C1.4,0.5-0.1,1.8,0,3.3s1.2,2.8,2.8,2.8c3.7,0,7.3,0,11,0c0.3,1.8,0.7,3.7,1,5.5c0.5,2.7,1,5.5,1.5,8.2c0.6,3.3,1.2,6.7,1.9,10
		c0.7,3.7,1.4,7.3,2,11c0.7,3.7,1.4,7.4,2.1,11.1c0.6,3.4,1.3,6.9,1.9,10.3c0.5,2.9,1.1,5.8,1.6,8.8c0.3,1.8,0.7,3.6,1,5.4
		c-0.8,0.1-1.7,0.2-2.5,0.4c-2.1,0.6-4.2,1.9-5.6,3.6c-0.9,1.1-1.5,2.1-2,3.4C16.3,84.9,16,86,16,87.2c-0.2,2.3,0.4,4.7,1.6,6.7
		c1.2,1.9,2.9,3.6,4.9,4.5c1.3,0.6,2.5,0.9,3.9,1.1c1.2,0.1,2.4,0,3.6-0.2c2.2-0.4,4.3-1.6,5.8-3.2c1.6-1.6,2.7-3.7,3.1-6
		c0.1-0.7,0.2-1.4,0.2-2.1c0-1.9-0.5-3.9-1.4-5.5c3.3,0,6.6,0,9.8,0c4.9,0,9.8,0,14.7,0c4.2,0,8.4,0,12.7,0c0.3,0,0.6,0,0.9,0
		c-0.2,0.4-0.5,0.9-0.7,1.4c-0.4,1.1-0.7,2.2-0.7,3.4C74.2,89.6,74.8,92,76,94c1.2,1.9,2.9,3.6,4.9,4.5c1.3,0.6,2.5,0.9,3.9,1.1
		c1.2,0.1,2.4,0,3.6-0.2c2.2-0.4,4.3-1.6,5.8-3.2c1.6-1.6,2.7-3.7,3.1-6c0.1-0.7,0.2-1.4,0.2-2.1c0-2.3-0.7-4.7-2-6.5
		c-1.5-2.1-3.4-3.5-5.8-4.4c-2.2-0.8-4.7-0.8-6.9-0.2c-0.2,0-1.2-0.1-1.6-0.1c-1.7,0-3.4,0-5.1,0c-4,0-8.1,0-12.1,0
		c-4.9,0-9.8,0-14.7,0c-4.2,0-8.4,0-12.7,0c-1.3,0-2.6,0-3.9,0c-0.3-1.8-0.7-3.7-1-5.5c0-0.2-0.1-0.4-0.1-0.6c0.9,0,1.7,0,2.6,0
		c2.1,0,4.3,0,6.4,0c2.6,0,5.3,0,7.9,0c2.9,0,5.8,0,8.6,0c2.9,0,5.8,0,8.7,0c2.7,0,5.4,0,8.1,0c2.3,0,4.6,0,6.9,0c1.6,0,3.3,0,4.9,0
		c0.8,0,1.6,0,2.3,0h0.1c1.2,0,2.4-0.9,2.7-2.1c0.3-1.2,0.6-2.4,0.9-3.6c0.7-2.8,1.4-5.7,2.1-8.5c0.9-3.4,1.7-6.9,2.6-10.3
		c0.7-3,1.5-5.9,2.2-8.9c0.4-1.4,0.7-2.9,1.1-4.3c0,0,0,0,0-0.1C100.1,32,100,31.1,99.4,30.4z M80.1,87.2c0.1-0.5,0.2-1,0.4-1.5
		c0.2-0.5,0.5-0.9,0.8-1.3s0.7-0.7,1.1-1.1c0.4-0.3,0.9-0.6,1.3-0.8c0.5-0.2,1-0.3,1.5-0.4c0.5,0,1.1,0,1.6,0c0.5,0.1,1,0.2,1.5,0.4
		c0.5,0.2,0.9,0.5,1.3,0.8s0.7,0.7,1.1,1.1c0.3,0.4,0.6,0.9,0.8,1.3c0.2,0.5,0.3,1,0.4,1.5c0,0.3,0,0.5,0,0.8s0,0.5,0,0.8
		c-0.1,0.5-0.2,1-0.4,1.5c-0.2,0.5-0.5,0.9-0.8,1.3s-0.7,0.7-1.1,1.1c-0.4,0.3-0.9,0.6-1.3,0.8c-0.5,0.2-1,0.3-1.5,0.4
		c-0.5,0-1.1,0-1.6,0c-0.5-0.1-1-0.2-1.5-0.4c-0.5-0.2-0.9-0.5-1.3-0.8s-0.7-0.7-1.1-1.1c-0.3-0.4-0.6-0.9-0.8-1.3
		c-0.2-0.5-0.3-1-0.4-1.5C80.1,88.2,80.1,87.7,80.1,87.2z M32.3,84.3c0.3,0.4,0.6,0.9,0.8,1.3c0.2,0.5,0.3,1,0.4,1.5
		c0,0.3,0,0.5,0,0.8s0,0.5,0,0.8c-0.1,0.5-0.2,1-0.4,1.5s-0.5,0.9-0.8,1.3s-0.7,0.7-1.1,1.1c-0.4,0.3-0.9,0.6-1.3,0.8
		c-0.5,0.2-1,0.3-1.5,0.4c-0.5,0-1.1,0-1.6,0c-0.5-0.1-1-0.2-1.5-0.4c-0.5-0.2-0.9-0.5-1.3-0.8s-0.7-0.7-1.1-1.1
		c-0.3-0.4-0.6-0.9-0.8-1.3c-0.2-0.5-0.3-1-0.4-1.5c0-0.5,0-1.1,0-1.6c0.1-0.5,0.2-1,0.4-1.5c0.2-0.5,0.5-0.9,0.8-1.3
		s0.7-0.7,1.1-1.1c0.4-0.3,0.9-0.6,1.3-0.8c0.5-0.2,1-0.3,1.5-0.4c0.5,0,1.1,0,1.6,0c0.5,0.1,1,0.2,1.5,0.4c0.5,0.2,0.9,0.5,1.3,0.8
		C31.6,83.6,31.9,84,32.3,84.3z"/>
</g>
</svg>
