<?xml version="1.0" encoding="utf-8"?>
<!-- Generator: Adobe Illustrator 25.2.0, SVG Export Plug-In . SVG Version: 6.00 Build 0)  -->
<svg version="1.1" id="Layer_1" xmlns="http://www.w3.org/2000/svg" xmlns:xlink="http://www.w3.org/1999/xlink" x="0px" y="0px"
	 viewBox="0 0 100 100" style="enable-background:new 0 0 100 100;" xml:space="preserve">
<path d="M96.7,36.3l-31.3-2.9L52.6,3.7c-0.4-1-1.7-1.4-2.6-1.4c0,0,0,0,0,0c-0.9,0-2.2,0.4-2.6,1.4L34.5,33.5L3.3,36.3
	c-1.4,0.1-2.7,1.2-3.2,2.6c-0.2,0.7-0.3,1.8,0.8,2.7l24.1,21.2l-7,30.8c-0.3,1.3,0.2,2.6,1.3,3.4c0.5,0.3,1.7,1,3.2,0.2l27.4-16.3
	l26.5,15.8l0.1,0.1c0.3,0.3,0.7,0.5,1.2,0.6l0.2,0c1.2,0.4,2.1,0,2.6-0.5l0,0c0.3-0.2,0.6-0.5,0.8-0.9l0-0.1
	c0.5-0.7,0.6-1.5,0.4-2.5L75,62.7l24.1-21.1c1.1-0.9,1-2,0.8-2.7C99.4,37.6,98.1,36.5,96.7,36.3z M69.3,59.4
	c-1.2,1.1-1.1,2.2-0.8,2.9l0.1,0.1l0,0.1l5.7,25.5L51.6,74.6c-0.9-0.6-2.2-0.6-3.1,0L25.7,88.1l5.8-25.5c0.2-0.9,0.1-2.3-0.7-3
	L10.7,41.9l25.9-2.3c1.1-0.1,2.4-0.5,2.7-1.4L50,13.3l10.6,24.8c0.4,0.9,1.7,1.3,2.7,1.4l26,2.4L69.3,59.4z"/>
</svg>
