<!-- Generated by IcoMoon.io -->
<svg version="1.1" xmlns="http://www.w3.org/2000/svg" width="32" height="32" viewBox="0 0 32 32">
<title>t-1</title>
<path d="M12.768 10.624c-2.304 2.528-6.592 2.592-9.632 1.984-0.672-0.128-0.96 0.896-0.288 1.024 3.424 0.672 8.096 0.544 10.656-2.272 0.48-0.48-0.288-1.248-0.736-0.736z"></path>
<path d="M32 21.44c-0.192-3.648-2.496-6.912-5.856-8.384-0.608-0.288-1.152 0.64-0.544 0.928 2.592 1.152 4.544 3.392 5.152 6.208 0.096 0.512 0.16 1.056 0.192 1.568-0.96 0.544-1.92 1.12-2.88 1.664-0.64-0.256-1.28-0.48-1.92-0.736-0.416-1.216-0.832-2.4-1.248-3.616-0.032-0.064-0.032-0.096-0.064-0.128-0.064-0.16-0.224-0.256-0.448-0.256-1.312 0-2.624 0-3.904 0-0.256 0-0.416 0.16-0.512 0.384-0.48 1.216-0.928 2.4-1.408 3.616-0.704 0.256-1.408 0.512-2.112 0.736-0.896-0.544-1.792-1.088-2.72-1.664 0.064-1.728 0.608-3.424 1.632-4.896 0.384-0.576-0.544-1.088-0.928-0.544-1.184 1.696-1.728 3.616-1.728 5.504-0.064 0.16-0.064 0.32 0 0.48 0.16 3.808 2.528 7.424 6.368 8.768 0.096 0.064 0.224 0.096 0.32 0.128 0.192 0.064 0.416 0.128 0.608 0.16 6.208 1.536 12.352-3.52 12-9.92zM20.8 19.744c1.056 0 2.112 0 3.168 0 0.384 1.12 0.768 2.24 1.184 3.36-0.864 0.672-1.728 1.344-2.592 2.016-0.032 0-0.032 0-0.064 0-1.024-0.672-2.016-1.344-3.040-2.016 0.48-1.152 0.896-2.24 1.344-3.36zM14.976 26.528c-0.032-0.032-0.032-0.064-0.064-0.096-0.64-1.056-1.024-2.208-1.184-3.392 0.64 0.384 1.312 0.8 1.952 1.184-0.224 0.768-0.448 1.536-0.704 2.304zM19.36 30.016c-1.376-0.48-2.624-1.312-3.616-2.432 0.32-1.056 0.672-2.112 0.992-3.168 0.608-0.224 1.216-0.448 1.824-0.64 1.088 0.736 2.176 1.44 3.264 2.176 0 0.704 0 1.408 0 2.112 0 0 0 0-0.032 0-0.768 0.672-1.6 1.312-2.432 1.952zM20.64 30.368c0.512-0.416 1.056-0.832 1.568-1.248 0.576 0.416 1.152 0.832 1.728 1.28-1.088 0.192-2.208 0.16-3.296-0.032zM28.64 27.808c-0.96 1.056-2.144 1.792-3.392 2.208-0.768-0.576-1.568-1.152-2.336-1.728 0-0.704 0-1.44 0-2.144 0 0 0 0 0.032 0 1.024-0.8 2.048-1.6 3.072-2.4 0.544 0.224 1.088 0.416 1.664 0.64 0.384 1.088 0.768 2.144 1.12 3.232-0.064 0.064-0.096 0.128-0.16 0.192zM29.568 26.624c-0.288-0.8-0.544-1.568-0.832-2.368 0.704-0.416 1.408-0.832 2.112-1.216-0.16 1.248-0.576 2.496-1.28 3.584z"></path>
<path d="M11.328 15.776c0-0.064-0.032-0.096-0.032-0.16 1.568-0.32 3.136-0.64 4.704-0.96 0 0.064 0 0.096 0.032 0.16l0.032 0.192c0.096 0.576 0.672 0.992 1.28 0.864l0.48-0.096c0.576-0.096 0.992-0.672 0.864-1.28l-0.032-0.192c0-0.064-0.032-0.128-0.064-0.192 0.64-0.128 1.248-0.256 1.888-0.384 0 0.064 0 0.096 0.032 0.16l0.032 0.096c0.096 0.576 0.64 0.928 1.216 0.832l0.576-0.096c0.576-0.096 0.928-0.64 0.832-1.216l-0.032-0.096c0-0.064-0.032-0.128-0.032-0.16 0.416-0.064 0.864-0.16 1.248-0.288 1.664-0.544 2.048-3.040 0.736-4.128-0.928-0.768-2.144-0.64-3.264-0.704 0.032-0.064 0.032-0.128 0.064-0.16 0.224-0.64-0.8-0.928-1.024-0.288-0.032 0.128-0.096 0.224-0.128 0.352-0.48-0.064-0.992-0.16-1.472-0.224 0.032-0.128 0.096-0.224 0.128-0.352 0.224-0.64-0.8-0.928-1.024-0.288-0.064 0.16-0.096 0.288-0.16 0.448-0.416-0.096-0.832-0.192-1.28-0.288 0.032-0.128 0.096-0.256 0.128-0.384 0.224-0.64-0.8-0.928-1.024-0.288-0.064 0.128-0.096 0.256-0.16 0.384-0.416-0.128-0.832-0.224-1.248-0.352 0.032-0.096 0.064-0.192 0.096-0.288 0.224-0.64-0.8-0.928-1.024-0.288-0.032 0.064-0.064 0.16-0.096 0.224-0.544-0.192-1.056-0.352-1.6-0.544-0.032-0.032-0.096-0.032-0.16-0.064-2.080-0.384-2.496-3.136-2.464-4.832 0.032-0.672-1.056-0.672-1.056 0-0.032 1.12 0.16 2.56 0.704 3.712-0.352 0.352-0.64 0.8-0.768 1.312-0.288 1.184 0.448 2.112 1.344 2.784-0.352 0.352-0.768 0.672-1.216 0.896-1.536 0.768-4.032 0.512-5.376-0.704 0.512-2.624 0.224-5.472-0.608-7.968-0.16-0.672-1.216-0.384-0.992 0.256 0.8 2.368 1.088 5.12 0.544 7.616-0.864 0.896-1.6 2.112-1.856 3.36-0.192 0.992-0.064 2.016 0.448 2.912 0.48 0.8 1.76 2.208 2.784 2.176 0.288 0 0.576-0.064 0.896-0.128 0 0.032 0 0.064 0 0.096l0.064 0.288c0.128 0.608 0.704 1.024 1.312 0.896l0.416-0.064c0.608-0.128 1.024-0.704 0.896-1.312l-0.064-0.288c0-0.064-0.032-0.096-0.032-0.16 0.64-0.128 1.248-0.256 1.888-0.384 0 0.032 0 0.096 0 0.128l0.032 0.192c0.096 0.576 0.672 0.96 1.248 0.864l0.512-0.096c0.576-0.096 0.96-0.672 0.864-1.248l-0.032-0.256zM9.376 5.984c0.064-0.16 0.16-0.32 0.256-0.448 0.352 0.448 0.832 0.8 1.376 1.024-0.192 0.448-0.416 0.896-0.736 1.312-0.608-0.448-1.216-1.088-0.896-1.888zM3.712 16.064c-0.128 0.032-0.32 0.096-0.48 0.128 0-0.064-0.224-0.224-0.16-0.16-0.16-0.192-0.48-0.32-0.672-0.448-0.288-0.224-0.544-0.48-0.736-0.768-0.352-0.48-0.576-1.024-0.576-1.6-0.064-1.216 0.608-2.464 1.44-3.392 1.6 1.344 4.32 1.632 6.144 0.864 0.768-0.32 1.44-0.864 2.016-1.504 0.16-0.064 0.256-0.224 0.32-0.384 0.448-0.576 0.8-1.216 1.056-1.888 0.416 0.128 0.8 0.288 1.216 0.416-0.096 0.224-0.16 0.48-0.256 0.704-0.224 0.64 0.8 0.928 1.024 0.288 0.096-0.224 0.16-0.448 0.256-0.672 0.416 0.128 0.832 0.256 1.248 0.352-0.064 0.192-0.128 0.384-0.192 0.576-0.224 0.64 0.8 0.928 1.024 0.288 0.064-0.192 0.128-0.384 0.224-0.576 0.416 0.096 0.832 0.192 1.28 0.288-0.064 0.16-0.128 0.352-0.192 0.512-0.224 0.64 0.8 0.928 1.024 0.288 0.064-0.192 0.16-0.384 0.224-0.608 0.32 0.064 0.64 0.128 0.96 0.16 0.16 0.032 0.352 0.064 0.512 0.096-0.064 0.192-0.16 0.384-0.224 0.608-0.224 0.64 0.8 0.928 1.024 0.288 0.096-0.256 0.192-0.48 0.256-0.736 0.384 0.032 0.768 0.064 1.12 0.032 0.736-0.032 1.856 0.032 2.144 0.864 0.192 0.544 0.096 1.184-0.32 1.6-0.096 0.096-0.512 0.32-0.352 0.256-0.608 0.192-1.28 0.256-1.888 0.384-6.176 1.248-12.32 2.496-18.464 3.744z"></path>
</svg>
