<?xml version="1.0" encoding="utf-8"?>
<!-- Generator: Adobe Illustrator 25.2.0, SVG Export Plug-In . SVG Version: 6.00 Build 0)  -->
<svg version="1.1" id="Layer_1" xmlns="http://www.w3.org/2000/svg" xmlns:xlink="http://www.w3.org/1999/xlink" x="0px" y="0px"
	 viewBox="0 0 100 100" style="enable-background:new 0 0 100 100;" xml:space="preserve">
<g>
	<path d="M86.5,77.2c-3.2-5.9-7.9-10.9-13.4-14.7c-3.1-2.1-6.5-3.7-10-4.9c0,0,0,0,0,0c0,0,0,0,0,0c0.8-0.6,1.6-1.3,2.3-2
		c2.4-2.3,4.3-5.1,5.8-8c1.5-3,2.7-6.2,3.2-9.6c0.3-1.7,0.5-3.5,0.5-5.2c0-4.8-0.3-9.8-1.5-14.5c-1.2-4.7-3.4-9.4-7.1-12.7
		c-2.1-1.9-4.6-3.3-7.3-4.2C56.2,0.4,53,0,49.9,0c-3.1,0-6.3,0.4-9.2,1.5c-2.6,1-5,2.3-7.1,4.2c-3.7,3.3-5.8,8-7,12.8
		c-1.2,4.7-1.5,9.7-1.5,14.6c0,3.4,0.7,6.8,1.8,10c1.1,3.1,2.6,6.1,4.6,8.8c1.6,2.2,3.4,4.1,5.5,5.7c-6.3,2.1-12.1,5.7-16.7,10.4
		c-4.7,4.8-8.2,10.8-10.1,17.3C9,89.1,8.5,93,8.4,96.9c0,1.5,1.3,2.8,2.8,2.8c0.7,0,1.4,0,2.1,0c1.9,0,3.8,0,5.6,0
		c2.8,0,5.5,0,8.3,0c3.4,0,6.8,0,10.2,0c3.7,0,7.4,0,11.1,0c3.8,0,7.5,0,11.3,0c3.5,0,7,0,10.5,0c2.9,0,5.9,0,8.8,0
		c2.1,0,4.3,0,6.4,0c1,0,2,0,3,0c0,0,0.1,0,0.1,0c1.5,0,2.8-1.3,2.8-2.8C91.6,90.2,89.8,83.3,86.5,77.2z M59.4,63.7
		c-0.1,0.8-0.4,1.6-0.7,2.4c-0.3,0.7-0.7,1.4-1.2,2.1c-0.5,0.6-1.1,1.2-1.7,1.7c-0.7,0.5-1.3,0.9-2.1,1.2c-0.8,0.3-1.6,0.5-2.4,0.7
		c-0.8,0.1-1.7,0.1-2.5,0c-0.8-0.1-1.6-0.4-2.4-0.7c-0.7-0.3-1.4-0.7-2.1-1.2c-0.6-0.5-1.2-1.1-1.7-1.7c-0.5-0.7-0.9-1.3-1.2-2.1
		c-0.3-0.8-0.5-1.6-0.7-2.4c-0.1-0.9-0.1-1.7,0-2.6c0,0,0-0.1,0-0.1c0-0.3,0.1-0.6,0.1-0.8c0.8,0.4,1.6,0.7,2.4,1
		c1.5,0.6,3.1,0.9,4.7,1.1c4,0.5,7.9-0.5,11.4-2.3c0,0.3,0,0.5,0,0.7c0,0.1,0,0.2,0,0.3c0,0,0,0,0,0C59.5,61.9,59.5,62.8,59.4,63.7z
		 M61.8,9c1,0.8,1.9,1.7,2.6,2.7c0.9,1.2,1.7,2.6,2.3,4c1,2.5,1.6,5.1,2,7.7c0,0,0,0,0,0c0,0-0.1,0-0.1,0c0,0,0,0-0.1,0c0,0,0,0,0,0
		c0,0,0,0,0,0c0,0-0.1,0-0.1,0c-0.1,0-0.2,0-0.4-0.1c-0.2-0.1-0.5-0.1-0.7-0.2c-0.1,0-0.2-0.1-0.3-0.1c0,0-0.1,0-0.1,0
		c-0.2-0.1-0.4-0.2-0.6-0.3c-0.4-0.2-0.8-0.5-1.2-0.8c0,0,0.1,0,0.1,0.1c0,0-0.1-0.1-0.1-0.1c-0.1-0.1-0.2-0.2-0.3-0.2
		c-0.2-0.2-0.4-0.3-0.6-0.5c-0.3-0.4-0.7-0.7-1-1.1c0,0,0,0-0.1-0.1c-0.1-0.1-0.1-0.2-0.2-0.2c-0.2-0.2-0.3-0.5-0.5-0.7
		c-0.6-0.9-1.1-1.8-1.5-2.7c-0.1-0.2-0.2-0.4-0.3-0.6c-0.1-0.1-0.1-0.2-0.2-0.3c0-0.1,0-0.1-0.1-0.2c0,0,0,0,0,0
		c-0.2-0.4-0.4-0.9-0.5-1.3c-0.6-1.6-1.1-3.2-1.5-4.9c-0.1-0.6-0.3-1.3-0.4-1.9c0.1,0,0.2,0.1,0.3,0.1C59.6,7.7,60.7,8.3,61.8,9z
		 M33.4,15.7c0.6-1.4,1.4-2.8,2.3-4c0.8-1,1.7-1.9,2.6-2.7c1-0.8,2.1-1.4,3.3-1.9c1.5-0.6,3.1-1,4.7-1.2c2.4-0.3,4.9-0.3,7.3,0
		c0.6,0.1,1.2,0.2,1.7,0.3c0,0.1-0.1,0.2-0.1,0.3c-0.2,1.2-0.5,2.3-0.9,3.5c-0.2,0.5-0.3,1.1-0.5,1.6c-0.2,0.5-0.3,1-0.6,1.5
		c0.2-0.3,0,0,0,0.1c-0.1,0.1-0.1,0.2-0.2,0.3c-0.1,0.2-0.2,0.5-0.3,0.7c-0.2,0.4-0.4,0.9-0.7,1.3c-0.4,0.8-0.9,1.6-1.5,2.3
		c-0.1,0.1-0.1,0.2-0.2,0.3c0,0,0,0,0,0c-0.1,0.2-0.3,0.3-0.4,0.5c-0.3,0.3-0.5,0.6-0.8,0.9c-0.5,0.6-1.1,1.1-1.7,1.6
		c-0.1,0.1-0.3,0.2-0.4,0.3c0,0,0,0,0,0c-0.1,0.1-0.2,0.1-0.2,0.2c-0.3,0.2-0.6,0.4-0.9,0.6c-0.6,0.4-1.2,0.8-1.9,1.1
		c-0.3,0.2-0.6,0.3-1,0.4c0,0-0.1,0-0.1,0.1c0,0,0,0,0,0c-0.2,0.1-0.3,0.1-0.5,0.2c-0.6,0.2-1.2,0.4-1.9,0.6
		c-0.6,0.2-1.2,0.3-1.9,0.4c-0.3,0.1-0.6,0.1-0.9,0.2c-0.1,0-0.2,0-0.4,0.1c-0.1,0-0.1,0-0.2,0c-2,0.2-4.1,0.2-6.1,0c0,0,0,0,0,0
		c0-0.5,0.1-0.9,0.2-1.4C31.6,21.2,32.3,18.4,33.4,15.7z M32.9,43c-0.9-2.2-1.6-4.6-1.9-7c-0.3-2.6-0.3-5.3-0.1-7.9
		c1.9,0.2,3.8,0.2,5.6,0.1c2.8-0.3,5.6-0.9,8.2-2.1c2.9-1.3,5.5-3.3,7.6-5.8c1.9-2.3,3.3-5,4.4-7.8c0.2,0.6,0.4,1.1,0.6,1.7
		c1.4,4,3.6,8.4,7.3,10.7c1.4,0.9,3,1.3,4.6,1.4c0.2,2.2,0.2,4.3,0.2,6.5c0,1.1-0.1,2.1-0.2,3.2c-0.4,2.4-1,4.8-1.9,7
		c-1,2.2-2.1,4.2-3.6,6.1c-1.2,1.5-2.6,2.9-4.1,4.2c-1.2,0.9-2.6,1.7-4,2.3c-1.2,0.5-2.4,0.8-3.7,1c-1.2,0.1-2.4,0.1-3.6,0
		c-1.3-0.2-2.5-0.6-3.7-1c-1.4-0.6-2.7-1.4-3.9-2.3c-1.5-1.2-2.9-2.6-4.1-4.1C35,47.2,33.8,45.2,32.9,43z M81,94.3
		c-2.8,0-5.5,0-8.3,0c-3.4,0-6.8,0-10.2,0c-3.7,0-7.4,0-11.1,0c-3.8,0-7.5,0-11.3,0c-3.5,0-7,0-10.5,0c-2.9,0-5.9,0-8.8,0
		c-2.1,0-4.3,0-6.4,0c-0.1,0-0.1,0-0.2,0c0-0.6,0.1-1.2,0.2-1.9c0.5-3.1,1.3-6.2,2.5-9.1c1.2-2.8,2.8-5.5,4.7-8
		c1.9-2.4,4.1-4.6,6.5-6.5c2.2-1.7,4.6-3.1,7.1-4.3c0.1,0.4,0.1,0.8,0.2,1.3c0.3,1.6,0.9,3.1,1.8,4.5c0.8,1.3,1.8,2.6,3,3.6
		c1.4,1.2,2.9,2.1,4.6,2.8c3,1.2,6.6,1.3,9.7,0.4c3.3-1,6-3.1,8-5.9c1-1.4,1.8-3.1,2.2-4.8c0.2-0.6,0.3-1.2,0.3-1.8
		c2.4,1.2,4.8,2.6,6.9,4.2c2.4,1.9,4.6,4.1,6.5,6.5c1.9,2.5,3.4,5.2,4.7,8c1.2,2.9,2,6,2.5,9.1c0.1,0.7,0.2,1.4,0.2,2.1
		C84.2,94.3,82.6,94.3,81,94.3z"/>
	<path d="M65.2,21.9C65.3,22,65.4,22,65.2,21.9L65.2,21.9z"/>
	<path d="M68.5,23.4C68.5,23.4,68.5,23.4,68.5,23.4c0.1,0,0.1,0,0.2,0C68.7,23.4,68.6,23.4,68.5,23.4z"/>
</g>
</svg>
