<?xml version="1.0" encoding="UTF-8"?>
<svg width="540px" height="89px" viewBox="0 0 540 89" version="1.1" xmlns="http://www.w3.org/2000/svg" xmlns:xlink="http://www.w3.org/1999/xlink">
    <!-- Generator: Sketch 49.3 (51167) - http://www.bohemiancoding.com/sketch -->
    <title>img-cinta</title>
    <desc>Created with Sketch.</desc>
    <defs>
        <radialGradient cx="27.246059%" cy="44.5752649%" fx="27.246059%" fy="44.5752649%" r="65.9825804%" gradientTransform="translate(0.272461,0.445753),scale(0.252433,1.000000),translate(-0.272461,-0.445753)" id="radialGradient-1">
            <stop stop-color="#187C5E" offset="0%"></stop>
            <stop stop-color="#497B60" stop-opacity="0.45" offset="41.97%"></stop>
            <stop stop-color="#75C495" stop-opacity="0" offset="100%"></stop>
        </radialGradient>
    </defs>
    <g id="Page-1" stroke="none" stroke-width="1" fill="none" fill-rule="evenodd">
        <g id="home" transform="translate(-900.000000, -1898.000000)" fill-rule="nonzero">
            <g id="Group-11" transform="translate(-152.000000, 1517.000000)">
                <g id="img-cinta" transform="translate(1052.000000, 381.000000)">
                    <path d="M476.412386,47.4763742 C406.828176,35.6143052 336.649228,43.9177535 268.849228,51.6280983 C215.322913,58.1522363 164.770281,65.8625811 120.759755,58.7453397 C61.2860705,49.2556845 28.5755441,23.7522363 11.3281757,2.40051213 C8.94922835,-0.565005115 5.38080729,-0.565005115 2.40712308,1.21430523 C-0.566561127,3.58671902 -0.566561127,7.14533971 1.2176494,10.110857 C14.8965968,27.310857 51.1755441,65.8625811 118.380807,78.3177535 C152.280807,84.248788 200.454492,90.1798225 278.959755,80.0970639 C527.559755,48.0694776 590.007123,100.262581 658.996597,169.655685 C663.159755,166.690167 667.322913,164.317754 672.080807,162.538443 C606.659755,80.0970639 542.428176,58.1522363 476.412386,47.4763742 Z" id="Shape" fill="#2FC594"></path>
                    <path d="M476.412386,47.4763742 C406.828176,35.6143052 336.649228,43.9177535 268.849228,51.6280983 C215.322913,58.1522363 164.770281,65.8625811 120.759755,58.7453397 C61.2860705,49.2556845 28.5755441,23.7522363 11.3281757,2.40051213 C8.94922835,-0.565005115 5.38080729,-0.565005115 2.40712308,1.21430523 C-0.566561127,3.58671902 -0.566561127,7.14533971 1.2176494,10.110857 C14.8965968,27.310857 51.1755441,65.8625811 118.380807,78.3177535 C152.280807,84.248788 200.454492,90.1798225 278.959755,80.0970639 C527.559755,48.0694776 590.007123,100.262581 658.996597,169.655685 C663.159755,166.690167 667.322913,164.317754 672.080807,162.538443 C606.659755,80.0970639 542.428176,58.1522363 476.412386,47.4763742 Z" id="Shape" fill="url(#radialGradient-1)"></path>
                </g>
            </g>
        </g>
    </g>
</svg>