<?xml version="1.0" encoding="UTF-8"?>
<svg width="660px" height="375px" viewBox="0 0 660 375" version="1.1" xmlns="http://www.w3.org/2000/svg" xmlns:xlink="http://www.w3.org/1999/xlink">
    <!-- Generator: Sketch 49.3 (51167) - http://www.bohemiancoding.com/sketch -->
    <title>img-us2</title>
    <desc>Created with Sketch.</desc>
    <defs>
        <radialGradient cx="27.246059%" cy="44.5752649%" fx="27.246059%" fy="44.5752649%" r="65.9825804%" gradientTransform="translate(0.272461,0.445753),scale(0.252433,1.000000),translate(-0.272461,-0.445753)" id="radialGradient-1">
            <stop stop-color="#187C5E" offset="0%"></stop>
            <stop stop-color="#497B60" stop-opacity="0.45" offset="41.97%"></stop>
            <stop stop-color="#75C495" stop-opacity="0" offset="100%"></stop>
        </radialGradient>
    </defs>
    <g id="img-us2" stroke="none" stroke-width="1" fill="none" fill-rule="evenodd">
        <path d="M672.859375,345.995295 C590.386375,332.017295 401.843,313.416888 321.412,322.854888 C258.111,330.282888 198.012,339.576888 145.813,331.392888 C74.841,320.264888 35.746,289.673888 15.592,264.235888 L-27.4238281,260.347656 C-27.4238281,260.347656 -20.5345052,305.285156 -6.75585938,395.160156 L672.859375,395.160156 L672.859375,345.995295 Z" id="Fill-1" fill="#FFFFFF"></path>
        <path d="M727.046875,-98.84375 C644.573875,-112.82175 31.98025,-39.7925625 -20.21875,-47.9765625 C-91.19075,-59.1045625 -0.06475,292.141125 -20.21875,266.703125 L10,255.053888 C10,255.053888 123,13.0538883 490,3.05388827 C566.859767,0.959616683 628.928567,1.98662484 676.2064,6.13491274 C745.020438,12.172847 761.967263,-22.8200406 727.046875,-98.84375 Z" id="Fill-1" fill="#FFFFFF"></path>
        <g id="Group" transform="translate(0.000000, 254.000000)" fill-rule="nonzero">
            <path d="M560.733163,55.8792723 C478.833163,41.9177221 396.233163,51.6908072 316.433163,60.7658149 C253.433163,68.4446675 193.933163,77.5196751 142.133163,69.142745 C72.1331626,57.9735048 33.6331626,27.9561719 13.3331626,2.82538153 C10.5331626,-0.66500602 6.33316257,-0.66500602 2.83316257,1.42922651 C-0.666837432,4.22153655 -0.666837432,8.41000161 1.43316257,11.9003892 C17.5331626,32.1446369 60.2331626,77.5196751 139.333163,92.1793028 C179.233163,99.1600779 235.933163,106.140853 328.333163,94.2735353 C620.933163,56.5773498 694.433163,118.008171 775.633163,199.683239 C780.533163,196.192852 785.433163,193.400542 791.033163,191.306309 C714.033163,94.2735353 638.433163,68.4446675 560.733163,55.8792723 Z" id="Shape" fill="#2FC594"></path>
            <path d="M560.733163,55.8792723 C478.833163,41.9177221 396.233163,51.6908072 316.433163,60.7658149 C253.433163,68.4446675 193.933163,77.5196751 142.133163,69.142745 C72.1331626,57.9735048 33.6331626,27.9561719 13.3331626,2.82538153 C10.5331626,-0.66500602 6.33316257,-0.66500602 2.83316257,1.42922651 C-0.666837432,4.22153655 -0.666837432,8.41000161 1.43316257,11.9003892 C17.5331626,32.1446369 60.2331626,77.5196751 139.333163,92.1793028 C179.233163,99.1600779 235.933163,106.140853 328.333163,94.2735353 C620.933163,56.5773498 694.433163,118.008171 775.633163,199.683239 C780.533163,196.192852 785.433163,193.400542 791.033163,191.306309 C714.033163,94.2735353 638.433163,68.4446675 560.733163,55.8792723 Z" id="Shape" fill="url(#radialGradient-1)"></path>
        </g>
    </g>
</svg>