<?xml version="1.0" encoding="UTF-8"?>
<svg width="680px" height="430px" viewBox="0 0 680 430" version="1.1" xmlns="http://www.w3.org/2000/svg" xmlns:xlink="http://www.w3.org/1999/xlink">
    <!-- Generator: Sketch 49.3 (51167) - http://www.bohemiancoding.com/sketch -->
    <title>img-us</title>
    <desc>Created with Sketch.</desc>
    <defs>
        <radialGradient cx="27.246059%" cy="44.5752649%" fx="27.246059%" fy="44.5752649%" r="65.8503728%" gradientTransform="translate(0.272461,0.445753),scale(0.252940,1.000000),translate(-0.272461,-0.445753)" id="radialGradient-1">
            <stop stop-color="#187C5E" offset="0%"></stop>
            <stop stop-color="#497B60" stop-opacity="0.45" offset="41.97%"></stop>
            <stop stop-color="#75C495" stop-opacity="0" offset="100%"></stop>
        </radialGradient>
    </defs>
    <g id="img-us" stroke="none" stroke-width="1" fill="none" fill-rule="evenodd">
        <path d="M-2.84217094e-14,442.4375 L0.754309786,406.434467 C405.872975,513.754378 653.379067,185.625601 653.379067,185.625601 C658.180169,181.564714 675.543681,158.488466 680,152.798044 C680,152.798044 722.862579,451.734375 691.765625,451.734375 C660.668671,451.734375 54.5963707,451.014458 -2.84217094e-14,442.4375 Z" id="Fill-1" fill="#FFFFFF"></path>
        <path d="M-4,24.737833 L-4,-13.1679688 C-4,-13.1679688 721.101563,-49.1328125 721.101563,-49.1328125 L708.664062,143.90625 C713.465164,139.845363 675.543681,159.488466 680,153.798044 C599.010499,51.3766085 518.67116,24.1814964 437.058587,10.3236587 C405.983798,5.0489468 374.822813,3 343.725859,3 C288.499028,3.00123356 233.495075,9.46509945 179.670771,15.7908064 C113.460143,23.5745838 50.5963707,33.3147909 -4,24.737833 Z" id="Fill-1" fill="#FFFFFF"></path>
        <g id="Group-5" transform="translate(-147.000000, -49.000000)" fill-rule="nonzero">
            <path d="M586.029395,58.5173914 C500.434659,43.8967018 414.108343,54.1311846 330.708343,63.6346328 C264.866238,71.6760121 202.682027,81.1794604 148.545185,72.4070466 C75.3872902,60.7104949 35.1504481,29.2760121 13.9346586,2.95877076 C11.0083428,-0.696401654 6.61886915,-0.696401654 2.96097441,1.49670179 C-0.696920324,4.42083973 -0.696920324,8.80704662 1.49781652,12.462219 C18.3241323,33.662219 62.9504481,81.1794604 145.618869,96.5311846 C187.318869,103.841529 246.576764,111.151874 343.145185,98.724288 C648.945185,59.2484259 734.139284,130.329317 819.002441,215.860352 C824.123494,212.205179 827.32373,206.549614 827.32373,201.385254 C746.850046,99.7714608 667.234659,71.6760121 586.029395,58.5173914 Z" id="Shape" fill="#2FC594"></path>
            <path d="M586.029395,58.5173914 C500.434659,43.8967018 414.108343,54.1311846 330.708343,63.6346328 C264.866238,71.6760121 202.682027,81.1794604 148.545185,72.4070466 C75.3872902,60.7104949 35.1504481,29.2760121 13.9346586,2.95877076 C11.0083428,-0.696401654 6.61886915,-0.696401654 2.96097441,1.49670179 C-0.696920324,4.42083973 -0.696920324,8.80704662 1.49781652,12.462219 C18.3241323,33.662219 62.9504481,81.1794604 145.618869,96.5311846 C187.318869,103.841529 246.576764,111.151874 343.145185,98.724288 C648.945185,59.2484259 725.760974,123.57946 810.624132,209.110495 C815.745185,205.455322 820.866238,202.531185 826.718869,200.338081 C746.245185,98.724288 667.234659,71.6760121 586.029395,58.5173914 Z" id="Shape" fill="url(#radialGradient-1)"></path>
        </g>
    </g>
</svg>