<?xml version="1.0" encoding="utf-8"?>
<!-- Generator: Adobe Illustrator 22.0.1, SVG Export Plug-In . SVG Version: 6.00 Build 0)  -->
<svg version="1.1" id="Layer_1" xmlns="http://www.w3.org/2000/svg" xmlns:xlink="http://www.w3.org/1999/xlink" x="0px" y="0px"
	 viewBox="0 0 175.5 48" style="enable-background:new 0 0 175.5 48;" xml:space="preserve">
<style type="text/css">
	.st0{fill:#DA2346;}
	.st1{fill:none;}
</style>
<g>
	<polygon class="st0" points="47,42 47,11.2 20.4,0 0,21.4 12.2,48 	"/>
	<g>
		<path class="st1" d="M53.2,19.6c-0.7,0-1.2,0.2-1.5,0.5c-0.3,0.4-0.5,0.9-0.5,1.7v9.1c0,0.8,0.2,1.3,0.5,1.7
			c0.3,0.4,0.8,0.5,1.5,0.5c0.7,0,1.2-0.2,1.5-0.5c0.3-0.4,0.5-0.9,0.5-1.7v-9.1c0-0.8-0.2-1.3-0.5-1.7
			C54.3,19.8,53.8,19.6,53.2,19.6z"/>
		<path class="st1" d="M30.7,19.6h-1v4.9h1c1.2,0,1.7-0.6,1.7-1.9v-1.1c0-0.7-0.1-1.1-0.4-1.5C31.7,19.7,31.2,19.6,30.7,19.6z"/>
		<polygon class="st1" points="115.4,21.5 114.2,27.5 116.9,27.5 115.7,21.5 		"/>
		<path d="M38.8,16.3c-1.4-1.1-3.3-1.7-5.9-1.7H19.7v4.9h1.5v13.5h-1.5V38h12.8v-4.9h-2.9v-4.3h3.3c2.6,0,4.5-0.6,5.9-1.7
			c1.4-1.1,2-2.9,2-5.4C40.9,19.2,40.2,17.4,38.8,16.3z M32.4,22.6c0,1.3-0.6,1.9-1.7,1.9h-1v-4.9h1c0.6,0,1,0.2,1.3,0.5
			c0.3,0.3,0.4,0.8,0.4,1.5V22.6z"/>
		<path d="M53.2,14.2c-3.7,0-6.5,1-8.5,2.9s-3,5-3,9.2s1,7.3,3,9.2s4.8,2.9,8.5,2.9c3.7,0,6.5-1,8.5-2.9c2-1.9,3-5,3-9.2
			s-1-7.3-3-9.2C59.6,15.2,56.8,14.2,53.2,14.2z M55.2,30.9c0,0.8-0.2,1.3-0.5,1.7c-0.3,0.4-0.9,0.5-1.5,0.5c-0.7,0-1.2-0.2-1.5-0.5
			c-0.3-0.3-0.5-0.9-0.5-1.7v-9.1c0-0.8,0.2-1.3,0.5-1.7c0.3-0.4,0.8-0.5,1.5-0.5c0.7,0,1.2,0.2,1.5,0.5c0.3,0.4,0.5,0.9,0.5,1.7
			V30.9z"/>
		<polygon points="78.2,33.1 75.5,33.1 75.5,19.6 78.3,19.6 78.3,14.7 65.6,14.7 65.6,19.6 67.1,19.6 67.1,33.1 65.6,33.1 65.6,38 
			84.2,38 84.2,30.3 78.2,30.3 		"/>
		<polygon points="97.8,33.1 95.1,33.1 95.1,19.6 97.9,19.6 97.9,14.7 85.2,14.7 85.2,19.6 86.7,19.6 86.7,33.1 85.2,33.1 85.2,38 
			103.8,38 103.8,30.3 97.8,30.3 		"/>
		<path d="M126.8,33.1l-5.1-18.4h-10.9l-5.1,18.4h-1.2V38h10.3v-4.9H113l0.5-2.4h4.1l0.5,2.4h-1.8V38H128v-4.9H126.8z M114.2,27.5
			l1.2-6h0.3l1.2,6H114.2z"/>
	</g>
	<g>
		<polygon class="st1" points="162.9,21.5 161.6,27.5 164.4,27.5 163.2,21.5 		"/>
		<polygon class="st0" points="142.1,19.6 143.2,19.6 141.4,24.2 141.1,24.2 139.3,19.6 140.4,19.6 140.4,14.7 128.8,14.7 
			128.8,19.6 130,19.6 135.9,30 135.9,33.1 134.4,33.1 134.4,38 145.8,38 145.8,33.1 144.3,33.1 144.3,30 150.1,19.6 151.3,19.6 
			151.3,14.7 142.1,14.7 		"/>
		<path class="st0" d="M174.3,33.1l-5.1-18.4h-10.9l-5.1,18.4H152V38h10.3v-4.9h-1.8l0.5-2.4h4.1l0.5,2.4h-1.8V38h11.8v-4.9H174.3z
			 M161.6,27.5l1.2-6h0.3l1.2,6H161.6z"/>
	</g>
</g>
</svg>
