<?xml version="1.0" encoding="utf-8"?>
<!-- Generator: Adobe Illustrator 23.0.6, SVG Export Plug-In . SVG Version: 6.00 Build 0)  -->
<svg version="1.1" id="Capa_1" xmlns="http://www.w3.org/2000/svg" xmlns:xlink="http://www.w3.org/1999/xlink" x="0px" y="0px"
	 viewBox="0 0 200 158.5" style="enable-background:new 0 0 200 158.5;" xml:space="preserve">
<style type="text/css">
	.st0{fill:#FF1D45;}
	.st1{fill:#FFFFFF;}
</style>
<title>Group 38</title>
<desc>Created with Sketch.</desc>
<g>
	<path class="st0" d="M135.1,11.8C95.7-3.6,60.1,1.4,30.9,35.4S-15.7,128.9,20,149.9c34.8,20.5,163.1,5.6,179.6-55.7
		C203.7,63.9,174.4,27.2,135.1,11.8z M151.8,93.5c-1.2,9.8-8.7,21.7-18,27.9c-21.7,14.7-70.4,24.2-97.5,16.2
		c-4.9-1.4-17.1-8.2-22.4-31.7c-4.1-20.4,6.1-48.3,20.4-66.6C45.4,25,58,17.4,71.7,15.6c9-1.2,19.5-4.7,36.8,3.3
		C135.3,31.4,154.6,70.6,151.8,93.5z"/>
	<path class="st1" d="M138.3,7.7C101.6-6.6,68.5-1.9,41.2,29.8c-4,4.7-7.8,9.9-11.2,15.4c1.4-2,2.8-4,4.2-5.8
		C54.4,13.6,78.9,9.8,106,21.4c27.1,11.7,45.6,49.2,42.8,72c-1.2,9.8-8.2,19.2-17.5,25.4c-25.6,17.4-80.6,22.5-104.6,7
		c-12.3-7.9-15.5-23.1-13-39.6c-3.7,20.8,0.4,40.1,17.4,50.1c32.4,19.1,106.8,12.8,141.4-8.6c12.5-7.7,22-19.3,23.6-31.3
		C199.9,68.3,175,22.1,138.3,7.7z"/>
</g>
</svg>
