<?xml version="1.0" encoding="utf-8"?>
<!-- Generator: Adobe Illustrator 21.1.0, SVG Export Plug-In . SVG Version: 6.00 Build 0)  -->
<svg version="1.1" id="Capa_1" xmlns="http://www.w3.org/2000/svg" xmlns:xlink="http://www.w3.org/1999/xlink" x="0px" y="0px"
	 viewBox="0 0 161 90" style="enable-background:new 0 0 161 90;" xml:space="preserve">
<style type="text/css">
	.st0{fill:#304A6F;}
	.st1{fill:#FBB000;}
	.st2{fill:#FFFFFF;}
</style>
<path class="st0" d="M42,84.2c8.2,0.2,20.2,0.4,25.7-0.3c8.7-1.1,7.5-20.2,8.3-27.9c0.2-1.8,2.3-14.4,2.3-14.6
	c12.6-0.2,3-10.6,3-10.6L53.3,6.5c0,0-5.2-5.5-11.1-5.5h0.7c-5.8,0-11.1,5.5-11.1,5.5L4,30.9c0,0-9.6,10.4,3,10.6
	C7,41.7,9,54.3,9.2,56c0.8,7.7-0.4,26.8,8.3,27.9c5.5,0.7,17.5,0.5,25.7,0.3"/>
<path class="st1" d="M42.4,42.1c-0.8-0.6-15.2-13-8.3-17.5c6.9-4.5,8.7,6.6,8.7,6.6h0c0,0,1.8-11.1,8.7-6.6
	c6.9,4.5-7.5,17.2-8.3,17.8L42.4,42.1z"/>
<g>
	<path class="st0" d="M98.2,46.8c0-1.9,0-4.3,0-6.3c0-1.5,0-2.8,0-3.6c0-0.8-0.4-1.3-1.2-1.3c-0.6,0-0.9,0.1-1.3,0.3l-0.2,0.1l0,0.2
		c0.1,1.7,0.3,6.5,0.3,9.5c-1.2,0-2.4,0-3.8,0.1c0-2.6,0-5.2,0-7.1l0-1.9c0-0.8-0.5-1.3-1.3-1.3c-0.5,0-0.7,0.1-1,0.2l-0.2,0.1
		l0,0.2c-0.1,1.3,0,4.3,0,7.1c0,1.2,0,2.4,0,3.4c0,3.2,0,7.3,0,9.5c0,0.7,0.5,1.2,1.2,1.2c0.6,0,0.8-0.1,1.1-0.3l0.2-0.1l0-0.2
		c0-1.3-0.1-5-0.1-8.6c1.3,0,2.5,0,3.8,0c0,2.1,0,4.2,0,6l0,2c0,0.7,0.5,1.2,1.3,1.2c0.5,0,0.7-0.1,1-0.4l0.1-0.1v-0.2
		c0-0.8,0-2.1-0.1-3.7C98.2,50.9,98.2,48.7,98.2,46.8z"/>
	<path class="st0" d="M108,41.3c0-0.7-0.4-1.1-1.1-1.1c-0.3,0-0.8,0.1-1,0.2l-0.2,0.1l0,0.2c0.2,3.1,0.2,6.2,0.2,9.1
		c0,3.3-1.2,4.6-2,4.6c-0.2,0-1,0-1.1-2.8c-0.1-2.1,0-3.8,0-5.4c0-1.7,0.1-3.2,0-5c0-0.6-0.6-1-1.2-1c-0.4,0-0.7,0-1,0.2l-0.2,0.1
		l0,0.2c0.1,2.5,0.1,5.4,0.1,8.2c0,1.1,0,2.2,0,3.2c0,4.5,2,5,2.8,5c1,0,1.9-0.7,2.6-1.9l0,0.9c0,0.6,0.4,1.1,1.1,1.1
		c0.5,0,0.8-0.1,1.1-0.3l0.2-0.1l0-0.2C108,52.5,108,44.9,108,41.3z"/>
	<path class="st0" d="M116.4,53.6c-0.3,0-0.6,0.1-0.8,0.3l-0.1,0.1l0,0.1c-0.1,0.5-0.6,1-1.2,1c-1.3,0-2-1.6-2.1-4.9
		c0.7,0,1.5,0,2.1,0h0.8c0.6,0,1.1,0,1.6,0l0.2,0l0.1-0.2c0.2-0.4,0.2-1.2,0.2-1.6c0-5.4-1.2-8.1-3.5-8.1c-2.5,0-3.9,3.1-3.9,8.3
		c0,5.9,1.4,8.8,4.2,8.8c1.5,0,2.2-0.6,2.8-1.2c0.4-0.4,0.5-0.9,0.5-1.4C117.4,54,117,53.6,116.4,53.6z M113.7,42.6
		c0.5,0,1.3,1.2,1.4,5.4c-0.7,0-1.4,0-2.1,0.1c-0.3,0-0.6,0-0.9,0C112.2,43,113.4,42.6,113.7,42.6z"/>
	<path class="st0" d="M129.6,54.6l-0.2-0.1l-0.2,0.1c-0.3,0.2-0.6,0.2-1,0.2c-1.4,0-1.6-1.7-1.6-2.4c0-3,0-6.1,0.1-9.3
		c0-2.6,0.1-5.2,0.1-8c0-0.8-0.5-1.3-1.2-1.3h0c-0.5,0-0.9,0.1-1.1,0.4l-0.1,0.1l0,0.1c0.1,3.7,0,7.1,0,10.3c0,2.7,0,5.3,0,8
		c0,2.9,1.4,4.5,3.7,4.5c1.2,0,2-0.6,2-1.5C130.1,55.1,129.8,54.7,129.6,54.6z"/>
	<path class="st0" d="M123.8,54.6l-0.2,0.1c-0.2,0.1-0.5,0.1-0.8,0.1c-0.7,0-1.4-0.3-1.4-2.3c0-2.9,0-5.8,0.1-8.9
		c0-2.5,0.1-5.2,0.1-8c0-0.8-0.5-1.3-1.2-1.3c0,0,0,0,0,0c-0.3,0-0.8,0.1-1.1,0.5l-0.1,0.1l0,0.1c0.1,3.4,0,6.4,0,9.3
		c0,2.9,0,5.6,0,8.6c0,2.9,1.1,4.4,3.2,4.4c1.2,0,2-0.5,2-1.3c0-0.4-0.1-0.8-0.3-1.2L123.8,54.6z"/>
	<path class="st0" d="M132.8,40.5c-0.2-0.2-0.5-0.4-0.9-0.4c-0.5,0-0.8,0.1-1,0.3l-0.2,0.1l0,0.2c-0.1,1.9,0,4.2,0,6.6
		c0,3,0,6-0.1,8.7c0,0.3,0.1,0.6,0.3,0.8c0.3,0.3,0.7,0.4,1,0.4c0.5,0,0.7-0.1,0.9-0.3l0.2-0.1l0-0.2c0-3.7-0.1-10.6,0.1-15.5
		C133.1,41,133,40.7,132.8,40.5z"/>
	<path class="st0" d="M132.1,34.8c-0.4,0-0.8,0.1-1,0.3l-0.2,0.1l0,0.2c0,0.9,0,1.5,0,2.3c0,0.3,0.1,0.6,0.3,0.8
		c0.2,0.2,0.5,0.3,0.8,0.3c0.4,0,0.8-0.2,1-0.3l0.2-0.1l0-0.2c0-0.5,0-1,0-1.4c0-0.3,0-0.6,0-1C133.2,35.1,132.6,34.8,132.1,34.8z"
		/>
	<path class="st0" d="M138.5,42.5c0.9,0,1.8,0,2.6,0l0.3,0l0.1-0.2c0.1-0.2,0.2-0.5,0.2-0.9c0-0.7-0.4-1.1-1-1.1c0,0-0.1,0-0.1,0
		c-0.6,0-1.3,0-2,0c0-1.4,0-2.6-0.1-3.7c-0.1-0.7-0.4-1-1.1-1c-0.4,0-0.8,0.1-1,0.3l-0.2,0.1l0,0.2c0,1.2,0.1,2.6,0.1,4.1
		c-0.5,0-1,0-1.4,0l-0.1,0l-0.1,0c-0.4,0.1-0.6,0.7-0.6,1.2c0,0.7,0.4,1.1,1.1,1.1h0c0.3,0,0.7,0,1,0c0,1.4,0,2.8,0,4.2
		c0,1.9,0,3.8,0,5.6c0,4.2,2.1,4.8,3.4,4.8c1.3,0,2.2-0.6,2.2-1.5c0-0.5-0.2-0.9-0.4-1.2l-0.2-0.2l-0.2,0.1
		c-0.4,0.2-0.8,0.3-1.2,0.3c-0.7,0-1.1-0.8-1.1-2.4c-0.1-2.2,0-4.7,0.1-7.1C138.5,44.3,138.5,43.4,138.5,42.5z"/>
	<path class="st0" d="M149.6,44.6c0-1.4-0.3-2.5-1.1-3.3c-0.7-0.7-1.7-1.1-2.9-1.1c-1,0-2,0.4-2.5,1c-0.4,0.3-0.8,0.9-0.8,1.7
		c0,0.4,0.1,0.7,0.3,1c0.3,0.4,0.9,0.5,1.4,0.3l0.2-0.1l0-0.2c0.2-1.3,0.8-1.4,1.3-1.4c1.1,0,1.6,0.8,1.6,2.5l0,0.6
		c0,0.3,0,0.8,0,1.3c-3.4,0.2-5.2,2.1-5.2,5.4c0,4.3,1.8,4.9,2.9,4.9c0.9,0,1.7-0.5,2.4-1.4c0,0.2,0,0.3,0,0.3
		c0,0.7,0.4,1.1,1.2,1.1c0.5,0,0.8-0.1,1-0.3l0.2-0.1l0-0.2C149.6,55.4,149.5,46.5,149.6,44.6z M145.4,54.9c-0.7,0-1.2-1-1.2-2.6
		c0-2.2,0.8-3.2,3-3.4c0,0.8,0,1.7,0,2.4c0,1.3-0.4,2.5-1,3.2C146.1,54.7,145.8,54.9,145.4,54.9z"/>
	<path class="st0" d="M155.7,48.4c-1.1-1.2-2.2-2.4-2.2-3.9c0-1,0.4-1.9,1.3-1.9c0.9,0,1.5,0.7,1.6,0.9l0.1,0.1h0.2
		c0.6,0,1.2-0.5,1.2-1.2c0-0.7-0.3-1.1-0.6-1.4c-0.6-0.5-1.4-0.8-2.4-0.8c-2.2,0-3.7,1.7-3.7,4.4c0,2.1,1.4,3.7,2.7,5.1
		c1,1.1,1.9,2.1,1.9,3.2c0,1.1-0.7,1.9-1.6,1.9c-0.8,0-1.4-0.5-1.7-0.8c-0.1-0.1-0.1-0.1-0.2-0.2l-0.1-0.1l-0.1,0
		c-0.6,0-1.1,0.5-1.1,1.2c0,0.4,0.2,0.9,0.6,1.2c0.7,0.6,1.6,0.9,2.7,0.9c2.3,0,4-1.8,4-4.2C158.2,51.1,156.9,49.7,155.7,48.4z"/>
</g>
<g>
	<path class="st0" d="M124,70.3c0-2.1-0.3-3.5-1-4.2c-0.4-0.4-0.8-0.6-1.4-0.6c-1.1,0-2.1,0.6-2.7,1.8c0-0.7,0-1.3,0.1-2
		c0-1.4,0.1-2.8,0.1-4.3c0-1.5-0.9-1.7-1.3-1.7c-0.6,0-0.9,0.2-1.2,0.5l-0.1,0.1l0,0.2c0.2,5.3,0.3,12.9,0.2,21.3
		c0,0.8,0.4,1.2,1.1,1.2c0.6,0,0.8-0.2,1-0.3l0.2-0.1l0-0.2c-0.1-3.1-0.1-7.1-0.1-9.3c0.1-1.2,0.6-4.4,2.1-4.4
		c0.5,0,0.8,0.8,0.8,2.5c0,0.9,0,2,0,3.2c0,2.2,0,4.9,0.1,7.5c0,0.7,0.4,1.1,1.1,1.1c0.4,0,0.9-0.1,1.1-0.3l0.2-0.1l0-0.2
		C124,78.3,124,73.7,124,70.3z"/>
	<path class="st0" d="M129.8,65.6L129.8,65.6c-1,0-1.7,0.3-2.3,0.9c-1.3,1.3-1.9,3.8-1.9,7.4c0,5.5,1.5,8.6,4.1,8.6
		c0.7,0,1.3-0.3,1.9-0.8c1.3-1.3,2-4.2,2-8.2C133.7,68.6,132.3,65.7,129.8,65.6z M129.7,68l0-0.3L129.7,68c1,0,1.7,2.1,1.7,5.5
		c0,3.9-0.6,5.9-1.2,6.6c-0.1,0.1-0.3,0.2-0.4,0.2c-1.1,0-1.8-2.3-1.8-6.3C127.9,70.1,128.6,68,129.7,68z"/>
	<path class="st0" d="M139.2,78.8c-0.8-0.6-1.4-1.3-1.4-1.8c0-0.3,0-0.6,0.1-0.8c0.2,0,0.4,0.1,0.6,0.1c2.3,0,3.9-2.6,3.9-6.4
		c0-1.5-0.4-2.7-1.1-3.4c0.1-1.1,0.2-1.1,0.5-1.1c0.2,0,0.4,0,0.5,0.1l0.2,0.1l0.2-0.2c0.3-0.3,0.4-0.6,0.4-1c0-0.7-0.6-1.2-1.4-1.2
		c-0.9,0-1.9,0.4-2.1,2.5c-0.3-0.1-0.6-0.1-1-0.1c-1.6,0-3.6,0.8-3.6,4.7c0,2.2,0.5,3.9,1.3,5c-0.4,0.6-0.6,1.4-0.6,2.2
		c0,0.7,0.2,1.4,0.6,1.9c-1,1.1-1.5,2.7-1.5,4.4c0,2.9,1.5,4.7,4.1,4.7c2.4,0,4.2-1.7,4.2-4C143.1,82,142.1,80.8,139.2,78.8z
		 M140.7,84.4c0,1.1-0.7,1.9-1.8,1.9c-1.4,0-1.8-1.3-1.8-2.6c0-1.5,0.4-2.4,0.7-2.9C140,82.3,140.7,82.9,140.7,84.4z M138.5,74.1
		c-0.7,0-1.3-1.7-1.3-3.9c0-0.7,0.1-2.4,1.3-2.4c0.4,0,1.5,0,1.5,2.3C140.1,72.4,139.3,74.1,138.5,74.1z"/>
	<path class="st0" d="M151.1,69.9c0-1.4-0.3-2.5-1.1-3.3c-0.7-0.7-1.7-1.1-2.9-1.1c-1,0-2,0.4-2.5,1c-0.4,0.3-0.8,0.9-0.8,1.7
		c0,0.4,0.1,0.7,0.3,1c0.3,0.4,0.9,0.5,1.4,0.3l0.2-0.1l0-0.2c0.2-1.3,0.8-1.4,1.3-1.4c1.1,0,1.6,0.8,1.6,2.5l0,0.6
		c0,0.3,0,0.8,0,1.3c-3.4,0.2-5.2,2.1-5.2,5.5c0,4.3,1.8,4.9,2.9,4.9c0.9,0,1.7-0.5,2.4-1.4c0,0.2,0,0.3,0,0.3
		c0,0.7,0.4,1.1,1.2,1.1c0.5,0,0.8-0.1,1-0.3l0.2-0.1l0-0.2C151.1,80.7,151,71.9,151.1,69.9z M146.9,80.3c-0.7,0-1.2-1-1.2-2.6
		c0-2.2,0.8-3.2,3-3.4c0,0.8,0,1.7,0,2.4c0,1.3-0.4,2.5-1,3.2C147.6,80,147.3,80.3,146.9,80.3z"/>
	<path class="st0" d="M158.6,65.6c-1.3,0-2.4,1.2-3.2,2.8c0-0.5,0-1,0.1-1.5c0-0.5-0.1-0.7-0.3-0.9c-0.2-0.2-0.6-0.4-1-0.4
		c-0.5,0-0.8,0.2-1,0.3l-0.2,0.1l0,0.2c0.1,3.6,0.1,7.3,0.1,10.8c0,1.5,0,3,0,4.4c0,0.8,0.4,1.2,1.2,1.2c0.4,0,1-0.1,1.2-0.3
		l0.2-0.1l0-0.2c-0.1-2.4-0.3-5.8-0.2-8.5c0.1-2.3,1.5-5.2,2.6-5.2c0.2,0,0.5,0,0.5,1.5l0,0.1l0,0.1c0.2,0.4,0.7,0.6,1.2,0.6
		c0.7,0,1.2-0.5,1.2-1.2C161,68.4,160.9,65.6,158.6,65.6z"/>
</g>
<g>
	<path class="st1" d="M91.5,69.9c0-1,0.4-1.9,1.3-1.9c0.9,0,1.5,0.7,1.6,0.9l0.1,0.1h0.2c0.6,0,1.2-0.5,1.2-1.2
		c0-0.7-0.3-1.1-0.6-1.4c-0.6-0.5-1.4-0.8-2.4-0.8c-2.2,0-3.7,1.7-3.7,4.5c0,2.1,1.4,3.7,2.7,5.1c1,1.1,1.9,2.1,1.9,3.2
		c0,1.1-0.7,1.9-1.6,1.9c-0.8,0-1.4-0.5-1.7-0.8c-0.1-0.1-0.1-0.1-0.2-0.2l-0.1-0.1l-0.1,0c-0.6,0-1.1,0.5-1.1,1.2
		c0,0.4,0.2,0.9,0.6,1.2c0.7,0.6,1.6,0.9,2.7,0.9c2.3,0,4-1.8,4-4.2c0-1.9-1.3-3.2-2.5-4.6C92.6,72.5,91.5,71.3,91.5,69.9z"/>
	<path class="st1" d="M99,60.1c-0.4,0-0.8,0.1-1,0.3l-0.2,0.1l0,0.2c0,0.9,0,1.5,0,2.3c0,0.3,0.1,0.6,0.3,0.8
		c0.2,0.2,0.5,0.3,0.8,0.3c0.4,0,0.8-0.2,1-0.3l0.2-0.1l0-0.2c0-0.5,0-1,0-1.4c0-0.3,0-0.6,0-1C100.2,60.5,99.6,60.1,99,60.1z"/>
	<path class="st1" d="M99.7,65.9c-0.2-0.2-0.6-0.4-0.9-0.4c-0.5,0-0.8,0.1-1,0.3l-0.2,0.1l0,0.2c-0.1,1.9,0,4.2,0,6.6
		c0,3,0,6-0.1,8.7c0,0.3,0.1,0.6,0.3,0.8c0.3,0.3,0.7,0.4,1,0.4c0.5,0,0.7-0.1,0.9-0.3l0.2-0.1l0-0.2c0-3.7-0.1-10.6,0.1-15.4
		C100,66.3,99.9,66.1,99.7,65.9z"/>
	<path class="st1" d="M110.3,81.9c-0.1-2.3-0.1-5.1-0.1-7.9c0-1.4,0-2.8,0-4.2c0-2.6-1.1-4.2-2.7-4.2c-1.1,0-2.2,0.9-3,2.4
		c0-0.4,0-0.9,0-1.2c0-0.4-0.1-0.7-0.3-0.9c-0.2-0.2-0.5-0.4-0.9-0.4c-0.5,0-0.9,0.1-1.2,0.4l-0.1,0.1l0,0.2
		c0.3,4.8,0.3,9.9,0.3,15.3c0,0.6,0.4,1.1,1.2,1.1c0.6,0,0.9-0.3,1.1-0.5l0.1-0.1l0-0.1c-0.1-2.4-0.2-5.8-0.2-8.6c0-2.7,1.4-5,2.2-5
		c0.9,0,1,1.8,1,2.6c0,2.2,0,3.9,0,5.7c0,1.5,0,3,0,4.8c0,0.8,0.6,1.2,1.2,1.2c0.7,0,1-0.3,1.2-0.5l0.1-0.1L110.3,81.9z"/>
</g>
<path class="st2" d="M66.7,37.6c-0.1-1.2-1.1-2.1-2.3-2.1c-1.2,0-2.1,1.1-2.1,2.3c0,0.1,0.2,5.2-2.6,8.1c-1.3,1.3-3,2-5.2,2
	c-6.9,0-8.7-3.3-9.1-4.6c2.7-2.4,10.2-9.7,10.1-15.4c-0.1-2-1-3.7-2.8-4.9c-2.9-1.8-5.1-1.5-6.4-0.9c-1.5,0.7-2.6,1.9-3.4,3.3
	c-0.8-1.4-1.9-2.6-3.4-3.3c-1.4-0.6-3.6-0.9-6.4,0.9c-1.8,1.1-2.7,2.8-2.8,4.8c-0.2,6.1,8.6,14,10.6,15.6c-0.5,1.4-2.5,4.4-9,4.4
	c-2.2,0-3.9-0.6-5.2-2c-2.8-2.9-2.6-8-2.6-8.1c0-1.2-0.9-2.2-2.1-2.3c-1.2-0.1-2.2,0.9-2.3,2.1c0,0.3-0.2,7,3.8,11.3
	c2.1,2.2,4.9,3.3,8.4,3.3c5.8,0,9.4-2.1,11.4-4.4c2,2.3,5.5,4.4,11.4,4.4c3.4,0,6.2-1.1,8.4-3.3C67,44.6,66.7,37.8,66.7,37.6z
	 M34.2,27.8c0-0.5,0.1-1,1-1.6c0.9-0.6,1.6-0.7,2-0.7c0.3,0,0.5,0.1,0.6,0.1c1.7,0.7,2.8,4.3,3,5.9c0.2,1,1,1.7,2,1.7
	c1,0,1.8-0.7,2-1.7c0.3-1.6,1.3-5.1,3-5.9c0.3-0.1,1-0.4,2.6,0.6c0.6,0.4,0.9,0.9,1,1.6c0.1,3.5-5.9,9.8-8.5,12.2
	C40.6,38,34.1,31.5,34.2,27.8z"/>
</svg>
